<?xml version="1.0" encoding="UTF-8"?><svg id="Layer_1" xmlns="http://www.w3.org/2000/svg" viewBox="0 0 1920 1080"><defs><style>.cls-1{stroke-width:.85px;}.cls-1,.cls-2,.cls-3,.cls-4,.cls-5{fill-rule:evenodd;}.cls-1,.cls-2,.cls-3,.cls-5{fill:none;stroke:#c79b33;stroke-miterlimit:10;}.cls-2{stroke-width:.82px;}.cls-3{stroke-width:1.49px;}.cls-6{opacity:.4;}.cls-4{fill:#c79b33;}.cls-5{stroke-width:.57px;}</style></defs><rect class="cls-6" width="1920" height="1080"/><g><polygon class="cls-4" points="831.57 485.45 946.94 436.57 946.94 534.54 831.57 485.45"/><polygon class="cls-3" points="833.38 493.44 958.81 440.3 958.81 546.81 833.38 493.44"/><polygon class="cls-4" points="342.13 213.04 384.88 194.92 384.88 231.23 342.13 213.04"/><polygon class="cls-4" points="1793.45 609.61 1836.21 591.49 1836.21 627.8 1793.45 609.61"/><polygon class="cls-4" points="1465.85 595.74 1549.6 560.25 1549.6 631.38 1465.85 595.74"/><polygon class="cls-4" points="1343.88 867.76 1385.76 850.01 1385.76 885.58 1343.88 867.76"/><polygon class="cls-4" points="1604.84 233.37 1653.06 212.94 1653.06 253.89 1604.84 233.37"/><polygon class="cls-4" points="922.84 276.46 971.05 256.03 971.05 296.98 922.84 276.46"/><polygon class="cls-4" points="1115 159.08 1163.21 138.65 1163.21 179.59 1115 159.08"/><polygon class="cls-4" points="1766.94 276.49 1782.46 269.92 1782.46 283.09 1766.94 276.49"/><polygon class="cls-4" points="1560.37 760.41 1596.43 745.13 1596.43 775.75 1560.37 760.41"/><polygon class="cls-4" points="1209.61 938.91 1225.12 932.33 1225.12 945.51 1209.61 938.91"/><polygon class="cls-4" points="1402.63 368.32 1418.14 361.75 1418.14 374.92 1402.63 368.32"/><polygon class="cls-4" points="1101.48 760.42 1117 753.85 1117 767.03 1101.48 760.42"/><polygon class="cls-4" points="1750.81 775.72 1782.46 762.31 1782.46 789.19 1750.81 775.72"/><polygon class="cls-4" points="1339.04 711.43 1364.82 700.51 1364.82 722.4 1339.04 711.43"/><polygon class="cls-4" points="1671.03 403.88 1734.09 377.16 1734.09 430.72 1671.03 403.88"/><polygon class="cls-2" points="1672.02 408.25 1740.58 379.2 1740.58 437.42 1672.02 408.25"/><polygon class="cls-4" points="40.38 103.01 124.14 67.52 124.14 138.65 40.38 103.01"/><polygon class="cls-4" points="393.14 988.94 435.02 971.2 435.02 1006.76 393.14 988.94"/><polygon class="cls-4" points="176.98 609.6 225.19 589.17 225.19 630.12 176.98 609.6"/><polygon class="cls-4" points="355.75 128.14 371.26 121.56 371.26 134.74 355.75 128.14"/><polygon class="cls-4" points="494.3 453.88 509.81 447.31 509.81 460.48 494.3 453.88"/><polygon class="cls-4" points="568.11 114.96 583.62 108.39 583.62 121.56 568.11 114.96"/><polygon class="cls-4" points="414.08 471.66 429.59 465.09 429.59 478.26 414.08 471.66"/><polygon class="cls-4" points="694.23 453.87 720.01 442.95 720.01 464.84 694.23 453.87"/><polygon class="cls-1" points="398.11 318.91 469.37 288.72 469.37 349.23 398.11 318.91"/><polygon class="cls-4" points="935.44 903.28 1019.2 867.79 1019.2 938.92 935.44 903.28"/><polygon class="cls-4" points="1740.58 85.27 1782.46 67.52 1782.46 103.09 1740.58 85.27"/><polygon class="cls-4" points="641.13 664.8 689.35 644.38 689.35 685.32 641.13 664.8"/><polygon class="cls-4" points="382.59 768.42 398.11 761.85 398.11 775.03 382.59 768.42"/><polygon class="cls-4" points="108.63 453.88 124.14 447.31 124.14 460.48 108.63 453.88"/><polygon class="cls-4" points="841.23 745.11 856.74 738.54 856.74 751.71 841.23 745.11"/><polygon class="cls-4" points="282.83 921.12 298.34 914.55 298.34 927.72 282.83 921.12"/><polygon class="cls-4" points="562.98 903.33 588.75 892.41 588.75 914.3 562.98 903.33"/><polygon class="cls-4" points="1465.85 138.57 1549.6 103.09 1549.6 174.21 1465.85 138.57"/><polygon class="cls-4" points="1128.79 644.34 1170.67 626.6 1170.67 662.16 1128.79 644.34"/><polygon class="cls-4" points="749.24 205.58 797.46 185.16 797.46 226.1 749.24 205.58"/><polygon class="cls-4" points="1128.79 226.81 1144.3 220.24 1144.3 233.42 1128.79 226.81"/><polygon class="cls-4" points="1109.24 361.73 1124.75 355.16 1124.75 368.33 1109.24 361.73"/><polygon class="cls-4" points="1732.82 958.71 1748.34 952.14 1748.34 965.31 1732.82 958.71"/><polygon class="cls-4" points="1435.5 975.52 1467.15 962.11 1467.15 988.98 1435.5 975.52"/><polygon class="cls-4" points="1322.06 185.13 1347.84 174.21 1347.84 196.1 1322.06 185.13"/><polygon class="cls-1" points="941.69 108.33 1012.95 78.13 1012.95 138.65 941.69 108.33"/><polygon class="cls-1" points="80.75 988.92 152.01 958.73 152.01 1019.24 80.75 988.92"/><polygon class="cls-5" points="1483.84 447.26 1531.61 427.02 1531.61 467.59 1483.84 447.26"/><polygon class="cls-5" points="749.46 958.68 797.23 938.44 797.23 979.01 749.46 958.68"/><polygon class="cls-4" points="1206.18 508.19 1231.95 497.26 1231.95 519.15 1206.18 508.19"/><polygon class="cls-4" points="1324.12 594.13 1339.63 587.56 1339.63 600.73 1324.12 594.13"/><polygon class="cls-4" points="1613.44 50.6 1628.95 44.03 1628.95 57.2 1613.44 50.6"/><polygon class="cls-4" points="219.76 379.9 245.54 368.98 245.54 390.87 219.76 379.9"/><polygon class="cls-4" points="204.85 262.61 220.36 256.03 220.36 269.21 204.85 262.61"/><polygon class="cls-4" points="721.7 330.78 737.21 324.21 737.21 337.38 721.7 330.78"/><polygon class="cls-4" points="641.48 348.56 656.99 341.99 656.99 355.16 641.48 348.56"/></g></svg>