<!-- <?xml version="1.0" encoding="UTF-8"?><svg id="Layer_1" xmlns="http://www.w3.org/2000/svg" viewBox="0 0 1795.83 975.85"><defs><style>.cls-1{stroke-width:.85px;}.cls-1,.cls-2,.cls-3,.cls-4,.cls-5{fill-rule:evenodd;}.cls-1,.cls-2,.cls-3,.cls-5{fill:none;stroke:#c79b33;stroke-miterlimit:10;}.cls-2{stroke-width:.82px;}.cls-3{stroke-width:1.49px;}.cls-4{fill:#c79b33;}.cls-5{stroke-width:.57px;}</style></defs><polygon class="cls-4" points="791.19 441.42 906.56 392.54 906.56 490.52 791.19 441.42"/><polygon class="cls-3" points="793 449.41 918.43 396.27 918.43 502.79 793 449.41"/><polygon class="cls-4" points="301.75 169.01 344.5 150.9 344.5 187.2 301.75 169.01"/><polygon class="cls-4" points="1753.07 565.58 1795.83 547.46 1795.83 583.77 1753.07 565.58"/><polygon class="cls-4" points="1425.46 551.71 1509.22 516.23 1509.22 587.35 1425.46 551.71"/><polygon class="cls-4" points="1303.5 823.73 1345.37 805.99 1345.37 841.55 1303.5 823.73"/><polygon class="cls-4" points="1564.46 189.34 1612.67 168.92 1612.67 209.86 1564.46 189.34"/><polygon class="cls-4" points="882.46 232.44 930.67 212.01 930.67 252.95 882.46 232.44"/><polygon class="cls-4" points="1074.62 115.05 1122.83 94.62 1122.83 135.57 1074.62 115.05"/><polygon class="cls-4" points="1726.56 232.47 1742.07 225.89 1742.07 239.07 1726.56 232.47"/><polygon class="cls-4" points="1519.99 716.38 1556.05 701.1 1556.05 731.73 1519.99 716.38"/><polygon class="cls-4" points="1169.23 894.88 1184.74 888.31 1184.74 901.48 1169.23 894.88"/><polygon class="cls-4" points="1362.25 324.29 1377.76 317.72 1377.76 330.89 1362.25 324.29"/><polygon class="cls-4" points="1061.1 716.4 1076.61 709.83 1076.61 723 1061.1 716.4"/><polygon class="cls-4" points="1710.43 731.7 1742.07 718.29 1742.07 745.16 1710.43 731.7"/><polygon class="cls-4" points="1298.66 667.4 1324.43 656.48 1324.43 678.37 1298.66 667.4"/><polygon class="cls-4" points="1630.64 359.85 1693.71 333.13 1693.71 386.69 1630.64 359.85"/><polygon class="cls-2" points="1631.63 364.22 1700.2 335.17 1700.2 393.4 1631.63 364.22"/><polygon class="cls-4" points="0 58.98 83.76 23.5 83.76 94.62 0 58.98"/><polygon class="cls-4" points="352.76 944.92 394.64 927.18 394.64 962.74 352.76 944.92"/><polygon class="cls-4" points="136.6 565.57 184.81 545.15 184.81 586.09 136.6 565.57"/><polygon class="cls-4" points="315.37 84.11 330.88 77.54 330.88 90.71 315.37 84.11"/><polygon class="cls-4" points="453.91 409.85 469.43 403.28 469.43 416.45 453.91 409.85"/><polygon class="cls-4" points="527.73 70.94 543.24 64.37 543.24 77.54 527.73 70.94"/><polygon class="cls-4" points="373.7 427.63 389.21 421.06 389.21 434.24 373.7 427.63"/><polygon class="cls-4" points="653.85 409.84 679.62 398.92 679.62 420.81 653.85 409.84"/><polygon class="cls-1" points="357.72 274.88 428.99 244.69 428.99 305.21 357.72 274.88"/><polygon class="cls-4" points="895.06 859.25 978.82 823.77 978.82 894.89 895.06 859.25"/><polygon class="cls-4" points="1700.2 41.24 1742.07 23.5 1742.07 59.06 1700.2 41.24"/><polygon class="cls-4" points="600.75 620.78 648.96 600.35 648.96 641.29 600.75 620.78"/><polygon class="cls-4" points="342.21 724.4 357.72 717.83 357.72 731 342.21 724.4"/><polygon class="cls-4" points="68.24 409.85 83.76 403.28 83.76 416.45 68.24 409.85"/><polygon class="cls-4" points="800.85 701.09 816.36 694.51 816.36 707.69 800.85 701.09"/><polygon class="cls-4" points="242.45 877.1 257.96 870.53 257.96 883.7 242.45 877.1"/><polygon class="cls-4" points="522.6 859.31 548.37 848.39 548.37 870.28 522.6 859.31"/><polygon class="cls-4" points="1425.46 94.55 1509.22 59.06 1509.22 130.19 1425.46 94.55"/><polygon class="cls-4" points="1088.41 600.31 1130.29 582.57 1130.29 618.13 1088.41 600.31"/><polygon class="cls-4" points="708.86 161.56 757.07 141.13 757.07 182.07 708.86 161.56"/><polygon class="cls-4" points="1088.41 182.79 1103.92 176.22 1103.92 189.39 1088.41 182.79"/><polygon class="cls-4" points="1068.86 317.71 1084.37 311.13 1084.37 324.31 1068.86 317.71"/><polygon class="cls-4" points="1692.44 914.68 1707.95 908.11 1707.95 921.29 1692.44 914.68"/><polygon class="cls-4" points="1395.12 931.49 1426.76 918.08 1426.76 944.96 1395.12 931.49"/><polygon class="cls-4" points="1281.68 141.11 1307.46 130.19 1307.46 152.08 1281.68 141.11"/><polygon class="cls-1" points="901.31 64.3 972.57 34.11 972.57 94.62 901.31 64.3"/><polygon class="cls-1" points="40.37 944.89 111.63 914.7 111.63 975.21 40.37 944.89"/><polygon class="cls-5" points="1443.46 403.24 1491.23 383 1491.23 423.56 1443.46 403.24"/><polygon class="cls-5" points="709.08 914.66 756.85 894.42 756.85 934.98 709.08 914.66"/><polygon class="cls-4" points="1165.8 464.16 1191.57 453.24 1191.57 475.13 1165.8 464.16"/><polygon class="cls-4" points="1283.74 550.1 1299.25 543.53 1299.25 556.71 1283.74 550.1"/><polygon class="cls-4" points="1573.06 6.57 1588.57 0 1588.57 13.17 1573.06 6.57"/><polygon class="cls-4" points="179.38 335.88 205.16 324.96 205.16 346.85 179.38 335.88"/><polygon class="cls-4" points="164.46 218.58 179.98 212.01 179.98 225.18 164.46 218.58"/><polygon class="cls-4" points="681.32 286.75 696.83 280.18 696.83 293.35 681.32 286.75"/><polygon class="cls-4" points="601.1 304.53 616.61 297.96 616.61 311.13 601.1 304.53"/></svg> -->
<?xml version="1.0" encoding="UTF-8"?><svg id="Layer_1" xmlns="http://www.w3.org/2000/svg" viewBox="0 0 1920 1080"><defs><style>.cls-1{stroke-width:.85px;}.cls-1,.cls-2,.cls-3,.cls-4,.cls-5{fill-rule:evenodd;}.cls-1,.cls-2,.cls-3,.cls-5{fill:none;stroke:#c79b33;stroke-miterlimit:10;}.cls-2{stroke-width:.82px;}.cls-3{stroke-width:1.49px;}.cls-6{opacity:.4;}.cls-4{fill:#c79b33;}.cls-5{stroke-width:.57px;}</style></defs><rect class="cls-6" width="1920" height="1080"/><g><polygon class="cls-4" points="831.57 485.45 946.94 436.57 946.94 534.54 831.57 485.45"/><polygon class="cls-3" points="833.38 493.44 958.81 440.3 958.81 546.81 833.38 493.44"/><polygon class="cls-4" points="342.13 213.04 384.88 194.92 384.88 231.23 342.13 213.04"/><polygon class="cls-4" points="1793.45 609.61 1836.21 591.49 1836.21 627.8 1793.45 609.61"/><polygon class="cls-4" points="1465.85 595.74 1549.6 560.25 1549.6 631.38 1465.85 595.74"/><polygon class="cls-4" points="1343.88 867.76 1385.76 850.01 1385.76 885.58 1343.88 867.76"/><polygon class="cls-4" points="1604.84 233.37 1653.06 212.94 1653.06 253.89 1604.84 233.37"/><polygon class="cls-4" points="922.84 276.46 971.05 256.03 971.05 296.98 922.84 276.46"/><polygon class="cls-4" points="1115 159.08 1163.21 138.65 1163.21 179.59 1115 159.08"/><polygon class="cls-4" points="1766.94 276.49 1782.46 269.92 1782.46 283.09 1766.94 276.49"/><polygon class="cls-4" points="1560.37 760.41 1596.43 745.13 1596.43 775.75 1560.37 760.41"/><polygon class="cls-4" points="1209.61 938.91 1225.12 932.33 1225.12 945.51 1209.61 938.91"/><polygon class="cls-4" points="1402.63 368.32 1418.14 361.75 1418.14 374.92 1402.63 368.32"/><polygon class="cls-4" points="1101.48 760.42 1117 753.85 1117 767.03 1101.48 760.42"/><polygon class="cls-4" points="1750.81 775.72 1782.46 762.31 1782.46 789.19 1750.81 775.72"/><polygon class="cls-4" points="1339.04 711.43 1364.82 700.51 1364.82 722.4 1339.04 711.43"/><polygon class="cls-4" points="1671.03 403.88 1734.09 377.16 1734.09 430.72 1671.03 403.88"/><polygon class="cls-2" points="1672.02 408.25 1740.58 379.2 1740.58 437.42 1672.02 408.25"/><polygon class="cls-4" points="40.38 103.01 124.14 67.52 124.14 138.65 40.38 103.01"/><polygon class="cls-4" points="393.14 988.94 435.02 971.2 435.02 1006.76 393.14 988.94"/><polygon class="cls-4" points="176.98 609.6 225.19 589.17 225.19 630.12 176.98 609.6"/><polygon class="cls-4" points="355.75 128.14 371.26 121.56 371.26 134.74 355.75 128.14"/><polygon class="cls-4" points="494.3 453.88 509.81 447.31 509.81 460.48 494.3 453.88"/><polygon class="cls-4" points="568.11 114.96 583.62 108.39 583.62 121.56 568.11 114.96"/><polygon class="cls-4" points="414.08 471.66 429.59 465.09 429.59 478.26 414.08 471.66"/><polygon class="cls-4" points="694.23 453.87 720.01 442.95 720.01 464.84 694.23 453.87"/><polygon class="cls-1" points="398.11 318.91 469.37 288.72 469.37 349.23 398.11 318.91"/><polygon class="cls-4" points="935.44 903.28 1019.2 867.79 1019.2 938.92 935.44 903.28"/><polygon class="cls-4" points="1740.58 85.27 1782.46 67.52 1782.46 103.09 1740.58 85.27"/><polygon class="cls-4" points="641.13 664.8 689.35 644.38 689.35 685.32 641.13 664.8"/><polygon class="cls-4" points="382.59 768.42 398.11 761.85 398.11 775.03 382.59 768.42"/><polygon class="cls-4" points="108.63 453.88 124.14 447.31 124.14 460.48 108.63 453.88"/><polygon class="cls-4" points="841.23 745.11 856.74 738.54 856.74 751.71 841.23 745.11"/><polygon class="cls-4" points="282.83 921.12 298.34 914.55 298.34 927.72 282.83 921.12"/><polygon class="cls-4" points="562.98 903.33 588.75 892.41 588.75 914.3 562.98 903.33"/><polygon class="cls-4" points="1465.85 138.57 1549.6 103.09 1549.6 174.21 1465.85 138.57"/><polygon class="cls-4" points="1128.79 644.34 1170.67 626.6 1170.67 662.16 1128.79 644.34"/><polygon class="cls-4" points="749.24 205.58 797.46 185.16 797.46 226.1 749.24 205.58"/><polygon class="cls-4" points="1128.79 226.81 1144.3 220.24 1144.3 233.42 1128.79 226.81"/><polygon class="cls-4" points="1109.24 361.73 1124.75 355.16 1124.75 368.33 1109.24 361.73"/><polygon class="cls-4" points="1732.82 958.71 1748.34 952.14 1748.34 965.31 1732.82 958.71"/><polygon class="cls-4" points="1435.5 975.52 1467.15 962.11 1467.15 988.98 1435.5 975.52"/><polygon class="cls-4" points="1322.06 185.13 1347.84 174.21 1347.84 196.1 1322.06 185.13"/><polygon class="cls-1" points="941.69 108.33 1012.95 78.13 1012.95 138.65 941.69 108.33"/><polygon class="cls-1" points="80.75 988.92 152.01 958.73 152.01 1019.24 80.75 988.92"/><polygon class="cls-5" points="1483.84 447.26 1531.61 427.02 1531.61 467.59 1483.84 447.26"/><polygon class="cls-5" points="749.46 958.68 797.23 938.44 797.23 979.01 749.46 958.68"/><polygon class="cls-4" points="1206.18 508.19 1231.95 497.26 1231.95 519.15 1206.18 508.19"/><polygon class="cls-4" points="1324.12 594.13 1339.63 587.56 1339.63 600.73 1324.12 594.13"/><polygon class="cls-4" points="1613.44 50.6 1628.95 44.03 1628.95 57.2 1613.44 50.6"/><polygon class="cls-4" points="219.76 379.9 245.54 368.98 245.54 390.87 219.76 379.9"/><polygon class="cls-4" points="204.85 262.61 220.36 256.03 220.36 269.21 204.85 262.61"/><polygon class="cls-4" points="721.7 330.78 737.21 324.21 737.21 337.38 721.7 330.78"/><polygon class="cls-4" points="641.48 348.56 656.99 341.99 656.99 355.16 641.48 348.56"/></g></svg>