<?xml version="1.0" encoding="utf-8"?>
<!-- Generator: Adobe Illustrator 26.5.0, SVG Export Plug-In . SVG Version: 6.00 Build 0)  -->
<svg version="1.1" id="Katman_2_xA0_Image_00000070804653810952975340000009438085789836441729_"
	 xmlns="http://www.w3.org/2000/svg" xmlns:xlink="http://www.w3.org/1999/xlink" x="0px" y="0px" viewBox="0 0 400 400"
	 style="enable-background:new 0 0 400 400;" xml:space="preserve">
<g>
	<path d="M75,258.5c-1.3-6.8-2.4-13.3-3.9-19.7c-3.5-15.1-7.1-30.2-10.7-45.3c-1.1-4.7-0.1-6.8,4.6-7.8c20.4-4.4,40.7-8.8,61.1-12.9
		c9.1-1.9,9.2-1.6,9.8-11c0.4-6.8,0.7-13.5,0.8-20.3c0.2-8,3.6-11.5,11.6-13c14.2-2.5,28.4-5.5,42.6-8.2c8.5-1.6,17-2.9,25.5-4.3
		c2.6-0.4,5.2-1.3,7.8-1.5c6.1-0.4,9.2,1.7,12,7.2c4.1,7.9,8.4,15.6,12.9,23.3c0.5,0.9,2.7,1.5,3.9,1.3c8.9-1.3,17.8-2.9,26.7-4.4
		c12.4-2.1,24.8-4.4,37.3-6.1c1.4-0.2,4.2,2.7,4.8,4.6c4.5,14.3,7.9,29,13.2,43c2.5,6.7-0.3,12-0.8,17.8c-0.1,1.1-2.5,2.6-4,2.9
		c-20.5,3.9-40.9,7.7-61.4,11.4c-2.3,0.4-2.9,1.2-3.3,3.5c-1.5,10.9-3.3,21.8-5.2,32.6c-0.7,3.8-3.7,5.9-7.1,6.9
		c-5.3,1.5-10.8,2.8-16.2,3.9c-20,4.1-40,8.1-60,12.3c-4.1,0.9-7.3,0.2-10.4-3c-6.7-6.7-10.7-14.7-13.3-23.7c-1.6-5.6-2-5.7-7.6-4.5
		c-18.6,3.9-37.1,8-55.6,12C85.1,256.5,80.3,257.4,75,258.5z M174.7,259.9c4.4-1,8.1-1.8,11.8-2.6c22.2-4.7,44.4-9.4,66.6-14.2
		c1.3-0.3,2.8-1.9,3.2-3.2c0.7-2.5,0.8-5.2,0.9-7.9c0.7-21.4-2.2-42.4-7.8-63c-3.5-13.1-8.4-25.9-13.3-38.6
		c-3.6-9.3-5.1-15-20.1-10.5c-0.4,0.1-0.8,0.1-1.2,0.2c-8.2,1.4-16.5,2.6-24.7,4.1c-13.8,2.7-27.5,5.7-41.3,8.3
		c-3.1,0.6-3.3,1.5-2.4,4.2c4.8,14,9.5,28.1,14.2,42.2c6.4,19.3,9.1,39.2,11.4,59.3C172.7,245.2,173.7,252.2,174.7,259.9z
		 M249.1,150.9c4.3,21.1,8.4,41.4,12.6,61.8c21.6-4,43.9-8.1,66.1-12.3c0.9-0.2,2.3-0.8,2.5-1.5c0.9-3.1,1.4-6.3,2.1-10
		c-2,0.2-3.3,0.2-4.6,0.4c-10.4,1.9-20.9,3.8-31.3,5.7c-10.7,1.9-21.4,3.8-32.1,5.6c-0.9,0.2-2-0.9-3.1-1.3c0.8-0.8,1.5-2.3,2.4-2.5
		c14.2-2.7,28.4-5.2,42.7-7.7c7.9-1.4,15.9-2.9,23.9-4.4c0-0.9,0.2-1.6,0-2.2c-3.9-13.4-7.9-26.7-11.7-40.1
		c-0.7-2.6-1.9-3.2-4.5-2.7c-16.5,2.8-33,5.4-49.4,8.2C259.1,148.9,253.7,150,249.1,150.9z M75.2,238c8.9-1.9,17-3.6,25.2-5.4
		c16.4-3.6,32.8-7.4,49.3-10.7c3-0.6,3.8-1.6,3.3-4.3c-2.2-11.8-4-23.7-6.6-35.5c-1.1-5-3.7-9.6-5.7-14.4c-0.5,0-1-0.1-1.5-0.1
		c0.7,5.6-2.3,7.1-6.8,8c-20,4-39.9,8.4-59.9,12.7c-2.9,0.6-5.7,1.5-8.7,2.3C67.7,206.7,71.4,222.1,75.2,238z M142.1,136.7
		c-0.8,1.8-1.4,2.5-1.4,3.2c-0.4,7.2-0.8,14.3-1.1,21.5c0,1,0.5,2.1,1.1,2.9c8.5,10.6,11,23.4,13.5,36.1c2.8,14.2,3.6,28.7,3.2,43.2
		c0,1-0.1,2.4,0.5,3.1c3.5,3.9,7.2,7.6,10.8,11.4c0.3-0.2,0.6-0.3,1-0.5C167.6,216.1,157.8,176.3,142.1,136.7z M153.9,237.6
		c0-2,0-4,0-6c-0.1-6.6-0.2-6.6-6.9-5.1c-16.7,3.6-33.4,7.1-50.1,10.7c-7.4,1.6-14.7,3.3-22.5,5c0.8,4.3,1.6,8.2,2.3,12.1
		C102.6,248.7,127.9,243.3,153.9,237.6z M175.9,270.5c5.2-1.1,10.3-2.1,15.3-3.1c19.5-3.9,39-7.7,58.5-11.7c4.8-1,7-4,7.2-9.8
		c-0.9,0-1.8-0.2-2.6,0c-6.1,1.4-12.1,2.9-18.2,4.2c-18.6,4.1-37.3,8.2-55.9,12.1C174.5,263.5,174.1,264,175.9,270.5z M169.3,269.2
		c0.5-0.3,1-0.6,1.5-1c-0.8-5.5-6.2-7.3-8.9-11.3c-0.4,0.3-0.7,0.6-1.1,0.8C163.6,261.6,166.4,265.4,169.3,269.2z"/>
	<path d="M301.1,182.9c-10.1-0.1-19.6-9.5-19.5-19.3c0.1-9.1,8-16.6,17.4-16.4c10.8,0.2,19.7,9,19.5,19.4
		C318.4,175.9,310.8,182.9,301.1,182.9z M312.3,172.4c4.1-4.7,4.3-11.4,0.8-16.1c-3.9-5.4-11.9-7.3-18.7-4.5
		c-5.7,2.3-9.3,7.4-8.6,12.4C295.8,163.1,305.6,163.1,312.3,172.4z M285.4,169.2c2.7,10.3,15.6,12.3,23,7.7c2.9-1.8,2.8-3.5,0.4-5.5
		c-5.4-4.6-11.8-4.5-18.3-3.9C288.8,167.6,287.1,168.5,285.4,169.2z"/>
	<path d="M97.7,190.1c10.2-0.8,18.2,8.8,17.8,17.8c-0.4,10.1-9.6,18.5-20.7,18.4c-10.2,0-17.6-7.7-17.5-18.2
		C77.3,198.3,86.7,190.1,97.7,190.1z M110.5,211.5c3.9-4.8,2.8-11.7-2.2-15.1C102,192,92.1,193,85.6,199c-3.9,3.6-6.3,7.9-5.6,12.9
		c5.3-2.8,10.1-6.4,15.4-7.8C101.7,202.5,106.9,206.2,110.5,211.5z M93.2,223.3c4.9-0.5,10.4-2.8,14-5.9c2.6-2.3,2.5-4.4,0.1-6.7
		c-0.7-0.6-1.4-1.2-2.2-1.6c-6.9-3.8-18.7,0.3-21.6,7.6c-0.3,0.8,0.3,2.8,1.1,3.2C87.2,221.3,90.2,222.2,93.2,223.3z"/>
</g>
</svg>

