<?xml version="1.0" encoding="utf-8"?>
<!-- Generator: Adobe Illustrator 26.5.0, SVG Export Plug-In . SVG Version: 6.00 Build 0)  -->
<svg version="1.1" id="Katman_2_xA0_Image_00000024702121766797919580000005132937964169792702_"
	 xmlns="http://www.w3.org/2000/svg" xmlns:xlink="http://www.w3.org/1999/xlink" x="0px" y="0px" viewBox="0 0 400 400"
	 style="enable-background:new 0 0 400 400;" xml:space="preserve">
<g>
	<path d="M261.1,151.3c9-5.2,18-9.8,26.3-15.5c6.1-4.2,14.5-1.7,18.4,5.1c1.5,2.7,2.6,5.9,3.1,9c1.2,7.5,0.8,8.1-5.9,11.9
		c-7.7,4.5-15.3,9-23,13.5c-2.1,1.2-2.6,2.3-1.5,4.7c6,12.9,10.4,26.2,10.6,40.6c0.1,6.7-1.2,13.2-4.5,19.2c-0.7,1.3-2,2.5-3.3,3.3
		c-22.5,14.1-45.1,28.2-67.7,42.1c-6.6,4-13.7,4.2-20.6,1.1c-11.5-5.2-20.4-13.8-28.5-23.2c-3.6-4.1-6.9-8.5-10.1-12.9
		c-1.4-1.9-2.5-2.1-4.6-0.9c-12.7,7.2-25.4,14.4-38.2,21.4C105.3,274,99,272.5,94,267c-4.2-4.6-4.7-11.3-0.6-16.9
		c2-2.8,4.8-5.3,7.8-7c10.5-6.2,21.3-12,32-17.8c3.2-1.7,4.4-3.2,2.5-7c-6.3-12.9-11.1-26.4-12.5-40.9c-0.7-7.9,0.4-15.5,5.7-21.7
		c2-2.3,4.9-3.9,7.6-5.5c18.8-11.8,37.8-23.3,56.4-35.3c6.5-4.2,13-3.9,19.8-1.7c16.1,5.4,28.6,16,39.9,28.3
		C255.6,144.8,258.4,148.1,261.1,151.3z M216.9,278.1c0.9-0.5,1.9-0.8,2.8-1.4c19.9-12.3,39.8-24.5,59.7-36.9
		c1.7-1.1,3.2-3.2,3.9-5.2c3.8-10.6,2.2-21.3-0.7-31.8c-6.4-23.6-18.8-43.9-35.5-61.6c-10.2-10.8-21.6-20-35.8-25.2
		c-5.6-2.1-10.5-1.4-15.5,1.7c-17.9,11.3-35.8,22.4-53.8,33.6c-1.3,0.8-2.5,1.7-4.1,2.9c12.6,3.6,18.6,6.6,27.3,15.4
		c6.9,7,13.8,14.2,19.4,22.1C202.7,217.5,217.9,244.6,216.9,278.1z M141.5,220.6c3.8-2.1,7.1-4,10.5-5.7c2-1,2.9-2.2,3-4.6
		c0.1-3.7,1.3-7.3,5-8.9c4-1.6,7.3,0.4,10,3.2c8.2,8.5,12,18.6,11.1,30.4c-0.7,8.4-5.9,10.9-13.2,6.7c-1.2-0.7-3.1-0.4-4.5,0
		c-1.5,0.4-2.7,1.6-4.2,2.3c-2.6,1.2-3.4,2.6-1.3,5.1c5.1,6.1,9.9,12.5,15.3,18.4c7.1,7.7,14.9,14.8,25.2,18.2
		c6,2,10.7,0.1,12.7-5.9c1.3-4.1,1.7-8.6,1.5-12.9c-0.7-15.2-6.2-29-12.7-42.5c-9.9-20.6-22.4-39.6-39.6-54.9
		c-5.1-4.5-11-8.3-17.2-11.3c-7.7-3.7-13.7-0.1-15.2,8.3c-0.5,3-0.8,6.1-0.6,9.1c0.7,15.2,6.3,28.9,12.4,42.5
		C140.1,218.9,140.8,219.6,141.5,220.6z M180,233c-1.5-11.2-4.5-20-12.6-26c-1.8-1.3-5-2-6.9-1.3c-1.5,0.6-2.8,4-2.6,5.9
		c0.4,3.6-1.2,5-3.9,6.4c-18.9,10.3-37.7,20.7-56.5,31.1c-3.1,1.7-4.5,4.2-4.1,7.5c0.6,5.1,3.1,9.3,8.1,10.9
		c2.7,0.8,6.4,1.4,8.5,0.2c17.9-9.9,35.5-20.3,53.3-30.3c1.2-0.7,3.3-0.1,4.9,0.2c2.6,0.4,5.8,2.4,7.5,1.4
		C178,237.8,179,234.4,180,233z M275.6,173.6c2.3-1.5,4.3-2.9,6.3-4.1c7-4.1,14.1-8,21-12.2c1.2-0.7,2.7-2.3,2.6-3.4
		c-0.1-5.6-1.8-10.7-6.2-14.5c-2.8-2.4-5.6-2.9-9.1-0.8c-7.5,4.5-15.2,8.6-22.8,13c-1.4,0.8-2.7,1.8-4.1,2.8
		C267.6,161,271.6,167.2,275.6,173.6z"/>
</g>
</svg>
