<?xml version="1.0" encoding="utf-8"?>
<!-- Generator: Adobe Illustrator 26.5.0, SVG Export Plug-In . SVG Version: 6.00 Build 0)  -->
<svg version="1.1" id="Katman_2_xA0_Image_00000160912868494077281840000017752107651557505190_"
	 xmlns="http://www.w3.org/2000/svg" xmlns:xlink="http://www.w3.org/1999/xlink" x="0px" y="0px" viewBox="0 0 120 120"
	 style="enable-background:new 0 0 120 120;" xml:space="preserve">
<g>
	<path d="M91,54.8c-0.2,4.6-0.3,9.2-0.5,13.8c-0.2,3-0.7,5.9-1.8,8.7c-1.5,3.8-4.4,6.2-7.7,8c-5.6,3-11.1,6.1-16.9,8.7
		c-4.6,2-9.5,2.1-13.9-1c-5.2-3.7-10.4-7.3-15.4-11.2c-1.7-1.3-3.2-3.1-4.5-4.9c-1.2-1.7-1.5-3.7-1.4-5.8c0.3-4.8,0.3-9.6,0.5-14.4
		c0.1-3.1,0.1-6.2,0.3-9.3c0.4-4.9,3.2-8.5,7.1-11c5.9-3.7,11.7-7.8,18.1-10.6c4-1.8,7.8-1.6,11.5,0.6c5.2,3.2,10.4,6.3,15.6,9.6
		c1.7,1.1,3.3,2.3,4.8,3.7c2.7,2.5,3.6,5.9,3.9,9.5C90.8,51,90.9,53,91,54.8z M90.3,59.1c-0.1,0-0.2,0-0.3,0c0-3.1,0-6.3,0-9.4
		c0-5.1-2.3-9-6.4-11.9c-1.1-0.8-2.3-1.5-3.5-2.3c-5-3.4-10.2-6.7-15.7-9.3c-0.3-0.2-0.7-0.3-1-0.4c-3-0.6-6.1-0.9-8.9,0.8
		c-0.5,0.3-1.1,0.5-1.6,0.8c-3.9,2.3-7.8,4.6-11.7,6.9c-1.6,1-3.3,1.9-4.8,3.1c-3.3,2.5-5.7,5.5-5.9,9.8c-0.2,4.9-0.3,9.7-0.5,14.6
		c-0.1,3.6-0.1,7.2-0.3,10.8c-0.1,1.4,0.1,2.6,0.8,3.7c0.8,1.3,1.7,2.7,2.9,3.6c3.2,2.6,6.6,5,9.9,7.5c2.3,1.7,4.6,3.4,7,5
		c1.3,0.9,2.5,1.9,4,2.3c2.6,0.7,5.4,0.7,7.9-0.3c2.5-1,5-2.3,7.4-3.5c4.1-2.1,8.3-4.3,12.3-6.6c1.8-1,3.6-2.3,4.9-3.9
		c1.8-2.4,2.7-5.3,2.9-8.3C89.8,67.5,90.1,63.3,90.3,59.1z"/>
	<path d="M59.8,72.6c-8.5,0.6-14.5-7.2-12.1-15.5c1.7-5.7,6.6-9.7,12.4-10c5.4-0.2,10.4,3.4,11.5,8.7c1,4.7,0.1,9.1-2.9,12.8
		C66.3,71.6,63.2,72.9,59.8,72.6z M71.6,59.8c-0.5-1.8-0.7-3.6-1.4-5.2c-1.5-3.4-4.1-5.7-7.9-5.9c-3.6-0.2-6.2,1.6-8.2,4.5
		c-1.8,2.6-2.3,5.5-2.1,8.5c0.3,3.3,1.6,6.2,4.2,8.3c1.4,1.1,2.9,1.9,4.7,1.7C66.5,71.1,71.4,65.5,71.6,59.8z M61.2,47.9
		c-5-0.8-12.6,2.9-13.5,11.5c-0.6,5.9,4.1,12,9.4,12.2c-5.3-3.2-6.4-8.8-5.5-13.2C52.6,53.1,55.5,49.3,61.2,47.9z"/>
	<path d="M72.5,47.3c0-4.5,3.1-8,7.5-8.4c3.9-0.4,8,2.9,8.8,7.2c1.1,5.7-2.7,10.6-8.1,10.4C76.2,56.4,72.5,52.2,72.5,47.3z
		 M88.6,47.8c0-4.5-3.6-8.2-7.9-8.2c-4.2-0.1-7.7,3.5-7.8,7.9c-0.1,4.4,3.7,8.2,8,8.2C85.1,55.8,88.6,52.2,88.6,47.8z"/>
	<path d="M31.3,47.1c0.2-3.8,1.7-6.8,5.2-8.4c3.9-1.8,8.1,0.1,9.4,4.2c1.5,4.3-0.5,9.3-4.4,11.2c-4.6,2.3-9.8-0.7-10.2-5.8
		C31.3,47.9,31.3,47.5,31.3,47.1z M32,47.1c0,0.5,0,0.9,0.1,1.2c0.4,2.5,1.5,4.6,3.9,5.8c2.2,1,4.3,0.5,6.2-0.9
		c3-2.2,4.3-6.8,3-10.3c-1.7-4.6-6.7-5.8-10.3-2.4C33,42.3,32.1,44.6,32,47.1z"/>
	<path d="M52.1,33.9c0-4.7,3.4-8.2,7.9-8.1c4.5,0,8.1,3.9,8.1,8.7c0,4.6-3.6,8.3-7.9,8.2C55.7,42.7,52.1,38.8,52.1,33.9z M60.2,42
		c4,0,7.5-3.4,7.5-7.6c0-4.3-3.3-7.8-7.5-7.8c-4.3,0-7.7,3.3-7.7,7.6C52.4,38.4,55.9,41.9,60.2,42z"/>
	<path d="M79,65.3c5.3-0.1,9.5,4.8,8.9,9.9c-0.6,5.1-4.6,8.1-9.5,7c-3.4-0.8-6-4-6.5-8c-0.5-3.9,1.8-7.5,5.6-8.6
		C78.2,65.4,78.8,65.3,79,65.3z M80.3,81.6c4,0,7.3-3.3,7.3-7.4c0-4.5-3.6-8.2-8.1-8.2c-3.9,0-7.2,3.3-7.2,7.4
		C72.3,77.9,75.9,81.6,80.3,81.6z"/>
	<path d="M30.1,73.5c0-5.4,3-9,7.4-9.8c2.8-0.5,5.9,1.5,7.2,4.4c1.7,3.9,0.2,8.6-3.4,10.9c-2.4,1.5-5,1.8-7.5,0.4
		C31.3,78,30.2,75.5,30.1,73.5z M30.7,72.3c0.2,1,0.3,2,0.6,2.9c0.9,2.4,2.5,4,5.1,4.6c2.7,0.5,4.9-0.5,6.5-2.6c2-2.7,2.4-5.7,1-8.8
		c-2.1-4.6-7.6-5.5-11-1.7C31.5,68.2,30.8,70.1,30.7,72.3z"/>
	<path d="M50.5,84.9c0.1-2.8,1.1-5.2,3.6-6.6c2.5-1.4,5-1.1,7.4,0.4c2.9,1.8,4.4,4.6,4.3,8c0,2.3-0.8,4.4-2.7,5.9
		c-2.7,2.1-6.6,1.8-9.4-0.6C51.6,90.1,50.5,87.7,50.5,84.9z M65.4,86.6c-0.1-3.4-2.3-6.6-5.5-7.9c-4.2-1.7-8.4,0.8-9.1,5.3
		c-0.5,3.7,2.4,7.9,6.2,9C61.4,94.1,65.5,91,65.4,86.6z"/>
	<path d="M84.3,47.6c0,2.1-1.5,3.7-3.5,3.7c-2,0-3.5-1.5-3.5-3.6c0-2,1.7-3.6,3.7-3.6C82.9,44.1,84.3,45.6,84.3,47.6z M80.7,50.5
		c1.7,0,3.3-1.5,3.3-3.1c0-1.4-1.4-2.6-2.9-2.6c-1.7,0-3.3,1.5-3.3,3.1C77.8,49.4,79,50.5,80.7,50.5z"/>
	<path d="M38.9,43.1c2,0,3.5,1.4,3.5,3.4c0,2-1.5,3.7-3.5,3.7c-1.9,0-3.5-1.4-3.5-3.4C35.3,44.7,36.9,43.1,38.9,43.1z M41.6,46.6
		c0-1.7-1.3-3.3-2.7-3.2c-1.4,0-2.8,1.6-2.8,3.2c0,1.7,1.2,3.2,2.7,3.2C40.3,49.8,41.6,48.3,41.6,46.6z"/>
	<path d="M63.7,34.6c-0.2,1.7-1.1,3-2.3,3.4c-1.3,0.5-2.9-0.1-3.8-1.3c-0.8-1.1-1.1-2.4-0.8-3.7c0.2-1.2,1-2.2,2.3-2.5
		c1.3-0.3,2.5,0.1,3.3,1.2C62.9,32.5,63.2,33.6,63.7,34.6z M60.4,37.4c1.5,0,2.7-1.3,2.7-3c0-1.7-1.5-3.2-3.2-3.2
		c-1.5,0-2.8,1.4-2.7,3C57.1,35.9,58.6,37.4,60.4,37.4z"/>
	<path d="M76.6,73.9c0-2.2,1.5-3.9,3.5-3.8c2,0,3.7,1.9,3.7,4.2c0,2.1-1.7,3.8-3.7,3.8C78.2,78.1,76.6,76.2,76.6,73.9z M80.4,70.8
		c-1.9,0-3.3,1.5-3.3,3.5c0,1.7,1.3,3.1,3,3.1c1.7,0,3.3-1.6,3.3-3.4C83.3,72.2,82,70.8,80.4,70.8z"/>
	<path d="M37.7,75.7c-1.9,0-3.3-1.3-3.3-3.2c0-2.1,1.8-3.8,3.9-3.7c1.8,0,3.1,1.5,3.1,3.2C41.4,74.1,39.8,75.7,37.7,75.7z
		 M40.7,72.3c0-1.6-1.3-3-2.9-3c-1.5,0-2.7,1.3-2.7,2.9c0,1.8,1.2,3,2.9,3C39.6,75.2,40.7,74,40.7,72.3z"/>
	<path d="M54.8,85.9c0-2.4,1.6-4.3,3.5-4.2c2,0.1,3.5,2,3.5,4.4c0,2.4-1.6,4.2-3.5,4.2C56.3,90.3,54.8,88.3,54.8,85.9z M61.3,86.2
		c0-2-1.4-3.7-3.1-3.7c-1.6,0-3,1.5-3.1,3.3c0,1.9,1.5,3.7,3.2,3.7C59.9,89.5,61.3,88,61.3,86.2z"/>
</g>
</svg>
