<?xml version="1.0" encoding="utf-8"?>
<!-- Generator: Adobe Illustrator 26.5.0, SVG Export Plug-In . SVG Version: 6.00 Build 0)  -->
<svg version="1.1" id="Katman_2_xA0_Image_00000019677807283263622140000011379932867781264265_"
	 xmlns="http://www.w3.org/2000/svg" xmlns:xlink="http://www.w3.org/1999/xlink" x="0px" y="0px" viewBox="0 0 400 400"
	 style="enable-background:new 0 0 400 400;" xml:space="preserve">
<g>
	<path d="M343.5,200.1c-0.4,27.5-7.2,53.2-21.1,76.7c-16,27-38.3,46.7-68.1,57.6c-17.4,6.4-35.2,8.3-53.4,6.3
		c-8.6-0.9-16.9-4.1-25.4-6.1c-1.9-0.5-3.9-0.8-5.9-1c-6.1-0.5-12.2-0.8-18.3-1.2c-17.4-1.2-33.4-6.8-48.3-15.4
		c-26.7-15.6-45.2-38.2-55.4-67.4c-8.5-24.3-10-49.3-3.7-74.2c10.7-42.5,35.7-73.6,75.6-92.3c17.2-8.1,35.5-11.8,54.4-12.1
		c4.3-0.1,8.7,1.3,13,1.2c3.9-0.1,7.8-1.2,11.6-2c12.7-2.5,25.4-3.5,38.4-1.9c24,3,44.6,12.9,62.5,28.7
		c12.1,10.7,21.5,23.7,28.7,38.3c6.6,13.6,11.3,27.7,13.1,42.7C342,185.3,342.8,192.7,343.5,200.1z M337.3,200.9
		c0.2-13.5-2-26.7-5.5-39.7c-4.1-15.1-10.7-29.1-19.7-41.8c-11-15.5-24.7-28-41.7-36.8c-12.8-6.6-26.3-11-40.7-11.8
		c-16.5-0.9-32.3,0.9-47.8,7.8c-8.5,3.8-16.9,7.7-24.4,13.1c-22.2,16.1-37.7,37.4-47.4,63c-5.4,14.2-8.5,28.9-9.5,44.2
		c-1,16.1,0.3,31.9,4.5,47.4c4,14.8,10.1,28.7,19,41.4c6.4,9.2,14,17.2,22.1,25c8.3,8,19.6,10.5,28.4,17.5c0.1,0.1,0.3,0.1,0.4,0.1
		c6.3,1.9,12.6,3.9,18.9,5.7c13.4,3.7,27.1,3.7,40.7,1.1c26.5-5,48.5-18.3,66.2-38.4C325.3,270.7,336.8,237.8,337.3,200.9z
		 M162.5,330.7c0.1-0.6,0.3-1.2,0.4-1.7c-1.9-0.8-3.7-1.8-5.6-2.4c-6.8-2.1-13.9-3.4-20.5-6c-21.1-8.5-37.2-23.2-49.3-42.3
		c-13.7-21.5-19.9-45.3-20.4-70.6c-0.2-8.3,0.5-16.8,1.6-25c2.7-19.3,9.4-37.2,19.7-53.7c9.5-15.2,21.7-27.7,37-37.3
		c15.7-9.8,32.7-15,51.2-15.6c1,0,1.9-0.3,2.9-0.5c-1.3-1-2.5-1.3-3.7-1.3c-8.3,0.5-16.8,0.5-25,1.8c-18.6,2.8-35.2,10.7-50.3,21.7
		c-12.7,9.2-23.2,20.5-32,33.5c-11.1,16.4-18,34.5-21,54c-3.6,22.4-1.3,44.5,6.8,65.8c10.2,26.9,27.6,47.8,52.1,62.8
		c11.1,6.8,23.3,11.4,36,14.2C149.1,329.5,155.8,329.8,162.5,330.7z M167.8,79.8c-1.9,0.2-3.9,0.1-5.7,0.5
		c-23.3,4.6-42.1,16.9-57.4,34.7c-16.4,19.1-25.7,41.6-30,66.2c-3.3,18.7-2.5,37.4,1.9,55.8c4.8,19.7,13.3,37.7,26.7,53.2
		c10,11.6,21.8,20.5,35.7,26.8c2,0.9,4.3,1.4,6.4,2.1c-38.3-33.5-54.5-75.3-49.8-125.3C100.3,144,124.6,106.2,167.8,79.8z"/>
	<path d="M299.9,209.6c-0.3,14.6-4.8,31.1-13,46.3c-16.6,30.8-41.9,50-77.6,52c-28.9,1.6-52.2-10.7-70-33.3
		c-10.7-13.6-17.2-29-20.5-46c-2.6-13.2-3-26.5-1-39.7c4.3-28.5,16.4-53,39.5-71.3c14.8-11.7,31.7-18.3,50.5-19
		c19.4-0.7,37,4.7,52.7,16.5c17.6,13.3,28.5,31.1,35,51.8C299.6,179.9,300.6,193.3,299.9,209.6z M130.9,169.8
		c-1.6,1.3-3.9,2.1-4.2,3.4c-1.6,6.8-3.3,13.7-3.8,20.7c-0.8,11.8-1.3,23.7,1.9,35.3c1.8,6.4,1.1,14,8.1,18.1c0.3,0.2,0.4,0.7,0.6,1
		c3.5,5,6.6,10.3,10.6,14.8c11.7,13,26.1,21.1,43.6,24.3c11.8,2.1,23.3,1.3,34.2-2.7c31.9-11.8,49.8-36,55.2-68.7
		c3.9-23.8-1.4-46.3-16.5-66.1c-13.1-17.2-30.4-27.5-51.5-29.8c-25.4-2.8-47.1,6.1-63.8,25.6c-4.4,5.1-7.8,11.1-11.6,16.6
		c10.6-1.2,13-0.4,14.7,5.6c1.5,5.1-0.2,8.1-6.2,10.6C138.5,179.9,134.7,177.2,130.9,169.8z M145.3,272.9c0.6,1.1,0.9,1.8,1.4,2.4
		c12.4,14.1,27,24.4,45.7,28.2c15.8,3.3,30.9,1.5,45.4-5.2c17.2-7.9,30.1-20.6,39.9-36.6c8.4-13.6,13.8-28.5,15.6-44.3
		c1.7-15.3,1.4-30.7-2.8-45.9c-4.2-15.1-10.8-28.9-21-40.7c-12.6-14.6-28.1-24.6-47.6-28.2c-10.9-2-21.4-1.4-31.9,1.4
		c-11.7,3.1-22.1,9.1-31.1,17.1c-4.7,4.1-8.8,8.8-13.1,13.3c0.3,0.4,0.7,0.7,1,1.1c0.5-0.3,1-0.6,1.4-0.9c3.9-2.7,7.7-5.6,11.8-8.2
		c8-5,17.1-6.3,26.1-8.1c15.7-3.1,31.1-2.2,46.1,3.8c13.9,5.6,25.3,14.3,34.2,26.3c9.2,12.4,15.1,26.2,16.6,41.6
		c1.3,13.3,0.7,26.5-3.4,39.4c-4.3,13.7-11.4,25.7-21.3,35.9c-12.1,12.4-26.7,20.7-43.9,24c-17,3.2-33.6,2.3-49.3-5.2
		C158.5,281.1,152.4,277,145.3,272.9z M145.2,168.9c-3.1-2.1-6.6-1.7-8.4,1c-0.4,0.6,0.4,2.8,1,3
		C141.2,173.8,143.7,172.4,145.2,168.9z"/>
	<path d="M144.9,207.8c1.4-21,9.1-38.3,26.1-50.6c11.2-8.2,23.8-11.4,37.9-9.5c22,3,37.9,21.2,42.2,41.1
		c4.6,21.3,0.8,40.8-13.6,57.3c-12.5,14.2-28.4,21-47.6,18c-20.8-3.2-33.6-15.9-40.2-35.1C147.4,222.1,146.5,214.8,144.9,207.8z
		 M151.7,205c0,17.5,6.4,34.1,17.7,44.8c13.3,12.7,33.6,15.8,49.5,6.6c16.1-9.3,24.9-23.9,27.6-41.6c3.2-20.6-1.9-39.4-18.1-53.8
		c-15.9-14-36.3-15.3-53.2-2.5C159.1,170.7,152.3,187.7,151.7,205z"/>
	<path d="M189.5,131.5c0.1-5,3-8.4,7.1-8.4c4.5,0,8.9,4.1,8.7,8.1c-0.2,4.5-3.7,8-7.8,7.9C193.1,139,189.5,135.5,189.5,131.5z
		 M193.2,131.1c3,1.4,5.2,3.8,8.1,0.3C198.7,129.6,196.5,127.7,193.2,131.1z"/>
	<path d="M149.9,245.3c-0.3,4.5-3.7,7.8-7.6,7.5c-3.7-0.3-7.2-4.4-7-8.3c0.2-4.1,4-8.1,7.4-7.9C146.3,236.8,150.1,241.4,149.9,245.3
		z M140.5,246.8c0.7,0.3,1.4,0.6,2.1,0.9c0.7-1.7,1.4-3.5,2.1-5.2c-0.6-0.3-1.2-0.5-1.9-0.8C142,243.4,141.2,245.1,140.5,246.8z"/>
	<path d="M211.2,275.5c-0.1,4.2-3.9,8-7.8,7.9c-3.7-0.1-6.3-2.5-6.3-5.7c0-4.5,4.3-9.1,8.4-9C208.9,268.7,211.3,271.6,211.2,275.5z"
		/>
	<path d="M247,164c0-4.4,3-8.1,6.5-8.2c3.7,0,7.9,4.8,7.8,8.7c-0.1,3.6-3.7,7.4-6.9,7.4C250.1,172,246.9,168.6,247,164z M255,166.9
		c0.5-0.5,1.1-1,1.6-1.5c-1.4-1.5-2.9-2.9-4.3-4.4c-0.5,0.5-1,0.9-1.5,1.4C252.2,163.9,253.6,165.4,255,166.9z"/>
	<path d="M263.7,233.4c-0.1,5.2-3.5,8.7-8.3,8.6c-3.3-0.1-4.9-2.4-4.8-6.8c0.1-4.6,4-8.4,8.4-8.2C262.3,227,263.8,229.1,263.7,233.4
		z"/>
</g>
</svg>
