<?xml version="1.0" encoding="utf-8"?>
<!-- Generator: Adobe Illustrator 26.5.0, SVG Export Plug-In . SVG Version: 6.00 Build 0)  -->
<svg version="1.1" xmlns="http://www.w3.org/2000/svg" xmlns:xlink="http://www.w3.org/1999/xlink" x="0px" y="0px"
	 viewBox="0 0 400 400" style="enable-background:new 0 0 400 400;" xml:space="preserve">
<g id="Katman_2_xA0_Image_00000050627658940754386960000018356671880404606080_">
</g>
<g id="Katman_2_xA0_Image_00000042701259567368138100000009221588792453868965_">
	<g>
		<path d="M243.4,272.9c-0.1-1.5,0.4-2.7,1.7-3.4c0.4-0.3,0.9-0.4,1.4-0.6c0.6-0.2,1.1-0.4,1.7-0.6c0.8-0.2,0.8-0.9,1-1.6
			c0.3-1.1,0.9-2.1,1.4-3.2c0.1-0.2,0.4-0.2,0.9-0.5c-0.1,1.4,0.3,2.4-0.6,3.6c-0.6,0.8-0.9,1.8-1.8,2.4c-0.7,0.5-1.5,1-2.2,1.4
			c-0.9,0.4-1.7,0.6-1.9,1.9c-0.1,0.8-1.2,1.6-2.1,2c-1.4,0.7-1.9,1.1-1.7,2.6c0,0.2,0,0.4,0.1,0.5c0.7,0.7,1.1,1.4,0.4,2.2
			c-0.5,0.6-1.3,0.8-2,1.2c-0.6,0.4-1.2,0.9-1.9,1.3c-0.6,0.4-1.2,0.7-1.9,0.9c-1.4,0.4-2.9,0.6-4.3,1c-1.7,0.4-3.4,0.9-5.1,1.4
			c-0.2,0.1-0.4,0.1-0.6,0.1c-3.8,0.3-7.5,0.6-11.3,0.8c-2.3,0.1-4.6,0-6.8,0.1c-0.7,0-1.3,0.2-1.9,0.4c-0.1,0-0.3,0.1-0.4,0.1
			c-1.5-0.2-3-0.4-4.6-0.5c-4.9-0.1-9.8,0.3-14.6-0.2c-5.9-0.6-11.7-0.3-17.5-0.7c-1.9-0.1-3.9-0.8-5.7-1.7c-1.1-0.5-2-1.7-1.9-3.3
			c0.1-4.7,0-9.4,0-14.2c0-0.2,0-0.5-0.1-0.7c-2.8-0.3-5.5-0.8-8.3-0.9c-3.4-0.1-6.6-0.8-9.9-1.5c-0.2,0-0.5-0.1-0.7-0.1
			c-2.5-0.1-4.7-1.1-7-1.8c-0.6-0.2-1.2-0.8-1.6-1.4c-0.7-1.1-2-1.6-2.2-3.3c-0.2-1.4-0.4-2.9-0.8-4.3c-0.2-0.8-1.1-1.5-1.9-2.1
			c-1.8-1.4-4.1-2-5.5-4c-0.2-0.3-0.5-0.7-0.5-1c0.1-1.1-0.6-1.6-1.2-2.3c-0.5-0.5-0.8-1.2-1.1-1.8c-0.4-0.8-0.6-1.7-0.9-2.5
			c-0.5-1.3-0.9-2.5-1.4-3.8c0-0.1-0.1-0.1-0.1-0.2c-0.3-1.8-0.5-3.5-0.9-5.3c-0.4-2.2-1-4.5-1.4-6.7c0-0.1-0.1-0.2-0.1-0.3
			c-0.3-2.4-0.4-4.8-0.9-7.1c-0.6-2.8-0.5-5.7-1.1-8.5c-0.4-2.2-0.1-4.4-0.7-6.5c-0.7-2.6-0.1-5.4-0.8-7.8c-0.7-2.5-0.4-5-0.7-7.5
			c-0.2-1.5-0.5-3-0.6-4.5c-0.1-0.8,0.2-1.6,0.4-2.4c0.2-0.8,0-1.1-0.8-1.2c-0.8-0.2-1.7-0.4-2.5-0.8c-0.5-0.2-0.9-0.8-1-1.2
			c-0.4-1.1-0.7-2.3-1.1-3.5c-0.2-0.6-0.4-1.1-0.5-1.6c-0.1-0.4-0.2-0.9-0.1-1.3c0.1-0.7,0.3-1.4,0.6-2c0.4-0.8,0.9-1.7,1.6-2.3
			c1-0.9,2.2-1.7,3.7-1.8c0.4,0,0.7-0.9,1-1.4c0.1-0.1,0-0.3,0-0.5c0.3-2.4,0.5-4.9,0.9-7.3c0.2-1,0.9-2,1.4-3
			c0.1-0.1,0.1-0.3,0.1-0.5c0.2-1.7,1-3,2.1-4.3c0.6-0.8,1-1.8,1.8-2.6c1-1,2-1.9,3-2.8c0.7-0.6,1.3-1.3,2.1-1.8
			c1.1-0.8,2.2-1.5,3.3-2.2c1.5-0.8,3.1-1.7,4.7-2.3c1.3-0.5,2.7-0.6,4.1-0.9c1.4-0.4,2.7-0.8,4-1.3c0.2-0.1,0.4-0.2,0.5-0.2
			c1.8-0.3,3.6-0.5,5.3-0.9c2-0.4,4-0.9,6.1-1.3c0.4-0.1,0.8-0.2,1.2-0.2c1.2-0.1,2.5,0,3.7-0.1c3-0.2,6.1-0.6,9.1-0.7
			c3-0.1,6.1,0.2,9.1-0.2c2-0.3,4-0.5,6-0.5c2.2,0.1,4.3,0,6.9,0c-0.3-1.4-0.5-2.5-0.7-3.6c-0.3-1.6-0.6-3.3,0.2-4.8
			c0.1-0.1,0.1-0.2,0.1-0.3c0-1.8,1.1-2.9,2.5-3.7c0.9-0.5,2-0.6,3.1-0.7c1.8-0.1,1.8,0.3,2.8,1.9c1.1,1.7,0.3,3.5,0.7,5.3
			c0.4,0,0.9,0,1.4,0c0.4-1.3-0.4-2.9,1.1-3.7c0.4-0.2,0.9-0.1,1.5-0.2c0,1.4,0,2.6,0,3.9c0.5,0,0.9,0,1.5,0c0-1.4,0-2.9,0-4.3
			c0.1-2.8,2.8-5.3,5.9-4.3c0.5,0.1,0.9,0.6,1.2,1c0.4,0.5,0.6,1,0.8,1.6c0.9,2.6,1.2,5.3,0.8,8c-0.2,1.2-0.9,2.2-1.4,3.5
			c0.6,0.1,1.1,0.2,1.7,0.2c6.3,0,12.6,0,18.9,0.1c2,0,4.1,0.5,6.1,0.6c3.2,0.2,6.5,0.1,9.7,0.3c2.3,0.1,4.7,0.2,6.9,0.9
			c1.6,0.5,3.2,0.3,4.8,0.7c1.6,0.4,3.1,1,4.7,1.4c1.1,0.3,2.3,0.6,3.4,0.9c1.1,0.4,2.1,0.9,3.1,1.3c0.1,0,0.2,0.1,0.3,0.2
			c1.8,0.6,3.6,1.1,5.3,1.8c2.3,1.1,4.5,2.3,6.3,4.3c1.3,1.4,1.9,3,2.9,4.5c0.6,0.9,0.7,2.2,1,3.2c0.4,1.4,1,2.7,1.4,4.1
			c0.2,1.1,0.1,2.3,0.2,3.5c0.2,1.6,0.5,3.1,0.8,4.7c0,0.2,0.3,0.4,0.6,0.5c0.7,0.2,1.4,0.5,2.1,0.6c1.7,0.2,2.7,1.4,3.7,2.6
			c0.2,0.2,0.4,0.4,0.6,0.6c0.5,0.7,1.6,1.4,0.4,2.5c-0.2,0.2-0.2,0.8-0.2,1.1c-0.1,1.7-0.6,3.2-1.6,4.5c-0.4,0.5-0.9,1.2-1.5,1.3
			c-0.9,0.3-1,0.9-1,1.6c0,1.2,0.1,2.5,0,3.7c-0.1,1.4,0.3,2.9-0.6,4.3c-0.2,0.3-0.1,0.9-0.1,1.4c0,2.2,0,4.4-0.1,6.6
			c-0.2,3.2-0.2,6.4-0.9,9.5c-0.9,3.9-0.2,7.8-0.7,11.6c-0.2,1.9-0.4,3.9-1,5.7c-0.4,1.2-0.3,2.4-0.7,3.4c-0.7,1.7-0.4,3.4-0.7,5.1
			c-0.4,2.1-0.8,4.3-1.6,6.3c-1,2.4-1.8,4.9-3.7,6.8c-0.1,0.1-0.1,0.3-0.1,0.4c-0.1,1.9-1,3.2-2.5,4.3c-1.9,1.5-3.5,3.2-5.3,4.8
			c-0.1,0.1-0.2,0.2-0.3,0.4c-0.3,1.2-0.4,2.4-0.9,3.5c-0.6,1.2-0.7,2.5-0.9,3.8c-0.1,0.7-1,1.4-1.7,1.8c-0.7,0.5-1.7,0.6-2.5,0.9
			c-1.3,0.5-2.5,1-3.8,1.4c-0.1,0-0.2,0-0.4,0.1c-1.1,0.2-2.1,0.6-3.2,0.7c-2.5,0.4-5.1,0.7-7.6,1c-2.5,0.4-5.1,0.9-7.6,1.3
			c-1.4,0.2-2.8,0.1-4.2,0.3c-2.3,0.2-4.7,0.4-7,0.8c-0.5,0.1-1,0.9-1.2,1.5c-0.3,1.1,0.2,2,1.2,2.4c2,0.8,2.2,1.2,1.7,3.3
			c-0.1,0.4,0.4,1.1,0.8,1.5c0.2,0.3,0.7,0.3,1.1,0.5c0.7,0.3,1.5,0.7,2.2,1.1c1,0.5,1.3-0.5,1.9-0.9c0.3-0.2,0.5-0.5,0.7-0.6
			C241.3,273.5,242.3,273.2,243.4,272.9z M266.6,257.5c0.3-0.9,0.7-1.8,0.9-2.8c0.4-1.3,0.6-2.6,1-3.9c0.2-0.7,0.6-1.4,1.1-1.9
			c1.8-1.8,3.8-3.6,5.7-5.4c0.7-0.7,1.6-1.4,1.7-2.2c0.3-1.8,1.4-3,2.3-4.3c0.5-0.7,0.9-1.5,1.1-2.3c0.4-1.2,0.6-2.4,0.9-3.6
			c0.5-2.1,1.1-4.2,1.5-6.4c0.4-1.9,0.6-3.8,0.9-5.6c0,0,0-0.1,0-0.1c0.5-2.6,1.1-5.1,1.5-7.7c0.4-3.6-0.2-7.3,0.7-11
			c0.8-3.5,0.7-7.1,1-10.7c0.2-2.3-0.2-4.7,0.6-7c0.6-1.9,0.2-4.2,0.3-6.3c0-0.2-0.4-0.6-0.5-0.5c-0.8,0.2-1.5,0.5-2.2,0.8
			c-1.1,0.4-2.2,1.1-3.4,1.3c-2.2,0.5-4.4,0.8-6.5,1.5c-1.4,0.5-3,0.7-4.5,0.9c-1.6,0.2-3.1,0.2-4.7,0.7c-1.7,0.5-3.7,0.2-5.5,0.8
			c-2,0.6-4.3,0.1-6.4,0.7c-2.7,0.7-5.6,0.2-8.4,0.8c-3.4,0.8-6.9,0.2-10.4,0.8c-4.9,0.8-9.9,0.2-14.9,0.7
			c-4.7,0.5-9.4,0.2-14.1,0.3c-1.6,0-1.7,0.2-1.8,1.8c-0.2,4,0.3,8-0.5,12c-0.6,3-0.2,6.3-0.1,9.5c0,0.5,0.4,1.3,0.9,1.5
			c1.4,0.6,2.9,1.1,4.3,1.6c1.2,0.4,2.4,0.6,3.5,0.9c0.2,0.1,0.4,0.2,0.5,0.2c1.1,0.4,2.3,0.9,3.4,1.3c1,0.3,2.1,0.5,3,1
			c1.2,0.7,2.3,1.4,3.8,1.4c0.2,0,0.5,0.1,0.7,0.2c1.2,0.5,2.4,0.9,3.6,1.4c0.2,0.1,0.4,0.1,0.5,0.2c1.4,0.7,2.7,1.4,4.1,2
			c1.8,0.8,3.8,1.2,5.4,2.4c1,0.8,2.1,1.4,3.2,2.1c1,0.6,1.8,1.4,2.9,1.8c0.9,0.4,2,0.4,3,0.7c1.8,0.6,3.8,0.8,5.7,0.9
			c2.6,0.2,5.3,0.2,7.9,0.2c1.8,0,3.5,0.3,4.9,1.5c1,0.9,2,2,2.4,3.2c0.9,2.4-0.4,4.5-1.7,6.2c-0.9,1.1-2.1,2.1-3.3,3
			c-1.6,1.3-3.5,1.3-5.1,1.8c-2.4,0.7-5,0.7-7.5,1c-0.3,0-0.6,0-1,0.1c-2,0.4-3.9,1.1-5.9,1.3c-3.2,0.4-6.4,0.6-9.6,0.9
			c-2.1,0.2-4.1,0.4-6.2,0.5c-0.3,0-0.7-0.1-1.1-0.1c-1.3,0-2.6-0.1-3.9-0.1c-0.6,0-1.2,0.2-1.8,0.3c-3.9,0.4-7.7,0-11.6,0.8
			c-4.1,0.8-8.4,0.7-12.6,1c-2.1,0.1-4.2,0.1-6.4,0c-4.9-0.1-9.9,0.1-14.8-0.6c-3.5-0.5-7.2-0.3-10.7-0.8c-4.5-0.6-9.1,0-13.7-0.7
			c-2.8-0.5-5.5-0.9-8.2-1.6c-1.5-0.4-2.9-0.8-4.1-1.7c-1.6-1.3-2.6-2.9-2.8-5c-0.2-2,0.6-3.5,1.7-5c1.4-1.9,3.3-3,5.5-3.6
			c1.6-0.4,3.2-0.6,4.9-0.8c2.2-0.2,4.3-0.2,6.4-0.8c2.1-0.6,4.4-0.6,6.5-0.8c0.2,0,0.5-0.2,0.6-0.4c0.6-0.8,1-1.8,1.6-2.5
			c0.9-1.1,1.9-2.2,3.6-2c1.4,0.1,2.7,0.1,4.1,0.1c0.4,0,0.9-0.3,1.3-0.6c1.1-0.8,2.2-1.8,3.3-2.6c0.9-0.6,2-1.1,3-1.6
			c1.2-0.6,2.4-1.1,3.6-1.7c0.7-0.4,1.3-0.9,2-1.3c0.7-0.4,1.4-0.7,2.1-1c0.9-0.4,1.8-0.9,2.7-1.3c0.8-0.4,1.5-0.7,2.3-1.1
			c0.8-0.4,1.7-0.7,2.5-1.1c0.8-0.4,1.6-1,2.5-1.2c1.1-0.3,1.5-0.9,1.5-2c0-7,0-14.1,0-21.1c0-1.5-0.2-1.7-1.7-1.7
			c-1.8,0-3.6,0.1-5.4,0c-7.1-0.3-14.3,0.4-21.4-0.7c-4.4-0.7-9,0.2-13.5-0.7c-3.4-0.7-7,0.1-10.6-0.8c-2.6-0.6-5.3-0.1-8-0.9
			c-1.9-0.5-3.8-0.1-5.8-0.7c-1.8-0.6-3.9-0.3-5.8-0.9c-1.4-0.4-2.8-0.2-4.3-0.7c-1.9-0.7-4-0.8-6.1-1.1c-1-0.2-1.4,0.3-1.3,1.3
			c0.2,1.1,0.4,2.3,0.5,3.4c0.3,2.6,0.1,5.2,0.7,7.9c0.8,3.2,0.7,6.6,1,10c0.1,1.1-0.1,2.3,0.2,3.2c1.1,2.9,0.1,6.1,1.3,9.1
			c0.5,1.3,0.2,2.9,0.6,4.4c0.6,1.9,0.3,4.1,1,6.1c0.3,1,0.3,2.1,0.7,3.3c0.6,1.5,0.3,3.3,0.9,4.9c0.6,1.7,0.7,3.5,1,5.3
			c0.2,0.7,0.5,1.4,0.8,2.1c0.7,1.3,1.4,2.6,2.3,3.8c0.9,1.2,0.6,3.1,2.3,3.9c1.2,0.6,2.2,1.4,3.4,2.1c1.2,0.7,2.5,1.5,2.9,2.9
			c0.5,1.6,0.6,3.3,0.9,5c0.6,0.1,1,0.2,1.5,0.3c-0.3,0.4-0.5,0.6-0.8,1.1c0.7,0.4,1.6,0.7,2.1,1.2c0.7,0.8,1.7,0.6,2.5,0.8
			c1.4,0.4,2.8,1.1,4.2,1.3c1.7,0.3,3.3,0.3,5,0.8c2.2,0.6,4.6,0.2,6.9,0.8c3.2,0.7,6.6,0.5,9.9,0.7c8.4,0.4,16.8,0.4,25.2,0.4
			c8.1,0,16.2-0.1,24.3-0.2c2.3,0,4.5-0.5,6.8-0.7c3.5-0.3,7.1,0.1,10.7-0.6c4.2-0.8,8.6-0.8,12.9-1.1c0.6,0,1.3-0.1,1.9-0.2
			c2.5-0.4,5-0.9,7.5-1.4c2.2-0.4,4.4-0.6,6.5-0.9c0.1,0,0.2,0,0.2-0.1C263,258.7,264.8,258.1,266.6,257.5z M208.5,129.2
			c-0.2,1.3-0.6,2.7,0.8,4c1.1,1.1,0.9,1.8,0,3.1c-0.8,1.2-1.8,2-3.1,2.5c-1.5,0.6-3.2,0.8-4-0.4c-0.7-1-1.9-0.5-2.6-1.3
			c-0.1-0.1-0.4,0-0.5,0.1c-0.9,0.8-1.7,1.7-2.5,2.6c-1.1,1-2.2,2-3.9,2.1c-1.7,0.1-2.9-0.8-3.9-1.9c-0.6-0.7-1-1.9-0.8-2.7
			c0.3-1.4,1.3-2.5,2.4-3.4c1-0.9,0.7-1.9,0.4-2.8c-0.2-0.7-1-1.4-2-1.4c-4.2,0.1-8.4-0.3-12.6,0.3c-4.1,0.6-8.3,0.4-12.4,0.6
			c-3.4,0.2-6.8,0.5-10.2,0.8c-2.3,0.2-4.6,0.5-6.9,0.9c-1.6,0.3-3.2,1-4.8,1.4c-1.3,0.3-2.6,0-3.8,0.8c-0.9,0.5-2,0.7-2.9,1
			c-1.2,0.4-2.3,0.9-3.5,1.4c-1.5,0.6-3.1,1.1-4.3,2.1c-1.8,1.4-3.6,2.7-5.3,4.2c-2.2,2-3.7,4.5-5.2,6.9c-0.8,1.2-1.3,2.8-1.6,4.3
			c-0.2,1.7-0.5,3.4-0.9,5c-0.3,1.5-0.2,3-0.3,4.5c0,0.3-0.1,0.6-0.2,0.9c-0.1,1-0.3,2.1-0.4,3.1c0,0.3,0.4,0.8,0.7,0.8
			c1.3,0.4,2.6,0.6,3.9,0.9c0.2,0.1,0.5,0,0.7,0.1c1.7,0.5,3.3,1,5,1.4c1.5,0.3,2.9,0.2,4.4,0.7c1.6,0.6,3.5,0.2,5.3,0.8
			c2,0.6,4.2,0.6,6.3,0.9c2.6,0.3,5.2,0.2,7.9,0.7c3.4,0.7,6.9,0.3,10.5,0.8c5.1,0.7,10.3,0.7,15.5,0.9c2.5,0.1,5,0.1,7.6,0.1
			c15.1-0.3,30.2,0.7,45.3-0.7c1.5-0.1,3,0,4.6-0.1c5-0.3,10-0.6,15-0.8c1-0.1,2.1,0.3,2.8-0.2c1.3-0.8,2.7-0.5,4-0.6
			c3.2-0.3,6.3-0.6,9.5-0.9c0.1,0,0.2,0,0.4-0.1c2.6-0.5,5.2-1,7.8-1.4c2.1-0.4,4.2-0.6,6.4-0.9c0.1,0,0.2,0,0.2-0.1
			c1.9-0.5,3.8-1,5.7-1.4c1.1-0.2,1.6-0.7,1.6-1.9c-0.1-1.2,0-2.5-0.1-3.7c-0.1-2.1,0.2-4.2-0.5-6.4c-0.6-2.1-0.1-4.4-1-6.6
			c-0.5-1.2-0.5-2.5-1-3.6c-0.6-1.3-1.6-2.5-2.1-3.8c-1-2.6-3.3-3.5-5.6-4.4c-0.8-0.3-1.6-0.6-2.4-1c-1.3-0.7-2.5-1.5-3.8-2.1
			c-1.1-0.5-2.4-0.7-3.6-1c-0.2,0-0.3,0-0.5-0.1c-1.1-0.5-2.1-1.1-3.2-1.4c-2-0.5-4.1-0.7-6.2-1c-0.2,0-0.5-0.1-0.7-0.1
			c-2.4-0.4-4.7-1.1-7.1-1.3c-4.2-0.3-8.4-0.4-12.6-0.7c-7.6-0.5-15.3-0.2-23-0.2C210.2,129.8,209.4,129.5,208.5,129.2z
			 M164.1,225.9c-0.8,1.3-1.4,2.5-2.2,3.5c-0.4,0.4-1.3,0.3-1.9,0.5c-1.8,0.5-3.5,1.1-5.2,1.5c-1.7,0.4-3.5,0.2-5.2,0.7
			c-2,0.7-4.3,0.7-6.5,0.9c-1.7,0.1-3.3,0.6-4.5,1.8c-1,1-1.6,2.2-1.2,3.6c0.1,0.4,0.5,0.8,0.7,1.2c0.6,1.9,2.1,3.1,3.8,3.8
			c1.4,0.6,2.9,0.7,4.4,1c0.3,0.1,0.5,0.1,0.8,0.2c2.4,0.4,4.8,1,7.2,1.3c4.3,0.4,8.6-0.2,12.9,0.7c3.8,0.7,7.9,0.4,11.8,0.9
			c4,0.4,8,0.2,12,0.1c4.7-0.1,9.4,0.3,14.2-0.6c2.9-0.6,6-0.5,9.1-0.8c4.3-0.4,8.6-0.1,12.9-0.2c1.6,0,3.1-0.5,4.7-0.6
			c3.2-0.3,6.4,0.3,9.6-0.8c1.5-0.5,3.2-0.1,4.9-0.8c1.5-0.6,3.2-0.3,4.9-0.8c1.8-0.5,3.9-0.3,5.8-0.8c1.9-0.5,3.8-0.6,5.5-1.6
			c1.1-0.6,1.9-1.3,2.5-2.2c0.6-0.8,1.5-1.6,1.1-2.8c-0.2-0.5-0.5-0.9-0.8-1.3c-0.6-0.9-1.1-2.1-1.9-2.5c-1.1-0.6-2.3-1.1-3.8-0.9
			c-1.8,0.2-3.6,0.5-5.4,0c-1.2-0.3-2.4-0.5-3.6-0.7c-0.2,0-0.3-0.2-0.5-0.3c-0.4-0.2-0.7-0.5-1.1-0.6c-0.9-0.1-1.8,0-2.6-0.2
			c-1.5-0.4-2.9-1.2-4.4-1.4c-1.3-0.2-2.2-0.9-3.1-1.7c-1.3-1-2.5-2.1-4.1-2.6c-0.7-0.2-1.4-0.6-2.1-0.9c-0.8-0.4-1.5-0.9-2.3-1.3
			c-0.9-0.4-1.9-0.7-2.9-1.1c-0.7-0.3-1.4-0.6-2.1-0.9c-1-0.4-2-1-3.1-1.3c-1-0.4-2.2-0.5-3.2-0.9c-1.7-0.7-3.3-1.5-4.9-2.2
			c-1.2-0.4-2.4-0.6-3.6-0.9c-0.9-0.3-1.8-0.6-2.7-0.9c-1.4-0.5-2.7-1.2-4.1-1.6c-1.9-0.5-2.4-0.8-2.3-2.8c0.2-3.8-0.5-7.6,0.6-11.4
			c0.4-1.5,0.1-3.2,0.2-4.8c0.1-1.8,0-3.5,0.3-5.3c0.4-1.9,0.4-2-1.5-2c-0.2,0-0.4,0-0.6,0c-1.3,0.1-1.7,0.7-1.2,2
			c0.3,0.6,0.5,1.3,0.5,2c0.1,6.5,0.1,13,0.1,19.4c0,1.4-1.4,2.8-2.8,2.9c-0.4,0-0.7,0-1,0.2c-0.8,0.4-1.4,1-2.2,1.3
			c-1.5,0.7-3.1,1.1-4.6,1.9c-1.7,0.8-3.2,2-4.8,2.9c-1.3,0.7-2.7,1.2-4,1.8c-0.7,0.3-1.4,0.7-2,1c-0.7,0.4-1.5,0.9-2.2,1.3
			c-1.1,0.7-2.4,1.2-3.3,2.1c-1.5,1.6-3.1,2.4-5.1,1.7C166,225.2,164.9,225.8,164.1,225.9z M109.3,170.2c-0.1,0.7-0.2,1.5-0.2,2.2
			c0,0.7-0.1,1.4,0.8,1.7c1,0.3,1.9,0.9,2.9,1.2c2,0.6,4,1.2,6.1,1.6c1.2,0.3,2.5,0.2,3.7,0.7c1.5,0.6,3.2,0.3,4.8,0.9
			c1.5,0.6,3.3,0.2,5,0.7c1.8,0.6,3.9,0.3,5.9,0.7c2.8,0.6,5.7,0.3,8.5,0.9c3.3,0.7,6.8,0.3,10.3,0.8c5,0.6,10,0.2,15,0.8
			c2.8,0.3,5.8,0.2,8.6,0.2c15-0.3,30.1,0.7,45.2-0.7c4.3-0.4,8.7,0.2,13.1-0.7c3.6-0.7,7.4,0,11.1-0.9c2.2-0.5,4.6-0.1,6.9-0.7
			c2.2-0.6,4.6-0.2,6.9-0.9c1.2-0.4,2.5-0.1,3.8-0.3c2.3-0.4,4.5-0.9,6.8-1.3c1.8-0.3,3.5-0.7,5.3-1c0.8-0.2,1.6-0.4,2.4-0.6
			c1.1-0.3,2.3-0.5,3.4-0.9c1.5-0.6,2.9-1.5,4.4-2.1c1.6-0.7,2.1-3.6,1.2-4.9c-0.2,0.2-0.3,0.5-0.5,0.6c-1.4,0.6-2.9,1.2-4.4,1.7
			c-0.3,0.1-0.5,0.2-0.8,0.3c-1.1,0.4-2.2,0.9-3.4,1.2c-1.7,0.4-3.4,0.6-5.2,0.9c-0.1,0-0.2,0-0.2,0.1c-1.8,0.5-3.7,1.1-5.5,1.4
			c-1.4,0.3-2.9,0.2-4.4,0.7c-1.9,0.6-3.9,0.2-6,0.8c-2,0.6-4.2,0.4-6.3,0.8c-2.6,0.4-5.3,0.1-8,0.7c-3.5,0.8-7.2-0.1-10.8,0.9
			c-1.1,0.3-2.4,0.1-3.6,0.1c-4.5,0.2-9.1,0.7-13.6,0.7c-9.2,0.1-18.4,0.2-27.6,0.1c-7.1-0.1-14.3,0.3-21.4-0.6c-5-0.6-10,0-15-0.9
			c-3-0.5-6.2,0.2-9.3-0.8c-2.3-0.7-4.8,0-7.2-0.7c-2.2-0.7-4.7-0.2-7-0.9c-1.5-0.5-3.1-0.1-4.7-0.7c-1.6-0.6-3.4-0.2-5.2-0.8
			c-1.8-0.6-3.8-0.7-5.8-1c-0.1,0-0.2,0-0.3-0.1c-1.2-0.4-2.4-0.9-3.6-1.3C110.8,170.5,110.1,170.4,109.3,170.2z M163.5,270.3
			c0,3.7,0,6.9,0,10.1c0,0.2,0.1,0.5,0.2,0.6c1,1.1,2.3,2,3.7,2.2c3.1,0.4,6.2,0.7,9.3,0.9c3.8,0.2,7.6,0,11.4,0.1
			c1.8,0.1,3.6,0.7,5.3,0.6c6.7-0.2,13.5,0.6,20.3-0.5c4.4-0.8,9,0.4,13.4-0.9c1.7-0.5,3.6-0.6,5.4-0.9c0.1,0,0.2,0,0.2,0
			c1.4-0.5,2.7-0.9,4.1-1.5c0.6-0.2,1.1-0.7,1.7-0.8c1-0.1,1.2-0.6,1-1.5c-1.5-0.6-3.1-1-4.4-2.2c-0.2-0.1-0.4-0.2-0.7-0.2
			c-1.7,0-2.7-0.8-3.1-2.5c-0.4,0.1-0.8,0.1-1.2,0.3c-0.9,0.4-1.8,1.1-2.7,1.2c-2.6,0.4-5.2,0.7-7.8,0.7c-3.3,0-6.6-0.3-9.9-0.4
			c-4.2-0.1-8.3-0.1-12.5-0.2c-4.1-0.2-8.3-0.5-12.4-0.7c-1.6-0.1-3.3-0.1-4.9-0.1c-0.4,0-0.9-0.1-1.3-0.2c-2.3-0.4-4.7-1-7-1.3
			c-1.5-0.2-2.7-0.8-4-1.4C166.4,271.2,165.1,270.9,163.5,270.3z M163.6,268c1.6,0.4,3,0.8,4.4,1.1c0.1,0,0.3,0.1,0.4,0.2
			c0.8,0.4,1.5,1,2.3,1.2c2.6,0.6,5.2,1.3,7.8,1.6c3,0.4,6,0.3,9,0.7c5.1,0.7,10.2,0.2,15.4,0.7c6.3,0.6,12.8,0.3,19.2,0.3
			c2.1,0,4.3-0.4,6.4-0.8c1-0.2,2-0.6,3.3-1c-1.1-1.2-2.9-1.3-2.7-3.1c0.1-1.3,0.4-2.5,0.6-3.8c0,0-0.3-0.1-0.6-0.1
			c-1.5,0.2-2.9,0.5-4.4,0.6c-5.1,0.3-10.2,0.5-15.3,0.7c-12.1,0.4-24.3,0.2-36.5,0.1c-2.7,0-5.3-0.4-8-0.6
			c-1.2-0.1-1.6,0.4-1.4,1.5C163.6,267.6,163.6,267.8,163.6,268z M194,123.4c0-1.2-0.1-2.2,0-3.2c0.2-1.4-0.4-2.5-1-3.6
			c-0.3-0.6-2.7-0.6-2.9,0c-0.4,0.8-0.8,1.7-0.8,2.5c0.1,2.4,0.4,4.8,0.8,7.1c0.1,0.7,1,1.3,1.4,2c0.5,0.9,1.7,1.4,1.8,2.7
			c0.2,1.8-0.9,2.7-1.9,3.9c-0.6,0.7-1.1,1.7-1,2.5c0,0.7,0.8,1.5,1.4,2c1.6,1.3,2.5,1.2,3.7-0.3c0.4-0.5,0.7-1.1,1.2-1.5
			c1-0.8,2.1-1.7,3.2-2c1.1-0.3,2.4-0.1,3.9-0.1c-0.5,1.6,0.8,1.4,1.5,1.9c0.6,0.4,1.1,0.6,1.6-0.1c0.5-0.8,1.4-1.4,0.4-2.6
			c-0.7-0.9-1.2-1.9-1.7-3c-0.1-0.2,0.1-0.6,0.2-0.9c0.1-0.3,0.3-0.6,0.4-0.9c0.4-0.8,0.7-1.7,1.1-2.6c0.5-1.2,1.2-2.3,1.3-3.5
			c0.2-2,0.4-3.9-0.6-5.9c-0.5-0.9-0.6-2-1.5-2.7c-0.3-0.3-1-0.6-1.2-0.5c-0.4,0.2-0.6,0.8-0.7,1.2c-0.3,1.9,0.3,3.8-0.7,5.6
			c-0.5,1-1,1.7-2.1,1.8C199.2,123.5,196.7,123.4,194,123.4z M286.8,161.6c0,2.1,0,3.9,0,5.8c1.9,0,3.1-1.4,4.9-2
			C290.1,164.1,289.2,162.1,286.8,161.6z M112.6,167.8c-0.4-0.6-0.8-1.2-1.2-1.8c-0.5,0.3-1,0.7-1.5,1
			C110.6,167.8,111.2,168.5,112.6,167.8z"/>
	</g>
</g>
</svg>
