<?xml version="1.0" encoding="utf-8"?>
<!-- Generator: Adobe Illustrator 26.5.0, SVG Export Plug-In . SVG Version: 6.00 Build 0)  -->
<svg version="1.1" id="Katman_2_xA0_Image_00000181045851814175259500000002150889903414885509_"
	 xmlns="http://www.w3.org/2000/svg" xmlns:xlink="http://www.w3.org/1999/xlink" x="0px" y="0px" viewBox="0 0 400 400"
	 style="enable-background:new 0 0 400 400;" xml:space="preserve">
<g>
	<path d="M204.5,83.3c5.5,0.6,13.7,0.3,21.2,2.4c18,5,35,12.3,49.7,24.3c23.1,19,37.9,43.1,42.6,72.6c5.3,33.2-2.2,63.6-23.5,89.8
		C254,322.6,180,331.3,128.3,292.4c-30.8-23.2-47.2-54.4-48-92.9c-1-50.8,32.7-95.7,81.9-110.8C175.3,84.7,188.5,83.1,204.5,83.3z
		 M316.7,201.7c-0.4-5-0.6-10.1-1.3-15.1c-3.6-27.4-15.8-50.5-35.7-69.5c-15.7-15-34.4-24.6-55.5-29.5c-17.5-4.1-35-3.8-52.5,0.2
		C120.8,99.5,83.8,145,83.4,197.2c-0.2,28.4,8.8,54.1,27.5,75.5c30.5,34.7,69,48.6,114.6,39.7C278.3,302.1,316.3,255.4,316.7,201.7z
		"/>
	<path d="M199.4,289.4c-41.6-0.8-79.1-26.4-92.8-64.1c-17.1-47.2,6.6-96.1,54.4-112c47-15.6,101.1,7.9,120.6,52.6
		c11.1,25.3,11.3,50.7-1.3,75.5c-12,23.6-31.7,38.2-57.3,44.5C215.3,287.7,207.3,288.2,199.4,289.4z M202.4,287.4
		c24.2-0.7,47.1-10.4,64.8-31.3c13.8-16.3,20.2-35.5,19.3-56.8c-0.9-21.9-8.9-41.3-24-57.2c-26.9-28.4-59.5-38.8-97.5-28.2
		c-41.1,11.4-67,53.1-59.7,95C113,253.5,153.8,287.5,202.4,287.4z"/>
	<path d="M165.5,198.2c0.1-18.4,14.2-33.2,31.7-33.2c17.2,0,30.7,14.3,30.5,32.2c-0.2,18.3-14.5,33-32.1,32.9
		C178.5,230,165.4,216.2,165.5,198.2z M195.9,228.8c1.7-0.2,3.3-0.3,4.9-0.7c22.4-5.2,31.5-34.1,16.4-52c-9.1-10.8-23.6-12.7-35-4.5
		c-12.1,8.6-16.9,25.7-10.9,39.5C175.9,221.8,184,228,195.9,228.8z"/>
	<path d="M280.4,187c-0.4,2.2-0.6,4.5-1.2,6.6c-1.1,4.4-4.7,7.1-8.6,6.8c-5.7-0.5-8.3-3.1-8.4-8.6c0-7.6-3.7-14-6.8-20.6
		c-0.8-1.7-1.8-3.3-2.5-5c-2.2-5.7-1.2-9.2,3.4-12c4.4-2.7,9.4-2,12.6,2.5C275.4,165.9,280.2,175.6,280.4,187z M277.9,186.2
		c-0.7-11.4-5.8-20.7-11.8-29.6c-1.6-2.4-3.9-2.8-6.6-1.2c-4.4,2.6-5.7,5.5-3.9,10.2c0.8,2.2,2.1,4.3,3.1,6.4c3,6.7,7,13.1,7,20.8
		c0,2.4-0.2,5,2.6,5.4c1.9,0.2,4.9-0.6,5.8-1.9C276,193.3,276.7,189.6,277.9,186.2z"/>
	<path d="M144.8,232.6c-0.4,3.7-1.8,6.2-5.3,7.6c-3.7,1.4-6.8,0.8-9.5-1.9c-5.9-5.8-9.3-13-10.6-21c-0.7-4.4-0.4-9-0.1-13.4
		c0.4-5.1,3.1-7.8,7.4-7.7c4.8,0.1,7.4,2.5,7.9,7.7c0.8,8.6,3,16.7,8.2,23.8C143.8,229,144.1,230.9,144.8,232.6z M142,233.7
		c-1.1-2.7-1.7-4.5-2.6-6.3c-1.2-2.2-3-4.2-3.7-6.5c-1.7-5.7-2.8-11.5-4.1-17.3c-0.6-2.7-1.5-5.5-4.6-5.7c-3.3-0.2-4,2.8-4.4,5.3
		c-2,12.5,0.9,23.8,9.3,33.3c1.3,1.4,4.1,2.8,5.6,2.3C139.3,238,140.5,235.4,142,233.7z"/>
	<path d="M189.1,118.6c1.7,0.8,5.1,1.3,6.8,3.3c3.4,3.9,0,11.4-5.4,12.4c-4,0.8-8.3,0.7-12.2,1.9c-3.7,1.1-7.4,2.9-10.5,5.1
		c-4.1,2.9-6.4,3.3-9.8,0.2c-4.1-3.9-4.8-8.5-1.7-12c4.2-4.9,10.2-6.8,16.1-8.3C177.4,120,182.7,119.6,189.1,118.6z M195.2,123.1
		c-1.8-0.3-3.8-1.2-5.6-0.9c-7.1,1-14.1,2-21,3.7c-3.2,0.8-6.3,2.8-9,4.8c-3.3,2.5-3.7,5.9-1.6,8.2c2.6,2.7,5,2.2,8.7-0.4
		c3.1-2.2,6.8-3.9,10.5-5.1c3.4-1.1,7.1-1,10.6-1.6C192.9,131,194.4,129.3,195.2,123.1z"/>
	<path d="M207.9,277.9c-7.9,0-12.8-4.4-13.6-11.3c-0.4-3.3,0.7-5.5,4.1-6.1c2.1-0.3,4.2-0.6,6.3-0.5c7.9,0.2,15.1-1.9,22.2-5.3
		c2.5-1.2,5.9-2.2,8.4-1.5c2,0.6,4,3.7,4.7,6.1c0.5,2-0.2,5-1.6,6.7c-4.6,5.7-10.1,10.1-18,10.5
		C215.9,276.6,211.4,277.4,207.9,277.9z M209.4,276.3c2.2-0.3,5.6-1.2,9.1-1.2c7.3,0.1,11.8-4.7,16.5-9.1c2.8-2.6,2.9-7.1,0.9-9.5
		c-2.6-3.2-5.2-1.1-8.1-0.2c-6.5,2-13.2,3.5-19.9,5c-2.4,0.5-5.1,0-7.5,0.6c-1.2,0.3-2.8,2.1-2.9,3.4
		C196.9,271.2,202.4,276.6,209.4,276.3z"/>
	<path d="M233.5,192.8c0-4.9,3.9-9.1,8.6-9.2c4.3-0.1,7.7,3.4,7.7,7.9c0,4.8-4.5,9.4-9.1,9.3C236.9,200.9,233.5,197,233.5,192.8z
		 M238.4,198.1c5.2-0.1,9.4-4.6,9.2-8.3c-0.1-2.8-2-3.5-4.3-3.5c-3.9,0-8.2,4.4-7.6,8.2C236,196.1,237.9,197.4,238.4,198.1z"/>
	<path d="M215.6,164.6c-4.9-0.1-8.9-4.2-8.7-8.9c0.1-4.2,2.7-6.6,6.8-6.6c4.7,0.1,8.5,3.9,8.5,8.6
		C222.2,161.8,219.5,164.7,215.6,164.6z M219.1,157.9c0-3.8-2.9-8-4.9-7.1c-1.9,0.9-3.7,3.3-4.1,5.4c-0.6,3.3,2.4,7,4.8,6.6
		C218,162.4,219,160.2,219.1,157.9z"/>
	<path d="M239.8,207.7c4.1,0,6.8,2.5,6.7,6.2c-0.1,4.7-4.4,8.7-9.3,8.6c-3.7-0.1-6.5-2.7-6.5-6.1
		C230.8,211.5,234.7,207.7,239.8,207.7z M241,210.8c-5-0.1-8.7,2.4-8.4,4.7c0.3,3,2.6,3.8,5.1,3.9c3.3,0.1,7.7-2.5,6.9-4.4
		C243.9,213,241.7,211.6,241,210.8z"/>
	<path d="M225.8,171.1c0-4.7,2.9-8.2,6.7-8.2c4.2,0,7.8,3.9,7.7,8.4c-0.1,4.5-3.1,8-7.1,8C229,179.2,225.8,175.6,225.8,171.1z
		 M228.5,173.8c0.6,0.6,1.8,2.8,3.4,3.2c2.9,0.6,5.6-3.4,5.5-7.3c-0.1-2.4-0.4-4.7-3.5-4.7C230.9,165,228.5,168.5,228.5,173.8z"/>
	<path d="M224.2,225.7c4.4,0,8.4,4,8.2,8.1c-0.1,3.5-4.4,7.2-8.3,7.1c-3.9-0.1-7.7-3.9-7.7-7.7C216.3,229.5,220.3,225.7,224.2,225.7
		z M229.7,234.6c0-3.2-3.3-6.5-6.8-6.5c-2.3,0-3.7,1.1-3.7,3.6c-0.1,3.5,2.9,6.5,6.5,6.7C228.3,238.5,229.7,237.3,229.7,234.6z"/>
	<path d="M187.2,238.9c0,4.1-2.7,7.1-6.4,7c-3.8-0.1-7.7-4.1-7.9-8.1c-0.1-3.8,2.9-7.2,6.4-7.2C183.3,230.4,187.1,234.5,187.2,238.9
		z M184.8,236.1c-0.9-0.6-2.3-2.4-4-2.8c-2.9-0.5-5.3,2.3-5.3,5.6c0,2.6,1.1,4.4,3.9,4.4C182.3,243.4,184.7,240.7,184.8,236.1z"/>
	<path d="M169.6,169.7c-4.1,0.1-6.8-2.4-6.9-6.1c-0.1-4.4,3.6-8.2,8-8.3c3.9-0.1,6.8,2.6,6.8,6.2
		C177.6,166.2,174.3,169.6,169.6,169.7z M169.4,157.5c-1.6,1.6-4.4,3-4.6,4.8c-0.3,3,2.4,4.4,5.4,4.4c2.6,0,5.5-0.5,5.5-3.7
		C175.7,159.8,173.1,158.7,169.4,157.5z"/>
	<path d="M157.7,173c3.7,0,6.3,2.9,6.3,7.2c0,4.2-3.3,7.7-7.4,7.9c-3.6,0.1-6.3-3-6.3-7.2C150.3,176.6,153.7,173.1,157.7,173z
		 M154.4,185c4.7,0,8.1-2.9,7.5-5.8c-0.2-1.3-2.2-2.9-3.5-3.1c-2.9-0.5-6.7,3.1-6.3,5.9C152.3,183.2,154,184.4,154.4,185z"/>
	<path d="M162.2,217.2c3.8,0,7.5,3.8,7.5,7.7c0,3.8-3.4,7.4-7,7.3c-3.8,0-7.4-3.9-7.4-7.9C155.2,220.4,158.3,217.2,162.2,217.2z
		 M167.1,222c-0.7-0.5-2.1-2-3.6-2.2c-3-0.4-6.1,3-6,6.1c0.1,2.2,1.1,3.7,3.7,3.7C164.4,229.5,167.1,226.7,167.1,222z"/>
	<path d="M192.3,147c3.8,0.1,7.1,3.1,7.1,6.7c0,3.3-3.6,6.4-7.4,6.3c-3.8-0.1-7.2-3.3-7.2-6.6C184.8,150.1,188.6,146.9,192.3,147z
		 M189.6,149.3c-0.4,0.6-1.6,1.6-1.8,2.8c-0.4,2.8,2.6,5.8,5.5,5.5c1.2-0.1,2.9-1.8,3.1-3C196.9,152,193.7,149.3,189.6,149.3z"/>
	<path d="M203.7,248.7c-4.7,0-7.5-2.4-7.5-6.8c0-3.9,3.1-6.7,7.3-6.6c4.1,0,7.3,2.9,7.3,6.7C210.9,245.9,207.9,248.7,203.7,248.7z
		 M207.9,243.5c-0.3-4.2-1.5-6.5-4.6-6.4c-2.9,0.1-4,2.3-4.1,5c-0.2,2.6,2.4,5.8,4.4,5.1C205.5,246.4,206.9,244.4,207.9,243.5z"/>
	<path d="M153.2,195.8c3.6-0.1,7,3.5,7.1,7.7c0.1,3.9-2.9,7.2-6.4,7.2c-3.9,0-7-3.4-7-7.6C146.8,199.1,149.6,195.9,153.2,195.8z
		 M148.8,205.3c0.7,0.6,1.7,2.3,3.1,2.7c2.5,0.8,6.2-2.5,6-5.5c-0.1-1.4-1.6-3.4-2.9-3.9C152.5,197.6,149.3,200.9,148.8,205.3z"/>
</g>
</svg>
