<?xml version="1.0" encoding="utf-8"?>
<!-- Generator: Adobe Illustrator 26.5.0, SVG Export Plug-In . SVG Version: 6.00 Build 0)  -->
<svg version="1.1" id="Katman_2_xA0_Image_00000136391092598551023370000013606695311328522369_"
	 xmlns="http://www.w3.org/2000/svg" xmlns:xlink="http://www.w3.org/1999/xlink" x="0px" y="0px" viewBox="0 0 400 400"
	 style="enable-background:new 0 0 400 400;" xml:space="preserve">
<g>
	<path d="M176.4,197.1c0.7-0.1,2-0.3,3.2-0.4c0-6.1,0.3-12.1-0.1-18c-0.2-3.6-4.3-6.5-8.1-6.6c-1.3,0-2.6-0.1-4-0.2
		c0-5.1,0-10,0-14.9c0-2.3,0.7-4.6,0.4-6.8c-1.4-8.4,2-15.3,7-21.5c1.3-1.7,3.6-3.2,5.7-3.5c8.5-1.4,17.1-2.3,25.7-3.3
		c9.9-1.1,14.7,4.3,15,14.1c0.2,7.8-0.3,15.7-0.9,23.5c-0.1,1.3-1.5,3.3-2.6,3.5c-2.8,0.5-3.6,2.2-4.6,4.3
		c-2.8,5.7-4.8,11.5-3.3,18.1c5.9,0.6,9,4.7,11.5,9.7c0.6,1.1,2.1,2.2,3.3,2.6c7.9,2.2,15.9,3.9,23.8,6.2c7.4,2.2,14.4,11.1,13,19.6
		c-0.2,1.4,1.3,2.9,1.5,4.5c0.4,3.5,0.6,7,0.7,10.5c0.2,8.3-5.3,11.7-12.2,13.3c-7.1,1.7-14.3,2.8-21.4,4.2c-1.7,0.3-3.4,0.6-5,0.9
		c-0.2,4.1,2.9,4.2,5.4,4.9c1.3,0.3,2.6,0.3,3.9,0.7c2.4,0.6,3.3,2.1,1.1,3.8c-4.5,3.4-8.7,7.8-13.9,9.5c-4.7,1.5-10.5,0.7-15.6-0.4
		c-3.9-0.9-7.4-1.2-11.2,0.1c-3.4,1.1-6.9,1.9-10.4,2.7c-0.8,0.2-1.9,0.1-2.6-0.3c-2.2-1.1-4.4-3.3-6.6-3.3c-3.9,0-4.1-2-4.7-4.2
		c-1.2-1.3-3.5-2.6-3.5-4c0-5,5.2-4.3,8-6.4c0.6-2.9-0.7-3.8-3.5-4.4c-7.7-1.4-15.4-2.9-22.9-5.1c-8.5-2.5-11.5-6.8-12-15.6
		c-0.1-1.3-0.2-3.1,0.6-3.8c3.2-3,2.8-6.8,2.5-10.4c-0.5-6,3.6-9.4,6.5-13.7c1.3-1.9,2.1-4.3,2.5-6.6c1.1-5.8,1.4-11.8,2.8-17.6
		c0.7-2.8,2.9-5.3,4.8-7.6c1-1.2,2.8-2.1,4.4-2.4c5.4-1,12.6,3.1,13.9,8.5C175.6,186.4,175.8,191.5,176.4,197.1z M156.8,241.5
		c-0.7-0.3-1.4-0.5-2.1-0.8c-4-1.9-8.1-3.6-11.8-5.9c-1.4-0.8-3.6-2.7-0.9-4.8c3.4,4.9,8.3,7.7,13.9,8.8c8.7,1.8,17.4,3.9,26.2,4.2
		c13.8,0.5,27.7,0.4,41.4-0.8c9.5-0.9,18.9-3.9,28.2-6.4c7.8-2.1,9-14.4,5.4-20.1c-5.3,5.8-12.6,7.8-19.9,9.3
		c-17.8,3.8-35.9,4.3-53.9,2.1c-14.3-1.8-29.1-2.5-41.3-13.8c0,5.6,0,11.2,0,16.8c-1,0.4-2.8,0.8-2.7,1.1c0.2,1.5,0.3,3.5,1.3,4.2
		C145.4,238.9,150.8,241.2,156.8,241.5c0.6,0.3,1,0.8,1.5,0.9c10.9,1.4,21.8,3.5,32.7,3.9c12.4,0.5,25,0,37.4-0.8
		c9.9-0.7,19.7-2.4,28.9-6.7c3.6-1.7,4.8-4.1,3.6-8c-0.6,0.2-1.2,0.3-1.5,0.6c-4.7,5.5-11.2,7.9-17.8,9c-12.5,2.1-25.2,3.9-37.8,4.7
		c-9.3,0.6-18.8-0.3-28.2-1C169.4,243.6,163.1,242.4,156.8,241.5z M160.6,183.5c-2.7,5.3-3.5,10.9-2.3,16.8c0.2,0.8,0,2.2-0.5,2.5
		c-1.3,0.9-2.9,1.7-4.5,1.9c-3.3,0.3-6.1,1.8-6.5,4.8c-0.3,1.9,1.7,4.4,3.2,6.2c1,1.2,2.8,2.2,4.4,2.6c9.2,2.3,18.3,5.1,27.7,6.5
		c19,2.9,38.1,2.4,57-1.8c4.7-1.1,9.3-3.1,13.6-5.4c3.6-2,3.5-5.5,0.4-8.3c-1.1-1-2.3-1.9-3.6-2.5c-8.2-4.1-17.1-6-27.2-7.3
		c1,2.4,1.2,5,2.4,5.6c2.9,1.5,3.3,4,3.6,6.6c0.1,1.1-0.4,2.9-1.2,3.3c-1.9,0.9-4.2,1.2-6.4,1.8c-0.5-1.3-0.9-2.3-1.3-3.2
		c-4.8,1.2-9.4,3.5-14,3.4c-7.9-0.2-15.7-1.7-23.6-2.8c-3.5-0.5-5.6-3.1-5.2-6.8c0.3-3,1.2-5.9,1.8-9.1c-1.7,0.2-3.5,0.5-4.4,0.6
		c-0.7-5.7-1.2-11.3-2.1-16.9c-0.5-2.8-2.3-5.9-5.4-5.3c-2.1,0.4-3.8,3.1-5.6,4.9c-0.4,0.4-0.3,1.3-0.4,1.9L160.6,183.5z
		 M177.8,170.9c7-0.9,7.5-0.9,9.8,5.2c1.2,3.2,1.2,7,1.2,10.5c-0.1,3.3,0.6,5.3,4,6.5c5.2,1.9,8.2,6.2,9.5,11.5
		c0.4,1.6,0.3,3.3,0.6,5.6c5.8-2.2,11.3-4.2,16.6-6.4c0.7-0.3,1.2-2.2,1-3.3c-1.3-7.2-5.9-11.8-12.8-13.2
		c-1.8-8.1,1.2-15.1,4.9-21.9c0.7-1.4,2.4-2.2,3.4-3.5c0.9-1,2.2-2.2,2.3-3.4c0.5-7.2,0.4-14.3,1-21.5c0.3-4-0.8-7.2-3.4-9.5
		c-5,0.5-9.7,0.9-13.4,1.3c-0.4,2.4-0.5,4.2-1.1,5.9c-0.1,0.4-1.8,0.2-2.8,0.3c0-2,0-4,0-6.1c-3.7,0.3-7.5,0.4-11.3,1
		c-1.1,0.1-2.3,1.1-3,2c-4.1,5.9-6.9,12.1-6,19.6c0.4,3.4-0.3,6.9-0.3,10.3C177.7,164.8,177.8,167.7,177.8,170.9z M140,238.2
		c0.3,4.9,2.9,7.7,6.7,8.9c7.1,2.2,14.2,4.4,21.5,5.6c19.8,3.2,39.7,3.4,59.6,1.4c8.9-0.9,17.7-3,26.4-5.3c6.6-1.8,6.6-2.6,6.2-9.4
		C241.5,252.1,164,252.1,140,238.2z M234.4,265c-0.8-0.7-0.9-0.9-1-0.9c-0.5-0.1-1-0.3-1.5-0.4c-5.8-1.6-11.3-2.9-17.8-1.6
		c-11.9,2.3-24,1.7-35.9-0.9c-2.4-0.5-5.6,1.2-7.9,2.7c-2.2,1.5-0.8,3.3,3.5,4.8c0.1,1.3,0.3,2.7,0.3,3.1c4,1.5,7.3,2.7,12.3,4.6
		c2.6-0.7,7-2.1,11.6-3c2.4-0.5,5-0.4,7.3,0.2c6.7,1.7,13.2,3.4,19.3-1.6C227.6,269.5,230.9,267.4,234.4,265z M180.4,172.6
		c0.5,4,1.2,7.9,1.5,11.8c0.4,4.2,0.4,8.5,0.6,12.7c11.9,4.5,13.5,6.8,11.1,17.1c2.2,0.2,4.4,0.3,6.4,0.5c1.2-11-2.2-18.8-13.8-21.5
		c0-4.4,0.1-8.7,0-12.9C185.9,175.5,183,172.3,180.4,172.6z M169.9,141.8c0,9.5,0,18.6,0,27.9c1.8,0.1,3.7,0.2,5.9,0.4
		c0-9.7,0-18.9,0-28.3C174,141.8,172.3,141.8,169.9,141.8z M163.6,175.6c-4.3-1.8-6.1-1.3-8.4,2.6c-4.3,7.6-4.9,16-4.3,24.9
		c1.8-0.1,3.3-0.2,4.7-0.3C156.2,186.4,157.1,183.3,163.6,175.6z M190.6,213.4c3.4-6.3,0.9-11.3-6.4-13.8c-2.5-0.9-3.9-0.5-4.6,2.3
		c-2.1,7.4-0.3,10.1,7.3,11C188,213,189.2,213.2,190.6,213.4z M177.9,257.1c5.5,5.4,41.2,5.4,44.2,0
		C207.3,257.1,192.6,257.1,177.9,257.1z M170,138.7c10.6,2.5,9.4-7.2,13.9-10.9C174.7,126,174.1,133.9,170,138.7z M203.1,212
		c0.7,2.8,1.7,3.5,4.1,2.5c3.1-1.2,6.4-1.9,10-3C212,207.2,207.8,210.7,203.1,212z M195.8,125.9c0.1,0.3,0.1,0.5,0.2,0.8
		c5.7-0.4,11.3-0.8,17-1.2c0-0.3,0-0.6-0.1-0.9C207.2,125,201.5,125.5,195.8,125.9z M216.1,207c3.3,3.7,5.8,2.2,8.4,0
		C222,207,219.4,207,216.1,207z"/>
	<path d="M160.5,183.6c3.6-3.7,5.7-4.2,8.3-1.8c2.8,2.7,3.2,9,0.7,11.6c-2.6,2.7-6.8,1.8-7.8-1.8c-0.7-2.6-0.7-5.4-1-8.1
		C160.6,183.5,160.5,183.6,160.5,183.6z M160.8,185.9c2.5,2.7,4.4,4.7,6.2,6.7c0.8-1,2.3-1.9,2.4-2.9c0.1-4-2.4-7.4-4.9-6.9
		C163.5,183,162.7,184.3,160.8,185.9z"/>
	<path d="M187.6,161.9c-0.2-4.9-0.4-9.5-0.5-14c-0.1-9.9,0-10,9.9-10.8c4.6-0.4,9.2-0.4,14.6-0.7c0,6.4,0.1,12.6-0.1,18.8
		c0,0.9-1.5,2.5-2.5,2.7C202.2,159.3,195.4,160.5,187.6,161.9z M188.6,140.2c0.6,6.6-0.8,12.8,0.9,19c3.5-0.6,6.4-0.9,9.3-1.6
		c1-0.3,2.6-1.3,2.7-2.1c0.5-5.2,0.6-10.5,0.9-16.2C197.6,139.6,193.4,139.8,188.6,140.2z M210.1,138.8c-2.6,0.2-4.3,0.4-6.2,0.6
		c-0.3,5.9-0.5,11.5-0.8,17.3c2-0.3,3.5-0.2,4.8-0.8c0.9-0.3,2-1.4,2.1-2.2C210.2,148.9,210.1,144.2,210.1,138.8z"/>
</g>
</svg>
