<?xml version="1.0" encoding="utf-8"?>
<!-- Generator: Adobe Illustrator 26.5.0, SVG Export Plug-In . SVG Version: 6.00 Build 0)  -->
<svg version="1.1" xmlns="http://www.w3.org/2000/svg" xmlns:xlink="http://www.w3.org/1999/xlink" x="0px" y="0px"
	 viewBox="0 0 400 400" style="enable-background:new 0 0 400 400;" xml:space="preserve">
<g id="Yeni_topluluk_00000177480945988461002640000011115764122273844646_">
</g>
<g id="Katman_6_xA0_Image_00000071533103967605492930000017030059087426177188_">
</g>
<g id="Katman_7_xA0_Image_00000163762742670854853930000001540360074941843090_">
	<g>
		<path d="M110.9,132.6c-2.3-1.1-4.8-2.2-7.2-3.4c-1-0.5-2-1.2-3-1.8c-0.3-0.2-0.6-0.3-0.9-0.4c-1.1-0.3-2.2-0.7-3.3-1
			c-0.7-0.2-1.5-0.4-2.1-0.8c-0.4-0.2-0.8-0.8-0.8-1.1c0.3-2-0.6-3.5-1.8-4.8c-0.7-0.8-1.7-1.4-2.6-2c-1.6-0.9-3.2-1.7-4.8-2.6
			c-1.2-0.7-2.4-1.4-3.7-2.1c-0.7-0.4-1.4-0.7-2.2-0.9c-1.7-0.6-2.5-1.6-2.5-3.4c0-4.2,0-8.3,0-12.5c0.6-0.1,1-0.2,1.4-0.3
			c0.4-1.2,1.8-2.2,3.2-2.3c0.8,0,1.5,0.1,2.3-0.1c1.5-0.4,2.9-0.9,4.3-1.3c0.2,0,0.3-0.1,0.5-0.1c1.5-0.3,3.1-0.6,4.6-0.9
			c1.4-0.4,2.8-0.9,4.1-1.3c0.1,0,0.2,0,0.2-0.1c1.6-0.3,3.3-0.6,4.9-1c1.4-0.4,2.8-0.9,4.2-1.3c0.1,0,0.2-0.1,0.3-0.1
			c1.6-0.3,3.3-0.6,4.9-1c1.4-0.4,2.8-0.9,4.3-1.4c0.2-0.1,0.5-0.1,0.7-0.1c1.5-0.3,3-0.4,4.5-0.9c2-0.7,4.1-1.2,6.1-1.6
			c1.3-0.3,2.6-0.9,3.9-1.3c0.1,0,0.2,0,0.2-0.1c1.6-0.3,3.2-0.6,4.8-1c1.4-0.3,2.7-0.9,4-1.3c0.2,0,0.3-0.1,0.5-0.1
			c1-0.3,2-0.5,3.1-0.8c1-0.3,2-0.5,3.1-0.7c1.6-0.4,3.2-0.6,4.7-1c1.5-0.4,2.9-0.9,4.4-1.4c0.1,0,0.2-0.1,0.3-0.1
			c1.6-0.3,3.2-0.6,4.7-1c1.4-0.4,2.7-0.9,4.1-1.3c0.1,0,0.1-0.1,0.2-0.1c1.6-0.3,3.1-0.6,4.6-1c1.5-0.4,2.9-0.9,4.4-1.3
			c0.1,0,0.2-0.1,0.3-0.1c1.6-0.3,3.2-0.6,4.8-1c1.5-0.4,2.9-0.9,4.4-1.4c0.1,0,0.2-0.1,0.3-0.1c1.6-0.3,3.1-0.5,4.7-0.9
			c1.5-0.4,2.9-0.9,4.3-1.4c0.1,0,0.2-0.1,0.3-0.1c1.6-0.3,3.2-0.5,4.8-0.9c1.4-0.4,2.7-0.9,4.1-1.4c0.1,0,0.2,0,0.2-0.1
			c1.5-0.3,3.1-0.6,4.6-0.9c1.5-0.4,3-1.1,4.6-1.3c1.8-0.3,3.7-0.6,5.5,0.3c0.9,0.4,1.8,0.7,2.7,1.1c1.6,0.7,3.2,1.5,4.7,2.2
			c0.7,0.3,1.3,0.7,2,0.9c1.7,0.4,3,1.3,4.4,2.3c0.6,0.4,1.3,0.6,1.9,0.9c0.8,0.3,1.8,0.4,2.4,1c0.5,0.5,1,0.6,1.7,0.8
			c0.9,0.2,1.6,0.3,2.6,0c1.6-0.5,2.9,0.5,4.3,1.1c1.4,0.6,2.7,1.3,4.1,2c0.8,0.4,1.5,0.9,2.3,1.3c0.8,0.4,1.7,0.7,2.6,1.1
			c1,0.5,2,1.1,3.1,1.5c0.8,0.4,1.8,0.6,2.6,0.9c1.7,0.7,3.3,1.4,4.9,2.1c1,0.4,2.1,0.7,3.1,1.1c0.9,0.4,1.8,0.8,2.7,1.3
			c0.2,0.1,0.4,0.2,0.6,0.3c1.2,0.3,2.3,0.5,3.5,1c1.7,0.6,3.3,1.5,5,2.1c0.9,0.4,1.9,0.6,2.8,0.9c0.7,0.3,1.5,0.5,2.2,0.9
			c1.5,0.7,3,1.5,4.5,2.2c0.7,0.3,1.5,0.6,2.3,0.8c1,0.3,2.1,0.6,3,1c0.9,0.4,1.8,1.1,2.7,1.4c1.1,0.3,1.8,0.8,2.3,1.6
			c0.5,0.7,0.8,1.4,1.1,2.1c0.8,1.5,2.3,2,3.7,2.7c1,0.5,1.9,1,2.9,1.5c0.6,0.3,1.3,0.6,2,0.8c1,0.4,2,0.7,3,1.1
			c1.3,0.6,2.5,1.2,3.7,1.8c1.3,0.7,2.5,1.4,3.8,2.1c0.7,0.4,1.4,0.8,2.1,1.2c0.6,0.3,1.1,0.7,1.6,1.1c0.3,0.2,0.5,0.7,0.5,1
			c0.3,3.2,0.5,6.4,1,9.6c0.2,1.1,0.6,2.3,0.7,3.5c0,0.7-0.2,1.1-1,1.3c-2.3,0.6-4.5,1.5-6.7,2.2c-1.3,0.4-2.6,0.6-3.9,1
			c-1.4,0.4-2.7,0.9-4,1.3c-0.2,0.1-0.4,0.2-0.6,0.2c-2.4,0.6-4.8,1.2-7.1,1.8c-2.7,0.8-5.4,1.6-8,2.4c-2.2,0.7-4.3,1.4-6.4,2.1
			c-1.2,0.4-2.4,0.7-3.8,1c0,1.4-0.2,2.8,0.1,4.2c0.2,1.1,0.9,2.1,1.4,3.1c0,0.1,0.1,0.2,0.1,0.3c0.2,1,0.6,2.1,0.6,3.1
			c0.1,0.8-0.1,1.6-0.3,2.3c-0.3,1.3-0.8,2.7-1,4c-0.1,0.6,0.5,1.3,0.6,1.9c0.4,2.7,1.4,5.4,0.9,8.2c-0.1,0.9-0.3,1.7-0.6,2.5
			c-0.5,1.4-0.8,3.2,0.3,4.6c0.2,0.2,0.2,0.5,0.2,0.8c0,2.1,0.2,4.2,0,6.2c-0.1,1.2-0.8,2.3-1.3,3.4c-0.3,0.6-0.1,2.7,0.2,3.3
			c0.7,1.4,1.4,2.8,1.3,4.4c-0.1,1.8-0.1,3.5-0.2,5.3c0,0.5-0.3,0.9-0.5,1.4c-0.1,0.3-0.3,0.7-0.2,1c0,1.4-0.1,2.8,0.6,4.3
			c0.5,1,0.1,2.3,0.4,3.4c0.5,1.6,0,3.1-0.5,4.4c-0.5,1.3-0.7,2.6-0.5,3.9c0.2,1.4,0.9,2.8,1.3,4.2c0.1,0.3,0.2,0.7,0.2,1.1
			c0,2.3,0.1,4.6,0,6.8c-0.1,1.2-0.5,2.5-0.8,3.7c0,0.2,0,0.4,0,0.3c1.8,1.2,3.3,2.4,5,3.5c1.2,0.7,2.5,1.3,3.7,1.9
			c1.2,0.6,2.3,1.2,3.5,1.9c0.5,0.3,1,0.6,1.5,1c1,0.8,0.8,2,0.8,3.1c-0.1,1.7,0.3,2.3,1.8,2.8c0.4,0.2,0.7,0.5,1.1,0.7
			c1.5,1,3,2.2,4.6,3c1.8,0.9,3.3,2.1,5,3.2c2.3,1.5,4.8,2.6,7.1,4.2c1.2,0.8,2,1.9,2.3,3.6c0.3,2.7,0.6,5.3,0.7,8
			c0,0.4,0.4,0.7,0.5,1.1c0.2,1-1.2,2.9-2.2,3.2c-1.2,0.4-2.4,1-3.6,1.4c-0.9,0.3-1.7,0.6-2.6,0.9c-1.3,0.5-2.5,1.1-3.8,1.6
			c-0.8,0.3-1.7,0.6-2.5,0.9c-1,0.3-2.1,0.5-3.1,0.9c-1.6,0.6-3.1,1.3-4.7,2c-0.3,0.1-0.5,0.2-0.8,0.3c-1.1,0.4-2.3,0.9-3.4,1.3
			c-1.1,0.4-2.3,0.7-3.4,1.1c-1,0.3-1.9,0.7-2.9,1c-1.3,0.5-2.5,0.9-3.8,1.4c-0.8,0.3-1.6,0.8-2.4,1.1c-0.2,0.1-0.4,0.2-0.6,0.3
			c-1.3,0.5-2.5,1-3.8,1.5c-0.9,0.3-1.7,0.6-2.6,0.9c-1.1,0.3-2.3,0.6-3.4,1c-0.6,0.2-1.1,0.5-1.6,0.7c-1,0.4-2,0.9-3.1,1.3
			c-0.9,0.4-1.8,0.7-2.7,1c-1.2,0.5-2.4,1-3.6,1.4c-0.7,0.3-1.4,0.6-2.1,0.8c-1.1,0.4-2.2,0.6-3.3,1c-1,0.4-1.8,0.9-2.8,1.3
			c-0.9,0.4-1.9,0.7-2.8,1c-1.2,0.5-2.4,1-3.7,1.5c-0.8,0.3-1.7,0.6-2.6,0.9c-2.4,0.8-4.9,1.7-7.3,2.6c-2.1,0.8-4.2,1.6-6.3,2.4
			c-1.8,0.7-3.6,1.5-5.4,2.2c-1,0.4-2,0.6-3,0.9c-0.9,0.3-1.8,0.8-2.7,1.2c-0.9,0.4-1.8,0.8-2.8,1.1c-1,0.3-2.1,0.5-3.1,0.9
			c-1,0.4-2,0.9-3,1.4c-0.8,0.4-1.7,0.6-2.6,0.9c-1.2,0.5-2.4,1-3.7,1.5c-1,0.4-2.1,0.6-3.1,1c-1.1,0.4-2.2,0.9-3.3,1.3
			c-0.7,0.3-1.4,0.6-2.1,0.9c-1,0.4-2.1,0.6-3.2,1c-1,0.4-1.9,1-3,1.4c-0.8,0.4-1.7,0.6-2.6,0.9c-0.5,0.2-0.9,0.5-1.4,0.8
			c-1,0.6-1.8,0.3-2.7-0.3c-1.3-1-2.7-1.9-4-2.8c-1.8-1.3-3.5-2.6-5.3-3.8c-1-0.7-2.2-1.1-3.3-1.8c-1-0.6-2-1.4-3-2.1
			c-0.7-0.4-1.4-0.7-2.1-1.1c-1.7-1-3.4-2.1-5.1-3c-1-0.5-2-0.8-3.1-1.1c-0.5-0.1-1-0.1-1.6,0c-1.9,0.4-3.2-0.9-4.7-1.7
			c-1-0.6-2-1.4-2.9-2.2c-1.3-1-2.5-2.1-3.8-3.1c-1.1-0.9-2.2-1.7-3.3-2.5c-1.8-1.4-3.6-2.8-5.4-4.3c-1.9-1.5-3.8-3.1-5.8-4.7
			c-0.9-0.8-1.8-1.6-2.8-2.3c-1-0.8-2-1.6-2.9-2.3c-1.3-1-2.5-2.1-3.8-3.1c-1.3-1-2.8-1.8-4.2-2.7c-0.8-0.5-1.4-1.3-2.2-1.8
			c-1.1-0.8-2.3-1.4-3.4-2.1c-1.6-1.1-3.3-2.2-4.9-3.3c-0.1-0.1-0.2-0.2-0.2-0.4c-0.3-0.9-0.7-1.9-0.8-2.8c-0.1-1.5-1.1-2.2-2.1-3
			c-1.8-1.4-3.6-2.7-5.5-3.9c-1.1-0.7-2.3-1.2-3.3-1.9c-1.3-0.9-2.5-1.9-3.8-2.8c-0.5-0.4-0.9-0.8-1.5-1.1c-0.9-0.5-0.9-1.3-0.9-2.1
			c0.1-1.7-0.1-3.5,0.3-5.1c0.5-2.3,0.7-4.5,0.7-6.8c0-0.3,0.4-0.8,0.7-1c0.9-0.4,1.9-0.6,2.9-1c1.2-0.4,2.4-0.9,3.6-1.4
			c0.7-0.3,1.4-0.6,2.1-0.8c1.1-0.4,2.2-0.6,3.3-1c1.1-0.4,2.2-1,3.4-1.4c0.7-0.3,1.4-0.4,2.1-0.6c1.1-0.4,2.2-0.7,3.3-1.1
			c1.1-0.4,2.3-0.9,3.4-1.4c0.3-0.2,0.5-0.8,0.6-1.3c0.1-1.1-0.1-2.3,0.1-3.3c0.3-1.3,1-2.5,1.3-3.8c0.2-0.9,0.4-1.9,0.3-2.8
			c-0.1-1.8-0.6-3.6-1.5-5.2c-0.1-0.2-0.1-0.5-0.2-0.8c0-2.3-0.1-4.6-0.1-6.9c0-0.7,0.5-1.3,0.7-2c0.2-0.7,0.6-1.4-0.2-2
			c-0.1-0.1-0.2-0.1-0.2-0.2c-0.6-2.5-1.4-5-0.9-7.5c0.2-1.1,0.5-2.1,0.8-3.2c0.3-1.4-0.3-2.7-1.1-3.8c-1.1-1.6-1.7-3.4-1.2-5.2
			c0.5-2,1.3-3.9,2-5.8c0.1-0.2,0.1-0.5,0-0.7c-0.6-1.3-1.3-2.6-2-3.9c-0.1-0.1-0.2-0.3-0.2-0.4c-0.3-2-0.8-4-0.7-6
			c0.1-1.6,0.8-3.1,1.2-4.7c0.1-0.4,0.3-1.1,0.1-1.4c-0.9-1.4-1.4-2.9-1.6-4.6c-0.1-1-0.7-2.1-0.6-3c0.1-1.5,0.6-2.9,1.1-4.4
			c0.2-0.7,0.5-1.3-0.2-1.9c-0.1-0.1-0.2-0.2-0.2-0.3c-0.3-1.5-0.6-2.9-0.8-4.4c-0.1-1.5-0.1-3,0-4.6
			C110.4,133.9,110.7,133.4,110.9,132.6z M104.9,234.8c2.3,0.5,4.7,0.6,6.9,1.6c2.1,0.9,3.1,3,1.5,4.6c-1.4,1.4-3,2.7-5.2,2.7
			c-0.4,0-0.7,0-1,0.2c-1.6,0.8-3.2,0.8-4.8,0.1c-0.6-0.3-1.4-0.1-2.2-0.2c0,0.1-0.1,0.3-0.1,0.4c2.1,1.4,4.2,2.9,6.3,4.3
			c1.5,1,2.8,2.2,2.5,4.3c-0.1,0.6-0.2,1.3,0,1.9c0.3,0.9,0.7,1.8,1.3,2.6c0.8,1.1,1.8,2,2.8,3c0.9,0.9,1.9,1.8,2.9,2.5
			c1.8,1.3,3.6,2.5,5.4,3.7c0.4,0.3,0.8,0.6,1.2,0.9c1.2,0.9,2.3,1.9,3.6,2.6c1.6,1,3.2,1.7,4.8,2.7c1.6,1,3.2,2.1,4.8,3.2
			c2.2,1.5,4.4,3.1,6.6,4.6c0.6,0.4,1.2,0.8,1.8,1.3c1.2,0.9,2.4,1.8,3.6,2.7c1.4,1,2.9,1.8,4.2,2.9c1.4,1.2,2.8,2.4,4.9,2
			c0.9-0.2,1.9,0,2.9,0c0.3,0,0.7,0,0.9,0.1c1.4,0.8,2.8,1.5,4.1,2.4c1.6,1,3.1,2.1,4.7,3.1c0.9,0.7,1.8,1.4,2.8,2.1
			c1.3,0.9,2.6,1.8,3.9,2.7c1.4,1,2.8,1.9,4.1,2.9c1.1,0.8,2.8,1.3,3.7,1c1.4-0.6,2.9-1,4.3-1.5c0.1-0.1,0.3,0,0.5-0.1
			c1.1-0.5,2.1-1,3.2-1.4c1-0.4,2.2-0.6,3.2-0.9c0.8-0.3,1.7-0.6,2.5-0.9c1-0.4,2.1-1,3.1-1.4c1.1-0.4,2.2-0.6,3.3-1
			c2.3-0.8,4.5-1.6,6.8-2.4c0.1-0.1,0.3-0.1,0.4-0.2c1-0.4,2.1-0.9,3.1-1.3c1-0.4,2.1-0.6,3.1-0.9c0.8-0.3,1.7-0.6,2.5-0.9
			c1.2-0.5,2.3-1,3.5-1.4c1.1-0.4,2.3-0.7,3.4-1.1c1.2-0.4,2.4-0.9,3.6-1.3c0.2-0.1,0.4-0.1,0.6-0.1c1.1-0.5,2.1-1,3.2-1.4
			c1.4-0.5,2.8-1,4.2-1.5c1-0.3,2-0.6,3-1c1.1-0.3,2.2-0.7,3.2-1c1.2-0.4,2.4-0.9,3.6-1.4c1-0.4,2-0.7,2.9-1
			c1.2-0.4,2.3-0.9,3.5-1.3c1.1-0.4,2.3-0.7,3.4-1.1c1.7-0.6,3.3-1.4,5-2c1.2-0.4,2.4-0.7,3.7-1c0.1,0,0.2-0.1,0.3-0.1
			c1.1-0.5,2.3-0.9,3.4-1.4c1-0.4,2.1-0.7,3.1-1c0.8-0.2,1.5-0.5,2.3-0.8c1.1-0.4,2.1-1,3.2-1.4c1-0.4,2.2-0.6,3.2-0.9
			c1.9-0.7,3.7-1.5,5.5-2.2c1.4-0.6,2.9-1,4.3-1.6c0.8-0.3,1.6-0.6,2.4-0.9c1.2-0.3,2.3-0.6,3.5-0.9c0.1,0,0.2-0.1,0.3-0.2
			c1.1-0.5,2.2-0.9,3.3-1.4c1-0.4,2.1-0.6,3.1-1c1.8-0.7,3.5-1.5,5.3-2.2c1.8-0.7,3.8-1.1,5.6-1.7c1.1-0.3,1.3-1.1,0.4-1.7
			c-1.4-1-2.8-2-4.3-2.9c-0.1-0.1-0.6,0.2-0.6,0.4c-0.3,0.6-0.4,1.2-0.7,1.8c-1.2,2.6-3.5,3.5-6,4.1c-1,0.2-2,0.1-3,0.1
			c-2.4,0-4.8,0.1-6.8-1.6c-1-0.9-1.8-3.6-1-4.7c1.1-1.5,2.6-2.7,4.3-3.3c1.7-0.6,3.7-0.6,5.5-0.9c0.4-0.1,0.8-0.2,1.3-0.3
			c-0.6-0.5-1.1-0.5-1.6-0.8c-1.1-0.7-2.1-1.6-3.3-2.2c-2-0.9-3.2-2.5-3.2-4.8c0-0.8,0.1-1.6-0.7-2.1c-1-0.6-1.9-1.3-2.9-1.8
			c-0.8-0.4-1.7-0.6-2.5-0.9c-0.7-0.3-1.3-0.7-1.9-1.1c-1.3-0.9-2.5-1.8-3.9-2.9c0,0.7,0,1.2,0,1.7c-0.1,1.3-0.1,2.7-0.4,4
			c-0.2,1.1-0.8,2.1-1.2,3.2c-0.1,0.3-0.1,0.7,0,0.9c1,1.2,0.5,2.5,0.6,3.8c0,0.3-0.1,0.6-0.2,0.9c-0.4,0.8-1.1,1.5-1.2,2.3
			c-0.3,1.9-1.2,3.5-2.5,4.9c-2,2.1-4,4.2-6,6.3c-0.8,0.7-1.8,1.2-2.5,1.9c-1.5,1.6-3.4,2.6-5.1,3.8c-0.9,0.6-1.9,1.2-2.9,1.8
			c-1.5,0.9-3,2-4.6,2.8c-1.3,0.7-2.7,1.2-4,1.8c-0.6,0.3-1.2,0.6-1.8,0.9c-0.9,0.4-1.8,0.9-2.8,1.3c-0.9,0.4-1.8,0.7-2.7,1.1
			c-1.1,0.4-2.2,0.9-3.4,1.3c-0.2,0.1-0.4,0-0.6,0.1c-1,0.5-2,1-3.1,1.4c-1.2,0.4-2.5,0.6-3.8,0.9c-0.2,0-0.3,0.1-0.5,0.1
			c-1.2,0.5-2.4,1-3.7,1.4c-1.6,0.4-3.2,0.6-4.8,0.9c-0.1,0-0.2,0-0.2,0c-1.6,0.5-3.1,1.1-4.8,1.4c-1.3,0.3-2.6,0.2-4,0.7
			c-1.5,0.5-3.3,0.4-5,0.8c-2,0.5-4,0.4-6.1,0.8c-3.4,0.6-7,0.5-10.5,0.8c-4.9,0.3-9.9,0.6-14.8-0.3c-3.8-0.7-7.7-0.1-11.5-1
			c-1.2-0.3-2.4-0.2-3.6-0.4c-1.9-0.4-3.9-0.8-5.8-1.2c-1.7-0.3-3.4-0.6-5.1-1c-1-0.2-2-0.5-3-0.8c-1.2-0.4-2.3-0.9-3.5-1.3
			c-1.2-0.4-2.4-0.7-3.7-1c-0.1,0-0.2-0.1-0.3-0.1c-0.9-0.4-1.7-0.9-2.6-1.3c-1.6-0.7-3.2-1.3-4.7-2.1c-1.5-0.8-3-1.7-4.4-2.6
			c-1.4-0.9-3.1-1.6-4.3-2.7c-2.1-2-4.5-3.7-6.3-6c-1.7-2.2-3.3-4.3-4.4-6.8c-0.3-0.7-0.6-1.3-0.8-2c-0.5-1.5-1.1-3.1-1.4-4.6
			c-0.2-1,0-2,0-3c0-0.4-0.1-0.9-0.3-1.2c-0.6-1.2-1.4-2.4-2-3.6c-0.2-0.5-0.1-1.2,0.1-1.6c0.4-1,1-1.8,1.5-2.7
			c0.3-0.6,0.7-1.3,0.7-1.9c-0.1-1.2-0.4-2.5-1-3.6c-0.3-0.6-0.9-1.4-2-0.8c-1,0.6-2.1,0.9-3.1,1.3c-1.1,0.4-2.2,0.6-3.4,1
			c-0.7,0.2-1.3,0.4-2,0.7C105.1,234.3,105,234.6,104.9,234.8c-0.7,0.1-1.4,0.2-2.1,0.3c0,0.1,0,0.2,0.1,0.3
			C103.6,235.5,104.5,236.1,104.9,234.8z M96.1,110.7c0.4,0.1,0.9,0.1,1.2,0.4c1.2,0.7,2.3,1.5,3.7,1.4c0.1,0,0.2,0,0.3,0.1
			c1.5,0.8,3,1.6,4.5,2.4c0.7,0.3,1.4,0.6,2,1c0.8,0.4,1.5,0.9,2.2,1.3c0.8,0.4,1.6,0.6,2.4,1c1.5,0.8,2.9,1.7,4.4,2.4
			c0.6,0.3,1.3,0.5,1.9,0.8c1,0.6,2,1.5,3.1,2.1c1.5,0.9,3.2,1.6,4.7,2.4c2,1.1,3.9,2.1,5.8,3.3c1.6,1,3.2,2.1,4.8,3.2
			c0.3,0.2,0.5,0.5,0.7,0.7c1.1,0.7,2.3,1.2,3.4,1.9c1.1,0.8,2.1,1.8,3.2,2.6c1.6,1.3,3.3,1.6,5.3,0.6c0.5-0.2,1.2-0.1,1.8,0
			c1.5,0.4,2.9,0.9,4.4,1.3c1,0.3,2,0.6,2.8,1.1c1.6,0.9,3.1,2,4.7,2.9c1.6,0.9,3.3,1.7,4.9,2.7c1.6,1,3,2.3,4.6,3.4
			c1.2,0.9,2.5,1.6,4,1.1c1-0.3,2-0.6,3-0.9c2.1-0.7,4.1-1.5,6.2-2.1c1.8-0.6,3.6-1.1,5.4-1.6c1.8-0.5,3.7-1.1,5.5-1.6
			c1.8-0.5,3.7-1.1,5.5-1.6c1.8-0.5,3.6-1,5.3-1.6c1.8-0.5,3.6-1,5.4-1.5c1.8-0.5,3.6-1.1,5.5-1.6c1.4-0.4,2.9-0.7,4.3-1
			c0.2,0,0.4-0.1,0.6-0.2c1.3-0.4,2.6-0.9,3.9-1.3c1.3-0.4,2.7-0.6,4-1c1.7-0.5,3.3-1,5-1.5c0.2-0.1,0.4-0.1,0.6-0.1
			c1.6-0.5,3.2-1,4.9-1.4c0.2-0.1,0.4,0,0.6-0.1c1.2-0.4,2.3-1,3.5-1.3c2.3-0.6,4.6-1.2,6.8-1.8c0.1,0,0.2-0.1,0.3-0.1
			c1.3-0.5,2.7-1,4-1.4c1.3-0.4,2.6-0.6,3.9-0.9c0.1,0,0.1-0.1,0.2-0.1c1.3-0.5,2.6-1,4-1.4c1.3-0.4,2.6-0.6,3.9-0.9
			c0.1,0,0.1-0.1,0.2-0.1c1.4-0.5,2.7-0.9,4.1-1.4c1.3-0.4,2.6-0.6,3.9-1c1.3-0.4,2.6-1,3.9-1.4c1.4-0.4,2.7-0.6,4.1-1
			c0.2,0,0.4-0.2,0.6-0.2c1.2-0.4,2.4-0.9,3.7-1.2c1.3-0.4,2.7-0.6,4.1-1c1.8-0.5,3.5-1,5.2-1.5c0.2,0,0.3-0.1,0.5-0.1
			c1.2-0.5,2.3-1,3.5-1.4c1.4-0.4,2.8-0.6,4.2-0.9c0.2,0,0.3-0.1,0.5-0.1c1.3-0.5,2.5-1,3.8-1.4c1.3-0.4,2.7-0.6,4-1
			c0.7-0.2,1.4-0.7,2.2-1.1c-1.4-0.7-2.7-1.3-4-2c-0.7-0.4-1.4-1-2.1-1.4c-0.9-0.4-1.8-0.6-2.7-1c-2.1-1-4.1-2-6.2-3
			c-1.2-0.6-2.6-1-3.8-1.7c-0.8-0.5-1.9-1.3-2-2.1c-0.4-2.1-1.8-2.9-3.5-3.6c-0.9-0.4-1.8-0.6-2.7-1c-1.2-0.5-2.4-0.9-3.6-1.4
			c-0.2-0.1-0.5-0.1-0.7-0.2c-1.4-0.7-2.8-1.4-4.3-2c-0.9-0.4-1.9-0.6-2.9-1c-1.3-0.5-2.5-1.1-3.8-1.6c-0.9-0.3-1.8-0.5-2.7-0.9
			c-1.9-0.7-3.7-1.5-5.5-2.2c-0.6-0.2-1.2-0.6-1.8-0.8c-1-0.4-2.1-0.6-3.1-1c-0.6-0.2-1.2-0.6-1.9-0.8c-1.6-0.7-3.1-1.4-4.7-2.1
			c-0.9-0.4-2-0.6-2.9-1c-1.7-0.7-3.3-1.5-5-2.3c-1.3-0.6-2.6-1.1-3.8-1.8c-2.3-1.4-4.6-2.6-7.5-2.1c-0.2,0-0.4,0.1-0.6,0
			c-1.1-0.3-2.3-0.6-3.3-1.1c-0.8-0.3-1.5-0.9-2.3-1.3c-0.8-0.5-1.7-0.9-2.6-1.4c-1.3-0.6-2.6-1.3-3.9-1.8c-0.9-0.4-1.7-0.7-2.6-1.1
			c-0.7-0.3-1.4-0.5-2-0.7c-0.2,1.3-0.1,2.4-0.6,3.2c-0.7,1.2-2.1,2-3.4,2.4c-1.6,0.5-3.4,0.7-5.1,0.9c-2.1,0.2-4.1,0-6.1-0.6
			c-1.5-0.4-2-0.9-2-2.4c0-1.4,0.7-2.2,1.7-3c-0.5-0.1-1-0.2-1.4-0.1c-1.4,0.4-2.7,1-4.1,1.4c-2.1,0.6-4.2,1.1-6.3,1.6
			c-2.1,0.5-4.2,0.9-6.2,1.6c-1.4,0.5-3,0.6-4.6,0.9c-0.2,0-0.3,0-0.5,0.1c-1.3,0.5-2.6,1-3.9,1.4c-1,0.3-2,0.5-3,0.8
			c-2.1,0.5-4.3,1.1-6.4,1.6c-1.6,0.4-3.2,0.6-4.7,0.9c-0.2,0-0.4,0.1-0.6,0.2c-1.5,0.4-2.9,1-4.4,1.3c-1.6,0.4-3.2,0.6-4.8,1
			c-0.1,0-0.2,0.1-0.3,0.2c-1.5,0.4-2.9,0.9-4.4,1.3c-1.5,0.4-3.1,0.7-4.7,1c-0.8,0.2-1.6,0.4-2.5,0.6c-0.2,0-0.3,0-0.5,0.1
			c-1.5,0.5-3,1-4.5,1.4c-1.5,0.4-3.1,0.6-4.7,0.9c-0.1,0-0.2,0-0.2,0.1c-1.5,0.5-2.9,1-4.4,1.4c-1.6,0.4-3.2,0.6-4.8,1
			c-0.1,0-0.2,0.1-0.3,0.1c-1.5,0.5-3.1,1-4.6,1.4c-1.4,0.4-2.8,0.6-4.2,0.9c0,0-0.1,0-0.1,0c-1.5,0.5-3,1.1-4.5,1.5
			c-1.5,0.4-3.1,0.6-4.7,0.9c-0.1,0-0.2,0-0.2,0c-1.3,1-2.9,0.8-4.4,1.3c-1.4,0.6-3,0.6-4.5,1c-1,0.2-2.1,0.5-3.1,0.8
			c-0.1,0-0.3,0.2-0.5,0.5c1.9,0.4,3.6,0.8,5.3,1c1.4,0.1,2.5,0.8,3.7,1.4c0.9,0.4,0.9,1,0.8,1.7c0,1.1-1.5,2.5-2.7,2.6
			c-2.9,0-5.8,0.5-8.6-0.6c-1.2-0.5-2.1-1-2.9-1.9c-0.2-0.2-0.3-0.9-0.1-1.1c0.9-0.9,1.6-2.3,3.2-2.1c0.2,0,0.4-0.2,0.6-0.3
			c0-0.1-0.1-0.2-0.1-0.4c-0.8,0.1-1.5,0-2.3,0.2c-1.6,0.4-3.1,0.9-4.6,1.3c-1.3,0.4-2.6,0.7-3.9,1c0,0.1-0.1,0.3-0.1,0.4
			c0.8,0.3,1.6,0.7,2.3,1c0.1,0.1,0.3,0.1,0.5,0.1c1.3,0.7,2.5,1.5,3.9,2.2c0.8,0.4,1.8,0.5,2.6,1c1.1,0.7,2.1,1.5,3.1,2.3
			c0.6,0.4,1.3,0.8,1.7,1.3C95,106.6,95.8,108.6,96.1,110.7z M280.7,201c0.4,1.5-0.6,2-1.2,2.6c-1.4,1.3-2.9,2.6-4.4,3.8
			c-1.1,0.9-2.3,1.8-3.5,2.6c-1.6,0.9-3.3,1.7-5,2.6c-0.6,0.3-1.2,0.7-1.8,1c-0.8,0.4-1.5,0.9-2.3,1.3c-1.1,0.5-2.2,1-3.3,1.4
			c-1,0.4-2,0.7-2.9,1c-1,0.3-2,0.7-3,1c-1.1,0.4-2.2,0.9-3.3,1.3c-1.3,0.4-2.6,0.6-3.9,0.9c-0.1,0-0.2,0-0.2,0.1
			c-1.4,0.5-2.8,1.1-4.2,1.4c-1.8,0.4-3.7,0.6-5.5,0.9c-0.1,0-0.2,0-0.2,0.1c-1.9,0.5-3.8,1-5.7,1.4c-1.5,0.3-3.1,0.2-4.6,0.7
			c-1.7,0.6-3.7,0.3-5.6,0.8c-2.4,0.6-4.9,0.6-7.3,0.8c-4,0.4-8,0-12,0.7c-3.8,0.6-7.8,0.2-11.7,0.1c-4.7-0.1-9.3-0.5-14-0.8
			c-0.5,0-1-0.1-1.4-0.2c-3-0.4-6-0.9-9-1.3c-1.5-0.2-2.9-0.1-4.4-0.7c-1.8-0.7-3.8-0.7-5.7-1c-1.7-0.3-3.4-0.4-4.9-1
			c-0.9-0.4-1.8-0.5-2.8-0.7c-1.1-0.2-2.2-0.6-3.3-0.9c-1.4-0.5-2.8-1-4.2-1.5c-1-0.3-2-0.6-2.9-1.1c-1.4-0.6-2.7-1.4-4.1-2
			c-1.3-0.6-2.8-1.1-4.1-1.8c-1.6-0.9-3.1-2.1-4.7-3.1c-2.3-1.4-4.1-3.3-5.9-5.3c-0.1-0.1-0.3-0.3-0.4-0.3c-0.1,0-0.4,0.2-0.4,0.4
			c0.1,1.6,0,3.3,0.3,4.9c0.2,1.4,0.9,2.8,1.3,4.2c0.3,1,0,2.3,0.5,3.1c0.8,1.3,2,2.4,3.2,3.4c1.3,1.1,2.8,2,4.2,3
			c1.1,0.7,2.3,1.3,3.5,2c0.7,0.4,1.4,0.7,2.1,1.1c1.5,0.7,2.9,1.4,4.4,2.1c0.9,0.4,1.8,0.7,2.7,1c1.1,0.4,2.2,0.9,3.3,1.4
			c1.1,0.4,2.2,0.7,3.3,1.1c1.3,0.4,2.5,1,3.9,1.3c1.6,0.4,3.2,0.7,4.8,1c0.1,0,0.2,0.1,0.3,0.1c1.5,0.4,2.9,1,4.4,1.3
			c1.4,0.3,2.8,0.2,4.2,0.7c1.6,0.6,3.5,0.7,5.2,0.9c1.9,0.2,3.9,0.2,5.8,0.7c2.7,0.7,5.6,0.6,8.4,0.8c2,0.1,4.1,0.2,6.1,0.1
			c7.6-0.2,15.2,0.8,22.8-0.7c4,0.4,7.8-0.7,11.8-0.9c2.2-0.1,4.4-0.6,6.5-0.9c0.1,0,0.2,0,0.2,0c2-0.5,3.9-1,5.9-1.4
			c1.7-0.4,3.4-0.6,5.2-0.9c0.1,0,0.2-0.1,0.3-0.1c1.5-0.5,2.9-0.9,4.4-1.3c1.4-0.4,2.7-0.6,4.1-1c0.1,0,0.2-0.1,0.3-0.2
			c1.1-0.4,2.2-0.9,3.4-1.3c1.1-0.4,2.3-0.7,3.4-1c0.6-0.2,1.3-0.4,1.9-0.7c0.9-0.4,1.8-1,2.8-1.4c1.4-0.6,3-1.1,4.4-1.8
			c1.3-0.6,2.5-1.5,3.8-2.3c1.4-0.9,2.9-1.6,4.3-2.6c1.6-1.2,3-2.5,4.5-3.8c0.9-0.8,1.9-1.6,2.7-2.6c0.3-0.4,0.5-1,0.4-1.8
			c-0.3-1.9-0.4-3.7,0.3-5.7c0.7-1.9,0.2-4.1,0.2-6.2c0-0.4,0-0.8-0.2-1.2c-1-2.2-0.8-4.4-0.1-6.6c0.2-0.7,0.3-1.8-0.1-2.2
			c-0.5-0.5-1.4-0.4-2.1,0.3c-0.5,0.5-1.2,0.7-1.9,1.1c-0.6,0.3-1.3,0.6-1.9,1c-1.3,0.7-2.5,1.5-3.7,2.2c-0.6,0.4-1.3,0.7-2,1.1
			c-0.7,0.4-1.4,0.9-2.1,1.3c-0.8,0.4-1.7,0.6-2.5,1c-0.6,0.2-1.1,0.5-1.7,0.8c-0.9,0.5-1.9,1-2.8,1.4c-0.8,0.4-1.8,0.6-2.6,1
			c-1.5,0.7-3,1.5-4.6,2.2c-1.3,0.6-2.7,1-4.1,1.5c-1.6,0.6-3.3,1.2-5,1.6c-1.3,0.4-2.7,0.6-4,0.9c-0.2,0-0.4,0.1-0.6,0.2
			c-1.2,0.4-2.5,1-3.7,1.3c-1.8,0.4-3.6,0.6-5.4,1c-0.1,0-0.2,0.1-0.3,0.1c-1.5,0.5-3,1.1-4.6,1.3c-1.7,0.3-3.4,0.2-5.1,0.7
			c-1.7,0.6-3.6,0.3-5.4,0.8c-2.7,0.6-5.5,0.3-8.3,0.8c-3.5,0.5-7.1,0.2-10.7,0.2c-4.3,0-8.6,0-12.9-0.7c-3.2-0.5-6.5-0.7-9.7-1
			c-0.2,0-0.3-0.1-0.5-0.1c-1.9-0.4-3.8-0.9-5.8-1.3c-1.8-0.4-3.5-0.6-5.3-0.9c-0.1,0-0.1-0.1-0.2-0.1c-1.5-0.5-2.9-1-4.4-1.4
			c-1.3-0.4-2.7-0.6-4.1-1c-0.1,0-0.1-0.1-0.2-0.1c-1-0.4-2.1-1-3.1-1.3c-1.1-0.4-2.2-0.6-3.3-0.9c-0.8-0.3-1.7-0.6-2.5-0.9
			c-0.9-0.4-1.8-0.9-2.7-1.3c-0.9-0.4-1.9-0.6-2.8-1c-0.6-0.3-1.2-0.6-1.8-1c-0.8-0.4-1.5-0.9-2.3-1.3c-0.9-0.5-1.8-0.9-2.7-1.4
			c-1.3-0.6-2.6-1.3-3.9-1.9c-1-0.6-2.1-1.1-3.1-1.8c-1.1-0.7-2.1-1.4-3.1-2.1c-1.4-0.9-2.8-1.6-4.1-2.7c-0.6-0.5-1-0.6-1.4-0.5
			c-0.3,0.8-0.7,1.4-0.8,2.1c-0.1,1.4,0,2.8,0.2,4.2c0.1,1.2,1.4,2,1.2,3.4c-0.1,0.9-0.2,1.9,0.7,2.8c0.8,0.8,1.5,1.8,2.2,2.7
			c1.5,1.8,3.5,3,5.4,4.3c1.6,1,3.1,2.1,4.7,2.9c1.9,1,3.9,1.7,5.9,2.6c1.8,0.8,3.6,1.6,5.4,2.3c1.2,0.4,2.5,0.6,3.8,1
			c0.2,0,0.3,0.1,0.5,0.1c1.2,0.4,2.4,1,3.7,1.3c1.8,0.4,3.7,0.6,5.5,1c1.8,0.4,3.6,1,5.4,1.3c1.7,0.3,3.4,0.2,5.1,0.7
			c2,0.6,4.2,0.7,6.4,0.8c4.1,0.3,8.2,0.7,12.2,0.8c7.8,0.2,15.7,0.9,23.6-0.5c1-0.2,2.1,0,3.1-0.1c2.9-0.2,5.7-0.5,8.6-0.8
			c1.2-0.1,2.4-0.1,3.6-0.3c2.6-0.4,5.1-0.9,7.7-1.4c1.8-0.3,3.6-0.6,5.4-0.9c0,0,0.1,0,0.1,0c1.6-0.5,3.2-1,4.9-1.4
			c1.6-0.4,3.2-0.7,4.8-1c0.2,0,0.4-0.1,0.6-0.2c1.2-0.4,2.3-0.9,3.5-1.2c1.2-0.4,2.5-0.6,3.8-0.9c0.9-0.2,1.7-0.5,2.5-0.9
			c1.1-0.4,2.2-1,3.3-1.4c0.9-0.4,1.9-0.6,2.7-1c1.9-1,3.8-2,5.8-3c1.1-0.6,2.3-1.1,3.3-1.8c1.4-0.9,2.8-2,4.1-3.1
			c1.2-1,2.2-2,3.3-3C279.6,201.8,280.1,201.5,280.7,201z M282.1,216.6c-1.5,1.4-2.9,2.7-4.4,4c-0.9,0.8-1.9,1.5-2.8,2.3
			c-0.6,0.5-1.2,1-1.8,1.5c-1.1,0.7-2.3,1.3-3.4,1.9c-1.3,0.7-2.6,1.5-4,2.2c-1.3,0.6-2.6,1.1-3.9,1.7c-0.6,0.3-1.2,0.6-1.8,0.9
			c-1,0.5-2,1-3.1,1.4c-1,0.4-2.1,0.6-3.2,1c-1.5,0.5-2.9,1-4.4,1.5c-0.1,0.1-0.3,0.1-0.5,0.1c-1.2,0.5-2.4,1-3.7,1.4
			c-1.5,0.4-3,0.6-4.5,0.9c-0.1,0-0.2,0.1-0.3,0.1c-1.6,0.5-3.2,1-4.9,1.4c-2.2,0.4-4.4,0.6-6.6,0.9c-0.1,0-0.2,0.1-0.3,0.1
			c-2.1,0.5-4.3,1.1-6.4,1.4c-2.3,0.3-4.7,0.2-7,0.7c-3.2,0.7-6.6,0.7-10,0.8c-2.2,0.1-4.5,0.1-6.7,0.1c-5.6,0-11.2,0.2-16.8-0.7
			c-2.6-0.4-5.2,0.1-7.9-0.7c-2.3-0.7-4.9-0.2-7.4-0.9c-2.3-0.6-4.9-0.4-7.2-1.1c-1.3-0.4-2.6-0.5-3.8-0.7c-0.2,0-0.4-0.1-0.6-0.2
			c-1.4-0.4-2.9-0.9-4.3-1.3c-1.4-0.4-2.9-0.7-4.3-1c-0.7-0.2-1.4-0.5-2.1-0.7c-1-0.3-2.1-0.6-3.1-1c-1.1-0.4-2.1-1-3.2-1.4
			c-0.9-0.4-1.9-0.6-2.8-1c-1.7-0.7-3.3-1.5-4.9-2.3c-0.7-0.3-1.3-0.7-1.9-1.1c-1-0.6-1.9-1.3-2.9-2c-1.1-0.7-2.3-1.2-3.3-2
			c-1.4-1.1-2.6-2.3-3.7-3.4c-1.4,0.6-1.3,1.8-1.3,3c0,0.6,0.1,1.3,0,1.9c-0.4,2.2,1,3.7,2.2,5.2c1.8,2.2,3.8,4.1,5.8,6
			c1.6,1.5,3.3,3.1,5.2,4.3c2,1.3,4.3,2.3,6.5,3.5c0.6,0.3,1.2,0.6,1.8,1c0.8,0.4,1.6,1,2.4,1.3c1,0.4,2,0.6,2.9,1
			c1.6,0.7,3.1,1.5,4.7,2.2c1.6,0.6,3.2,1.2,4.8,1.5c2,0.5,3.9,0.9,5.9,1.6c1.1,0.4,2.3,0.6,3.5,0.8c2.8,0.5,5.6,0.9,8.4,1.6
			c2.4,0.6,4.9,0.6,7.4,0.9c2.4,0.3,4.7,0.7,7.1,0.7c7.3,0.1,14.6,0.2,21.8,0c4.4-0.1,8.9-0.6,13.3-0.9c0.2,0,0.3-0.1,0.5-0.1
			c2.5-0.5,5-0.9,7.5-1.4c2-0.3,4-0.6,6-1c0.1,0,0.2-0.1,0.3-0.1c1.5-0.4,2.9-0.9,4.4-1.3c1.5-0.4,3-0.6,4.5-1
			c0.1,0,0.2-0.1,0.3-0.2c1.3-0.4,2.7-0.9,4-1.3c1.2-0.4,2.4-0.7,3.5-1.1c1.2-0.4,2.4-0.9,3.5-1.4c0.2-0.1,0.4-0.2,0.6-0.3
			c0.8-0.4,1.7-0.9,2.5-1.2c1-0.4,2.1-0.8,3.1-1.3c1.1-0.5,2.1-1.2,3.2-1.8c1.5-0.9,3.1-1.7,4.6-2.5c0.4-0.2,0.7-0.5,1-0.7
			c1.1-0.7,2.3-1.2,3.3-2.1c1.9-1.6,3.8-3.4,5.6-5.1c0.9-0.8,1.7-1.7,2.3-2.7c0.6-0.8,0.5-2,0.7-3c0.4-2.2,1.5-4.3,1.1-6.6
			c-0.1-0.7-0.1-1.5,0-2.3C283.3,217.9,282.9,217.1,282.1,216.6z M281.6,156.3c-0.6,0.2-1,0.2-1.3,0.4c-1.1,0.8-2.2,1.8-3.3,2.6
			c-2.1,1.5-4.2,2.9-6.3,4.4c-1.1,0.8-2.3,1.5-3.4,2.2c-0.9,0.6-1.8,1.2-2.7,1.7c-0.8,0.4-1.8,0.6-2.6,1.1c-1.3,0.7-2.6,1.4-3.8,2.2
			c-0.6,0.3-1.2,0.6-1.8,0.8c-1,0.4-1.9,0.8-2.9,1.2c-1.8,0.7-3.5,1.4-5.3,2c-0.2,0.1-0.5,0.1-0.7,0.2c-1.1,0.5-2.1,1-3.2,1.4
			c-1.2,0.4-2.4,0.7-3.6,1c-0.8,0.2-1.7,0.5-2.5,0.8c-1.3,0.5-2.6,1.1-3.9,1.4c-1.6,0.4-3.3,0.6-5,0.9c-0.2,0-0.5,0.1-0.7,0.1
			c-1.6,0.5-3.2,1.1-4.9,1.3c-1.6,0.3-3.3,0.2-4.9,0.7c-1.9,0.6-4,0.7-6,0.9c-3.2,0.3-6.4,0.8-9.6,0.8c-7-0.1-14.1,0.8-21.1-0.6
			c-2.3-0.5-4.7,0.1-7.1-0.7c-1.9-0.6-4.1-0.1-6.1-0.9c-1.4-0.5-3,0-4.5-0.8c-1.1-0.6-2.6-0.7-3.9-0.8c-2.1-0.2-4.1-0.8-6-1.6
			c-1.8-0.7-3.7-1.1-5.5-1.6c-1.2-0.3-2.5-0.6-3.8-0.9c-0.1,0-0.2,0-0.3-0.1c-1.2-0.5-2.4-1-3.7-1.5c-0.9-0.3-1.8-0.6-2.7-1
			c-0.9-0.4-1.8-0.9-2.7-1.4c-0.9-0.4-1.9-0.7-2.9-1.2c-1.3-0.6-2.6-1.4-3.9-2c-1.6-0.9-3.3-1.7-4.9-2.6c-1-0.6-1.9-1.4-2.9-2.1
			c-1.9-1.3-3.9-2.5-5.8-3.7c-0.2-0.1-0.4-0.2-0.7-0.3c-0.1,0.2-0.3,0.5-0.3,0.7c0,2.5,0,4.9,0.1,7.4c0,0.2,0.1,0.4,0.1,0.6
			c0.7,1.4,1.4,2.9,2.2,4.2c0.3,0.5,0.8,1,1.3,1.4c1.1,0.8,2.3,1.5,3.4,2.2c0.9,0.6,1.9,1.3,2.8,1.8c1.7,0.9,3.4,1.7,5,2.6
			c1.8,1,3.5,2,5.3,3c1.6,0.8,3.1,1.6,4.8,2.3c1.3,0.6,2.7,1.1,4.1,1.7c0.8,0.3,1.6,0.6,2.3,0.8c1.1,0.4,2.3,0.6,3.4,1
			c1.1,0.4,2.1,1,3.2,1.3c1.3,0.4,2.6,0.6,3.9,0.9c0.2,0,0.3,0.1,0.4,0.2c1.3,0.4,2.6,1,3.9,1.3c1.9,0.4,3.8,0.7,5.7,1
			c0.1,0,0.2,0.1,0.3,0.1c1.6,0.4,3.1,1,4.7,1.3c1.5,0.3,3,0.2,4.5,0.7c2.2,0.7,4.7,0.4,7,0.9c2.5,0.5,5.1,0.1,7.7,0.3
			c2,0.1,4,0.4,6,0.6c4,0.3,7.9-0.4,11.9-0.7c4.2-0.3,8.5-0.6,12.7-0.9c0.2,0,0.4-0.1,0.6-0.1c2.2-0.5,4.3-0.9,6.5-1.4
			c1.7-0.3,3.4-0.6,5.1-0.9c0.1,0,0.1-0.1,0.2-0.1c1.7-0.5,3.3-1,5-1.4c1.2-0.3,2.4-0.6,3.6-0.9c0.8-0.2,1.7-0.5,2.5-0.8
			c1.2-0.4,2.3-1,3.4-1.4c1.1-0.4,2.3-0.7,3.4-1c0.1,0,0.2-0.1,0.3-0.1c0.8-0.4,1.6-0.9,2.4-1.2c1-0.4,2-0.6,3-1
			c0.6-0.2,1.3-0.5,1.9-0.9c1.2-0.7,2.4-1.5,3.7-2.2c1.3-0.7,2.8-1.1,4.1-1.8c1.7-0.9,3.2-2,4.8-3.1c1.4-0.9,2.8-1.6,4.1-2.6
			c1.4-0.9,2.6-2.1,3.9-3.1c1.9-1.4,1.9-1.4,1.8-3.9c0-1.2-0.3-2.6,0.2-3.7c0.5-1.1,0.7-2.2,0.6-3.3
			C282.2,160.4,281.9,158.4,281.6,156.3z M280.7,141.8c-0.7,0.4-1.2,0.6-1.6,0.9c-0.4,0.3-0.8,0.7-1.2,1c-1.1,0.9-2.3,1.8-3.5,2.7
			c-1.2,0.9-2.3,2-3.5,2.8c-1.1,0.7-2.4,1-3.4,1.9c-1.7,1.4-3.6,2.2-5.6,3.1c-0.6,0.3-1.3,0.6-1.9,0.9c-0.9,0.4-1.7,1-2.6,1.4
			c-1.6,0.8-3.3,1.5-5,2.2c-1,0.4-1.9,0.7-2.9,1.1c-1.1,0.4-2.3,0.7-3.4,1c-2,0.7-4,1.5-6.1,2.1c-1.5,0.4-3.1,0.7-4.7,1
			c-0.2,0-0.3,0.1-0.5,0.1c-1.4,0.4-2.7,1.1-4.2,1.3c-1.3,0.2-2.5,0.3-3.8,0.8c-1.5,0.5-3.1,0.6-4.6,0.8c-1.8,0.3-3.6,0.2-5.5,0.7
			c-2.5,0.7-5.1,0.7-7.7,0.9c-1.5,0.1-3,0.1-4.6,0.2c-3.5,0.2-6.9,0.5-10.4,0.5c-2.7,0-5.3-0.3-8-0.4c-4.8-0.1-9.5-0.1-14.3-0.9
			c-1.3-0.2-2.5-0.1-3.8-0.6c-1.8-0.7-3.8-0.7-5.8-1c-2-0.3-4.1-0.4-6-1c-1.1-0.4-2.1-0.5-3.1-0.7c-0.2,0-0.4-0.1-0.6-0.2
			c-1.6-0.5-3.1-0.9-4.7-1.4c-1.3-0.3-2.5-0.6-3.8-1c-0.8-0.2-1.7-0.5-2.5-0.8c-1-0.4-2-0.9-3.1-1.3c-1-0.4-2.2-0.6-3.2-1
			c-1.6-0.7-3.2-1.5-4.8-2.2c-0.9-0.4-1.7-0.9-2.6-1.3c-1.6-0.9-3.1-1.8-4.7-2.7c-1.1-0.6-2.3-1.1-3.3-1.8c-1.8-1.3-3.4-2.8-5.1-4.2
			c-0.3-0.2-0.7-0.3-1.1-0.3c-0.1,0-0.3,0.5-0.4,0.8c-0.2,0.9-0.5,1.8-0.7,2.7c-0.1,0.3-0.1,0.6,0,0.9c0.4,1.5,0.9,3,1.4,4.5
			c0.4,1.2,0.7,2.4,2,3.2c2.3,1.4,4.4,3,6.6,4.5c1.7,1.1,3.4,2.1,5.1,3.1c0.9,0.5,1.7,1.1,2.6,1.5c0.9,0.4,1.9,0.7,2.7,1.1
			c1.3,0.6,2.6,1.5,3.9,2.1c1.7,0.7,3.4,1.2,5.1,1.9c1.7,0.7,3.4,1.5,5.2,2.2c1.6,0.6,3.3,1.1,4.9,1.6c1.9,0.6,3.9,1.2,5.8,1.6
			c2.3,0.4,4.6,1,6.9,1.6c1.6,0.4,3.2,0.4,4.9,0.9c1.6,0.5,3.3,0.6,4.9,0.8c2.4,0.3,4.9,0.6,7.4,0.7c6.1,0.4,12.3,0.1,18.5,0.2
			c4.8,0.1,9.6-0.3,14.3-0.9c2.2-0.3,4.3-0.6,6.5-0.9c0.1,0,0.2,0,0.2-0.1c2.1-0.5,4.2-1,6.3-1.4c1.6-0.3,3.3-0.6,4.9-0.9
			c0.1,0,0.2,0,0.2-0.1c1.5-0.5,3-1,4.6-1.4c1.4-0.4,2.7-0.6,4.1-1c1.4-0.4,2.7-0.9,4-1.4c0.9-0.3,1.8-0.6,2.6-0.9
			c1.2-0.5,2.3-1,3.5-1.4c1-0.4,1.9-0.7,2.9-1.1c0.8-0.3,1.4-0.9,2.2-1.2c0.8-0.4,1.7-0.6,2.5-0.9c1.6-0.7,3.1-1.6,4.6-2.4
			c0.7-0.4,1.4-0.7,2-1.1c0.6-0.4,1.2-0.8,1.9-1.2c0.7-0.4,1.4-0.9,2.1-1.3c1.3-0.8,2.5-1.7,3.7-2.6c1.1-0.7,2.2-1.4,3.3-2.1
			c0.9-0.6,1.8-1.3,2.6-2.1c0.6-0.5,1-1,0.9-1.9c-0.1-0.7-0.2-1.6,0.1-2.1c1-1.6,0.9-3.3,0.7-5.1
			C281.4,145.1,281.1,143.6,280.7,141.8z M282.3,173.3c-0.1-0.1-0.3-0.2-0.4-0.3c-0.7,0.6-1.4,1.3-2.2,1.9c-0.9,0.7-2,1.3-2.9,2
			c-1.2,0.9-2.3,1.9-3.6,2.7c-1.2,0.9-2.5,1.6-3.8,2.4c-1.9,1.1-3.8,2.2-5.8,3.2c-1.3,0.7-2.8,1.2-4.1,1.8c-0.6,0.3-1.3,0.6-1.9,0.9
			c-0.9,0.4-1.7,1-2.7,1.3c-0.9,0.4-1.9,0.6-2.8,1c-0.9,0.4-1.6,1-2.5,1.3c-1.1,0.4-2.3,0.7-3.5,1c-0.2,0-0.3,0.1-0.4,0.2
			c-1.2,0.4-2.3,0.9-3.5,1.3c-1.3,0.4-2.6,0.6-3.8,1c-1.3,0.4-2.5,1.1-3.8,1.3c-2.4,0.4-4.7,0.9-7,1.6c-1.5,0.4-3.2,0.2-4.8,0.8
			c-1.3,0.5-2.8,0.6-4.3,0.7c-2.8,0.3-5.7,0.9-8.5,0.9c-9.4-0.1-18.9,0.9-28.3-0.6c-2-0.3-4-0.2-6.1-0.7c-2.1-0.4-4.4-0.7-6.5-1
			c-2.1-0.3-4.2-0.9-6.3-1.4c-2.1-0.5-4.3-1-6.4-1.6c-2.2-0.7-4.5-1.2-6.8-1.8c-0.1,0-0.2-0.1-0.3-0.1c-1.3-0.5-2.6-1-3.8-1.4
			c-0.9-0.3-1.9-0.7-2.8-1.1c-0.9-0.4-1.7-0.9-2.6-1.2c-1.5-0.6-3.1-1.1-4.6-1.8c-1.3-0.6-2.6-1.4-3.9-2.1c-1.3-0.7-2.7-1.1-4-1.9
			c-1.6-0.9-3-2-4.6-3c-1.9-1.2-3.9-2.3-5.9-3.4c-0.3-0.2-0.7-0.5-0.9-0.4c-0.3,0.2-0.8,0.7-0.7,0.9c0.3,1.9-1.5,3.6-0.3,5.7
			c1,1.7,1.7,3.5,3.2,4.8c0.3,0.3,0.6,0.5,1,0.8c1.2,0.9,2.4,1.8,3.7,2.7c1.6,1,3.3,2,5,3c1.6,0.9,3.2,1.9,4.9,2.7
			c1.3,0.7,2.6,1.4,4,2.1c1.2,0.6,2.4,1.3,3.7,1.8c0.9,0.4,1.8,0.7,2.7,1c1.1,0.5,2.2,1,3.4,1.4c0.9,0.4,1.9,0.7,2.8,1.1
			c0.9,0.4,1.8,0.9,2.8,1.2c1.3,0.4,2.7,0.7,4,1c0.9,0.2,1.9,0.4,2.8,0.8c1.2,0.4,2.4,1.1,3.6,1.4c2.3,0.5,4.7,0.8,7,1.6
			c1.5,0.5,3.2,0.6,4.8,0.9c1.6,0.3,3.2,0.6,4.8,0.8c2.7,0.3,5.5,0.7,8.2,0.8c8.9,0.1,17.8,0.9,26.7-0.5c3.4-0.5,6.8-0.7,10.2-1
			c0.2,0,0.4-0.1,0.6-0.1c1-0.2,2.1-0.4,3.1-0.6c1-0.2,2.1-0.5,3.1-0.8c1.7-0.4,3.5-0.6,5.3-1c0.2,0,0.3-0.1,0.4-0.2
			c1.3-0.4,2.5-0.9,3.8-1.2c1.4-0.4,2.8-0.6,4.2-0.9c0.1,0,0.1-0.1,0.2-0.1c1-0.5,2-1,3.1-1.3c1.2-0.4,2.4-0.6,3.6-1
			c0.1,0,0.2,0,0.3-0.1c1-0.5,2-1,3-1.4c1-0.4,2-0.6,3-1c0.7-0.2,1.4-0.5,2.1-0.8c0.9-0.4,1.6-1,2.5-1.3c0.9-0.4,1.9-0.7,2.8-1
			c0.6-0.2,1.2-0.5,1.8-0.8c1.2-0.7,2.4-1.6,3.7-2.2c2-0.8,3.8-1.9,5.5-3.1c1.5-1,3.3-1.7,4.9-2.6c0.5-0.3,1.2-0.8,1.2-1.2
			c0-0.9-0.3-1.9-0.6-2.7c-0.2-0.7-0.7-1.3-0.9-2c-0.6-2.1,0.3-4,1-5.8C282.5,176.6,282.3,175,282.3,173.3z M282,231.7
			c-1,1.1-1.7,2.1-2.6,3c-1.4,1.4-2.9,2.8-4.4,4.1c-1.5,1.2-3.1,2.3-4.7,3.4c-1,0.7-2,1.2-3,1.8c-1.6,0.9-3.2,1.9-4.7,2.8
			c-0.5,0.3-1,0.6-1.5,0.8c-0.8,0.3-1.7,0.6-2.5,1c-1.1,0.5-2.2,1-3.3,1.5c-0.8,0.3-1.6,0.6-2.4,0.9c-1.2,0.5-2.4,1-3.7,1.4
			c-1.1,0.4-2.3,0.4-3.3,0.9c-1.6,0.8-3.2,1.3-4.9,1.5c-0.2,0-0.4,0.1-0.6,0.1c-1.4,0.5-2.8,1.1-4.3,1.4c-2.1,0.4-4.2,0.7-6.3,1
			c-0.1,0-0.2,0-0.2,0.1c-1.9,0.5-3.8,1-5.7,1.3c-1.9,0.3-3.8,0.3-5.7,0.7c-2.9,0.6-6,0.7-9,0.8c-6.1,0.2-12.2,0.2-18.2,0.1
			c-3.6-0.1-7.1-0.5-10.7-0.8c-2.2-0.2-4.3-0.5-6.4-0.8c-2.5-0.3-5-0.6-7.5-0.9c-0.1,0-0.2-0.1-0.3-0.1c-1.8-0.5-3.6-0.9-5.4-1.4
			c-1.5-0.4-3.1-0.7-4.6-1c-0.1,0-0.2,0-0.2-0.1c-1.3-0.4-2.6-0.9-4-1.3c-1.3-0.4-2.6-0.5-3.9-1c-1.7-0.6-3.3-1.4-4.9-2.2
			c-1.9-0.8-3.7-1.6-5.6-2.4c-1.7-0.8-3.3-1.6-4.9-2.4c-1.3-0.7-2.5-1.5-3.6-2.3c-1.6-1.1-3.3-2.2-4.8-3.5c-1.4-1.2-2.7-2.6-4.1-3.9
			c-0.4-0.3-1.2-0.8-1.4-0.7c-1.1,0.8-1.3,2.3-0.4,3.5c0.6,0.8,1.3,1.6,1.9,2.4c0.9,1.2,1.6,2.4,2.6,3.5c2.5,2.7,5.2,5.2,8.2,7.3
			c1.4,1,2.8,1.8,4.2,2.7c1.5,1,2.9,2,4.5,2.9c1.8,1,3.8,1.7,5.6,2.6c0.6,0.3,1.3,0.6,1.9,0.9c1.6,0.7,3.2,1.5,4.8,2.2
			c1.2,0.5,2.5,0.7,3.7,1c0.1,0,0.2,0.1,0.3,0.1c1.2,0.4,2.4,1,3.7,1.3c1.4,0.4,2.8,0.6,4.2,1c1.6,0.4,3.1,1,4.7,1.4
			c1.2,0.3,2.4,0.5,3.6,0.7c1.7,0.3,3.4,0.6,5.1,0.9c2.2,0.3,4.4,0.2,6.7,0.7c3,0.7,6.1,0.4,9.2,0.7c5.3,0.4,10.7,0.4,16.1-0.3
			c4.4-0.5,8.8-0.5,13.2-1.1c2.1-0.3,4.3-0.6,6.4-0.9c1.3-0.2,2.5-0.5,3.8-0.7c0.2,0,0.4-0.1,0.6-0.1c1.6-0.5,3.2-1,4.8-1.4
			c1.5-0.4,3-0.6,4.6-0.9c0.1,0,0.2,0,0.2-0.1c1.3-0.9,2.9-0.9,4.3-1.4c1.1-0.4,2.3-0.6,3.5-1c0.7-0.2,1.3-0.5,2-0.8
			c1.1-0.5,2.1-0.9,3.2-1.4c0.6-0.3,1.2-0.6,1.8-0.8c0.9-0.4,1.9-0.6,2.8-1c0.6-0.2,1.2-0.5,1.7-0.8c0.8-0.4,1.4-1,2.2-1.4
			c1.3-0.7,2.8-1.1,4-1.9c1.8-1.1,3.6-2.5,5.3-3.7c1.6-1.1,3.4-2.1,4.9-3.4c1-0.8,2.4-1.6,2.1-3.4c0-0.2,0.3-0.4,0.4-0.7
			c0.1-1,0.1-1.9,0.1-2.9c0-0.5-0.6-1-0.5-1.4c0.3-1.2,0.7-2.3,1.1-3.4C282.6,235.1,282.5,233.6,282,231.7z M177.9,164.1
			c3.3-1,6.5-1.9,9.8-2.9c1.3-0.4,2.7-0.6,4-1c1.4-0.4,2.8-1,4.2-1.5c2-0.6,4-1.1,6-1.7c2.2-0.7,4.4-1.5,6.6-2.1
			c2.3-0.7,4.7-1.2,7-1.8c0.9-0.2,1.8-0.6,2.6-0.8c2.2-0.7,4.4-1.5,6.5-2.1c1.3-0.4,2.7-0.7,4.1-1c1-0.3,2-0.5,2.9-0.9
			c1.3-0.4,2.5-0.9,3.8-1.3c1.4-0.4,2.7-0.7,4.1-1c0.9-0.2,1.8-0.5,2.7-0.8c1.4-0.5,2.7-0.9,4.1-1.4c0.9-0.3,1.7-0.6,2.6-0.8
			c1.4-0.4,2.8-0.7,4.2-1c0.9-0.2,1.7-0.5,2.6-0.8c1.5-0.5,2.9-1,4.4-1.5c1.3-0.4,2.6-0.6,3.9-1c1-0.3,1.9-0.6,2.9-0.9
			c1.4-0.4,2.7-0.9,4.1-1.3c1.3-0.4,2.6-0.6,3.8-1c1.3-0.4,2.5-1,3.8-1.4c1.4-0.4,2.8-0.6,4.1-0.9c0.1,0,0.2,0,0.2-0.1
			c1.3-0.5,2.6-1,3.9-1.4c1.3-0.4,2.6-0.6,3.9-0.9c0.1,0,0.2-0.1,0.3-0.1c1.3-0.5,2.6-1,4-1.4c1.4-0.4,2.8-0.6,4.2-1
			c1-0.3,2-0.6,2.9-0.9c1.3-0.4,2.6-0.9,4-1.3c1.3-0.4,2.6-0.7,4-1c0.9-0.2,1.9-0.5,2.8-0.8c1.6-0.5,3.2-1.1,4.8-1.5
			c1.8-0.5,3.2-1.6,3-2.9c-0.3-2.9-0.7-5.7-1-8.6c0-0.1-0.2-0.1,0,0c-1.1,0.2-2,0.3-2.9,0.6c-1.6,0.5-3.1,1-4.6,1.5
			c-1.2,0.4-2.5,0.6-3.8,0.9c-1.6,0.5-3.2,1-4.8,1.5c-1.1,0.3-2.3,0.5-3.4,0.9c-1.2,0.4-2.2,1-3.4,1.3c-2.3,0.7-4.6,1.2-6.9,1.8
			c-0.1,0-0.2,0.1-0.3,0.1c-1.3,0.5-2.5,1-3.8,1.4c-1.4,0.4-2.8,0.6-4.1,1c-0.2,0-0.4,0.2-0.6,0.2c-1.2,0.4-2.4,0.9-3.6,1.2
			c-1.4,0.4-2.7,0.7-4.1,1c-0.9,0.2-1.9,0.5-2.8,0.8c-1.2,0.4-2.3,1-3.5,1.4c-1.8,0.6-3.5,1.1-5.3,1.6c-1.4,0.4-2.8,0.7-4.2,1
			c-0.2,0-0.4,0.1-0.6,0.1c-1.2,0.4-2.4,1-3.6,1.3c-1.4,0.4-2.8,0.6-4.2,0.9c-0.1,0-0.2,0-0.2,0.1c-1.3,0.5-2.5,1-3.8,1.4
			c-1.3,0.4-2.7,0.6-4,0.9c-0.1,0-0.2,0-0.2,0.1c-1.2,0.5-2.4,1.2-3.7,1.4c-1.8,0.3-3.4,1-5.1,1.5c-1.9,0.6-3.8,0.9-5.6,1.7
			c-1.3,0.6-2.9,0.7-4.3,1c-0.2,0-0.4,0.1-0.5,0.2c-1.2,0.4-2.5,0.9-3.7,1.2c-1.4,0.4-2.7,0.6-4.1,1c-1.6,0.5-3.2,1-4.8,1.5
			c-0.2,0-0.3,0.1-0.5,0.1c-2.1,0.7-4.1,1.4-6.2,2.1c-1.8,0.6-3.6,1.1-5.4,1.6c-1.4,0.4-2.8,0.6-4.2,1c-0.2,0-0.4,0.1-0.6,0.1
			c-1.3,0.5-2.6,1-4,1.4c-1.3,0.4-2.6,0.6-3.9,0.9c-1,0.3-1.9,0.6-2.9,0.9c-1.3,0.4-2.5,1-3.8,1.3c-1,0.2-1.1,0.6-1.1,1.4
			c0.1,2.4,0.2,4.9,0.2,7.3C176.8,162.9,177,163.7,177.9,164.1z M185.5,317.6c1-0.4,1.7-0.7,2.5-1c1-0.4,2-0.6,3.1-1
			c1.1-0.3,2.1-0.6,3.2-1c0.9-0.4,1.7-0.9,2.6-1.3c1.2-0.5,2.5-1,3.7-1.5c0.9-0.3,1.7-0.7,2.6-1c1.2-0.4,2.4-0.7,3.5-1.1
			c1.2-0.4,2.5-0.9,3.7-1.4c0.2-0.1,0.4-0.2,0.7-0.3c0.9-0.4,1.8-0.9,2.7-1.2c1-0.4,2.1-0.7,3.1-1c0.8-0.3,1.5-0.6,2.3-0.9
			c1-0.4,2.1-0.9,3.1-1.3c1.1-0.4,2.1-0.6,3.2-1c1.2-0.4,2.3-1,3.5-1.4c0.9-0.3,1.8-0.6,2.7-0.9c1.2-0.5,2.4-1,3.6-1.5
			c0.9-0.4,1.9-0.6,2.9-1c1-0.4,2-0.9,3-1.3c1-0.4,2.1-0.6,3.2-1c0.7-0.2,1.4-0.6,2.1-0.9c1-0.4,2.1-0.9,3.1-1.3
			c1-0.4,2.1-0.6,3.2-1c1.7-0.7,3.4-1.4,5.2-2.2c0.6-0.3,1.3-0.6,1.9-0.8c1.1-0.4,2.3-0.7,3.4-1.1c1.8-0.7,3.5-1.4,5.3-2.1
			c1.7-0.7,3.5-1.2,5.3-1.8c0.7-0.3,1.4-0.5,2.1-0.8c1.1-0.5,2.2-1,3.4-1.4c1-0.4,2.1-0.7,3.2-1.1c0.7-0.2,1.4-0.4,2.1-0.7
			c1-0.4,2-0.9,3-1.4c0.7-0.3,1.3-0.6,2-0.8c1-0.3,2-0.6,3-0.9c1.5-0.5,2.9-1,4.3-1.6c0.1,0,0.3,0,0.3-0.1c1-0.9,2.4-1.1,3.6-1.6
			c0.8-0.3,1.6-0.6,2.3-0.9c1-0.4,2-0.9,3-1.3c1-0.4,2.1-0.6,3.2-1c1.4-0.5,2.8-1.1,4.3-1.6c0.2-0.1,0.4-0.1,0.6-0.2
			c1.1-0.4,2.2-0.8,3.2-1.4c0.7-0.3,1.7-0.9,1.7-1.4c0.1-2.7,0.1-5.4-1.1-8.2c-0.7,0.3-1.3,0.6-2,0.9c-1.2,0.5-2.4,0.9-3.6,1.3
			c-1,0.4-2.1,0.8-3.1,1.1c-1.1,0.4-2.3,0.7-3.4,1c-0.7,0.2-1.3,0.5-1.9,0.7c-1.4,0.5-2.7,1-4.1,1.5c-0.9,0.3-1.9,0.5-2.8,0.9
			c-1,0.4-2,1-3.1,1.4c-1.8,0.6-3.6,1.2-5.5,1.7c-0.9,0.3-1.7,0.6-2.6,0.9c-1.1,0.4-2.1,1-3.1,1.4c-1.1,0.4-2.2,0.6-3.3,0.9
			c-0.9,0.3-1.8,0.5-2.7,0.9c-1.3,0.5-2.5,1-3.8,1.5c-0.9,0.3-1.8,0.5-2.7,0.9c-1.8,0.7-3.7,1.5-5.5,2.2c-1.5,0.6-3,1.1-4.5,1.6
			c-1.9,0.6-3.7,1.2-5.6,1.7c-0.1,0-0.2,0.1-0.3,0.1c-1.2,0.5-2.3,1-3.5,1.4c-1.1,0.4-2.3,0.7-3.5,1.1c-1,0.4-2,0.9-3,1.2
			c-1.1,0.4-2.3,0.7-3.4,1.1c-1.3,0.5-2.7,1-4,1.4c-0.9,0.3-1.9,0.7-2.8,1c-1.1,0.4-2.3,0.9-3.4,1.3c-1.1,0.4-2.3,0.8-3.5,1.2
			c-0.7,0.2-1.3,0.5-1.9,0.8c-1.1,0.4-2.2,0.9-3.4,1.3c-1.2,0.4-2.4,0.6-3.5,1c-1.3,0.4-2.5,1-3.7,1.4c-1,0.4-1.9,0.6-2.9,1
			c-1,0.4-2,1-3.1,1.3c-1.9,0.6-3.8,1.1-5.7,1.8c-1.9,0.7-3.7,1.5-5.5,2.2c-1.8,0.7-3.7,1.2-5.5,1.8c-0.8,0.3-1.8,0.4-2.5,0.8
			c-1.3,0.8-2.8,1.1-4.2,1.5c-1.2,0.3-1.8,0.8-1.7,2c0.2,1.3,0.5,2.7,0.8,4C185,313.3,185.2,315.2,185.5,317.6z M279.8,249.7
			c-0.1,0-0.2,0-0.3,0c-1.5,1-2.9,2-4.3,3c-1.2,0.8-2.5,1.6-3.8,2.4c-1.5,1-3,2.1-4.6,3c-1.6,0.9-3.4,1.7-5,2.5
			c-0.4,0.2-0.6,0.5-1,0.7c-0.9,0.4-1.9,0.7-2.8,1c-0.7,0.2-1.3,0.5-2,0.8c-1.1,0.5-2.3,1-3.4,1.4c-0.9,0.3-1.8,0.6-2.7,0.9
			c-1.1,0.4-2.1,1-3.2,1.4c-1.4,0.4-2.9,0.7-4.3,1c-0.1,0-0.2,0.1-0.3,0.1c-1.4,0.5-2.8,1-4.2,1.3c-1.9,0.4-3.8,0.6-5.7,0.9
			c-0.1,0-0.2,0-0.2,0.1c-1.7,0.5-3.4,1-5.2,1.3c-1.7,0.3-3.3,0.3-5,0.7c-2.5,0.6-5.1,0.7-7.7,0.9c-1.4,0.1-2.9,0.2-4.3,0.1
			c-4.3-0.3-8.5,0.6-12.7,0.3c-5.8-0.4-11.7-0.4-17.5-1.1c-2.3-0.3-4.5-0.6-6.8-0.9c-0.1,0-0.2-0.1-0.3-0.1
			c-1.9-0.5-3.8-0.9-5.7-1.4c-1.7-0.4-3.4-0.7-5.1-1c-0.1,0-0.2-0.1-0.3-0.1c-1.2-0.4-2.5-0.9-3.7-1.3c-1.2-0.4-2.4-0.6-3.6-1
			c-1.8-0.7-3.6-1.4-5.3-2.2c-2.2-0.9-4.3-1.7-6.5-2.6c-0.6-0.2-1.2-0.5-1.8-0.9c-0.8-0.5-1.6-1-2.5-1.5c-0.8-0.4-1.6-0.8-2.3-1.3
			c-1.2-0.8-2.4-1.7-3.7-2.5c-1.4-0.9-3-1.7-4.2-2.8c-2.3-2.1-4.5-4.3-6.7-6.6c-1-1-1.9-2.2-3-3.5c0,0.8-0.2,1.9,0,2
			c1,0.6,0.5,1.6,0.7,2.3c0.1,0.6,0.3,1.2,0.5,1.8c0.4,1.2,0.8,2.4,1.2,3.6c0.3,0.9,0.6,1.9,1.1,2.8c0.6,1,1.4,1.8,2,2.9
			c1.1,2.1,2.9,3.7,4.6,5.3c1.3,1.3,2.5,2.6,4.2,3.5c1.9,1,3.6,2.5,5.5,3.6c1.6,1,3.3,1.7,5,2.6c1.5,0.7,3,1.5,4.6,2.2
			c1.1,0.5,2.4,0.7,3.5,1c0.2,0.1,0.4,0.1,0.6,0.2c1.1,0.4,2.2,0.9,3.3,1.2c1.5,0.4,3.1,0.6,4.6,1c1.6,0.4,3.1,1.1,4.7,1.4
			c3.1,0.6,6.3,1.2,9.5,1.5c3.5,0.4,7,0.7,10.5,0.9c1.8,0.1,3.7,0.1,5.5,0c4.6-0.2,9.2,0.4,13.9-0.6c3.1-0.6,6.3-0.2,9.4-0.9
			c2.5-0.6,5.2-0.6,7.7-0.9c0.1,0,0.2,0,0.4-0.1c0.8-0.2,1.6-0.5,2.4-0.7c1.7-0.4,3.5-0.7,5.2-1c0,0,0.1,0,0.1,0
			c1.4-0.5,2.8-1,4.2-1.4c1.5-0.4,3-0.7,4.6-1c0.1,0,0.2-0.1,0.3-0.1c1.2-0.4,2.3-0.9,3.5-1.3c1.1-0.4,2.3-0.7,3.5-1
			c0.6-0.2,1.2-0.5,1.8-0.7c1-0.5,2-1,3-1.4c0.9-0.4,1.8-0.6,2.6-1c1-0.4,2-1,2.9-1.4c0.5-0.3,1.1-0.6,1.6-0.8
			c0.8-0.4,1.7-0.6,2.4-1.1c1-0.6,1.9-1.4,2.9-2.1c1.3-0.8,2.6-1.7,3.9-2.4c2-1.1,3.7-2.6,5.5-4c2.8-2.1,5.4-4.4,7.5-7.2
			C279.3,251.3,280.5,250.8,279.8,249.7z M78.6,99.8c0,0.1-0.1,0.3-0.1,0.4c0,3.1-0.1,6.2-0.1,9.4c0,0.9,0.6,1.1,1.4,1.3
			c1,0.1,2.1,0.3,3.1,0.7c1.4,0.5,2.6,1.2,3.9,1.9c0.9,0.4,1.9,0.8,2.7,1.4c1.2,0.8,2.3,1.7,3.4,2.5c1.7,1.2,3.1,2.5,3.1,4.8
			c0,0.5,0.4,1.2,0.8,1.5c0.6,0.4,1.4,0.7,2.1,0.9c1.1,0.4,2.2,0.6,3.2,1.1c0.9,0.4,1.8,1,2.7,1.4c1.2,0.6,2.5,1.1,3.7,1.7
			c1.8,1,3.5,2,5.3,3c1.7,0.9,3.6,1.7,5.3,2.6c2,1,3.9,2.1,5.9,3.2c0.6,0.3,1.4,0.5,2,0.9c1.5,0.9,3,2,4.5,2.9
			c1.1,0.7,2.3,1.3,3.5,2c1.3,0.9,2.6,1.9,3.9,2.8c1.8,1.3,3.5,2.6,5.3,3.8c1.4,1,2.7,2.2,4.5,1.9c3.3-0.5,6.4-0.3,9.3,1.3
			c2,1.1,4,2,6,3.1c1,0.5,2,1.2,3,1.8c2.4,1.5,4.8,3,7.2,4.5c0-0.1,0.2-0.3,0.2-0.5c0-2.4,0.1-4.9-0.2-7.3c-0.1-0.9-0.5-2-1.6-2.6
			c-1.4-0.7-2.5-1.9-3.8-2.9c-1.2-0.8-2.4-1.6-3.6-2.4c-0.8-0.5-1.7-1-2.5-1.5c-0.5-0.3-1.1-0.7-1.6-1c-0.7-0.4-1.5-0.7-2.3-1
			c-1.3-0.7-2.5-1.5-3.8-2.1c-0.6-0.3-1.3-0.6-1.9-0.8c-0.9-0.3-1.8-0.5-2.7-0.7c-0.6-0.1-1.3-0.1-1.9,0.1c-2,0.9-4.1,0.6-5.8-0.8
			c-1.5-1.3-3.2-2.4-4.8-3.6c-1.4-1-2.7-2-4.1-3c-1.5-1-3-1.8-4.6-2.7c-1.1-0.6-2.3-1-3.2-1.8c-1.5-1.4-3.5-2-5.2-3
			c-0.6-0.4-1.4-0.6-2-1c-1.6-0.9-3.2-2-4.9-2.9c-1.3-0.7-2.6-1.2-3.9-1.8c-0.6-0.3-1.1-0.7-1.7-1c-1.3-0.7-2.6-1.4-3.9-2.1
			c-0.9-0.5-1.7-1-2.6-1.4c-0.8-0.4-1.7-0.7-2.6-1c-0.4-0.2-0.9-0.3-1.3-0.5c-1-0.4-1.9-0.9-2.9-1.1c-0.6-0.1-0.9-0.3-1.4-0.7
			c-1.1-0.7,0-1,0.1-1.5c0.1-0.3-0.1-0.7-0.3-1c-0.1-0.2-0.2-0.4-0.3-0.6c-0.4-0.7-0.7-1.5-1.3-2c-0.9-0.9-2-1.6-3.1-2.4
			c-0.6-0.5-1.2-1.1-1.9-1.4c-1.5-0.8-2.9-1.6-4.5-2.2C80.9,100.4,80,99.1,78.6,99.8z M182.1,165.7c0.6,0.2,0.9,0.4,1.2,0.4
			c2.4,0.3,4.9,0.7,7.4,0.7c4.8-0.1,9.6-0.3,14.5-0.6c3-0.2,6,0,9-0.7c2.4-0.6,5-0.2,7.5-0.9c2.2-0.6,4.5-0.7,6.8-1
			c0.1,0,0.2-0.1,0.3-0.1c1.8-0.5,3.6-0.9,5.5-1.4c1.5-0.4,3-0.6,4.5-1c0.1,0,0.2-0.1,0.3-0.1c1.3-0.4,2.6-0.9,3.9-1.3
			c1.3-0.4,2.6-0.6,3.9-1c1.3-0.4,2.7-1,4-1.5c0.9-0.3,1.7-0.6,2.6-1c0.9-0.4,1.8-0.9,2.7-1.3c1.5-0.6,3-1.2,4.5-1.8
			c0.6-0.2,1.1-0.5,1.7-0.8c0.7-0.4,1.4-1,2.2-1.4c0.9-0.5,1.8-0.9,2.7-1.4c1-0.6,2-1.2,2.9-1.8c1.4-0.9,2.9-1.7,4.2-2.7
			c1.3-0.9,2.5-2,3.7-3c0.7-0.6,1.5-1.2,1.6-2.3c0-0.5,0.1-1,0.1-1.6c0-0.4,0.1-0.9-0.1-1c-0.3-0.2-0.8-0.3-1.1-0.2
			c-1.3,0.3-2.6,0.8-3.8,1.1c-1.4,0.4-2.8,0.8-4.1,1.2c-1.4,0.4-2.7,0.8-4.1,1.2c-1.3,0.4-2.6,0.7-3.9,1.1c-1.3,0.4-2.5,0.8-3.8,1.2
			c-1.3,0.4-2.6,0.7-3.9,1.1c-2.4,0.7-4.8,1.5-7.2,2.2c-1.3,0.4-2.6,0.6-3.9,1c-2,0.6-4,1.4-6,2c-2.5,0.8-5,1.5-7.6,2.3
			c-1.2,0.4-2.4,0.7-3.7,1c-1.3,0.4-2.7,0.7-4,1.1c-3,0.9-5.9,1.9-8.9,2.8c-2.2,0.7-4.5,1.2-6.7,1.9c-3.5,1-6.9,2.1-10.4,3.1
			c-1.1,0.3-2.2,0.6-3.3,0.9c-1.2,0.4-2.3,0.9-3.5,1.3c-1.4,0.4-2.8,0.6-4.2,1C184.5,164.8,183.5,165.2,182.1,165.7z M90.6,240.8
			c-0.1,0.4-0.1,0.9-0.2,1.3c-0.2,2.1,0.2,4.3-0.7,6.4c-0.2,0.3-0.1,1,0.1,1.2c1.5,1.9,3.6,3.1,5.6,4.3c1,0.6,2,1.3,3,2
			c1.3,0.9,2.6,1.8,3.9,2.7c1,0.7,2.2,1.1,3.1,1.9c1.1,1,2,2.2,1.8,3.9c0,0.4-0.1,1,0.2,1.3c1.2,1.6,2.9,2.7,4.8,3.5
			c1.1,0.5,2.1,1.3,3.1,2.1c0.8,0.5,1.5,1.2,2.2,1.7c1.1,0.8,2.2,1.5,3.2,2.2c0.8,0.6,1.6,1.2,2.5,1.8c1.3,0.9,2.7,1.7,4,2.7
			c2.1,1.7,4,3.6,6.1,5.3c1.1,0.9,2.4,1.7,3.5,2.7c1.8,1.5,3.4,3.1,5.2,4.5c1.8,1.5,3.8,2.8,5.7,4.2c2,1.5,4,3.1,6,4.6
			c0.4,0.3,0.9,0.7,1.4,0.8c0.9,0.2,1.8,0.1,2.7,0.3c1.3,0.3,2.6,0.7,3.8,1.2c1.2,0.5,2.3,1.3,3.5,1.9c0.6,0.3,1.3,0.6,1.9,1
			c1.6,1,3.1,1.9,4.7,2.9c1.6,1,3.3,1.9,4.8,3c0.8,0.5,1.5,1.3,2.3,1.8c1.3,0.8,2.7,1.4,4.4,2.3c-0.3-0.7-0.7-1.3-0.7-1.9
			c0.2-2.4-0.6-4.7-1-7.1c-0.1-0.4-0.2-0.9-0.4-1.1c-1.3-0.9-2.7-1.6-4-2.5c-1.4-0.9-2.8-1.9-4.2-2.9c-0.8-0.6-1.4-1.3-2.2-1.8
			c-1.1-0.8-2.3-1.5-3.4-2.2c-1.4-0.9-2.9-1.9-4.4-2.8c-0.7-0.4-1.4-0.9-2.1-1.3c-1-0.5-1.9-1.2-3-1.5c-0.8-0.2-1.9-0.3-2.5,0.1
			c-1.8,1.2-3.1-0.5-4.6-0.6c-0.1,0-0.2-0.2-0.2-0.4c-0.1-1.3-1.4-1.7-2.1-2.5c-0.9-0.9-2.2-1.4-3.3-2.2c-0.9-0.6-1.7-1.3-2.6-1.9
			c-1.1-0.7-2.2-1.4-3.3-2.1c-1-0.6-1.9-1.3-2.9-1.9c-1-0.7-1.9-1.5-2.9-2.1c-0.9-0.6-1.9-1.2-2.9-1.8c-1.1-0.6-2.2-1.2-3.3-1.9
			c-1-0.6-1.9-1.3-2.9-2c-1.4-1-2.9-2-4.3-3c-1-0.7-2-1.3-2.9-2c-1-0.7-2-1.3-2.8-2c-1.6-1.4-3.2-2.9-4.7-4.4
			c-1.6-1.5-2.9-3.2-2.5-5.7c0.3-1.9-1.8-4.5-3.6-5.4c-1.3-0.6-2.5-1.4-3.6-2.2c-1.2-0.8-2.3-1.8-3.4-2.5
			C94.5,243.3,92.6,242.1,90.6,240.8z M172.7,165.2c0-0.1,0.1-0.2,0.1-0.3c-0.8-0.5-1.6-1-2.3-1.5c-1.8-1.2-3.6-2.4-5.4-3.6
			c-1.2-0.8-2.4-1.5-3.6-2.2c-1-0.6-2-1.2-3.1-1.7c-1.6-0.7-3.2-1.3-4.8-1.9c-1.7-0.7-3.6-0.9-5.3-0.3c-1.7,0.6-3,0.1-4.4-0.8
			c-1.6-1.1-3.1-2.3-4.6-3.4c-1.4-1-2.7-2-4.2-2.9c-1.9-1.2-3.9-2.5-5.8-3.6c-1-0.6-2.1-1.1-3.1-1.7c-2.3-1.3-4.5-2.6-6.7-3.9
			c-1.2-0.7-2.5-1.4-3.8-2.1c-0.9-0.5-1.9-0.8-3-1.3c-0.1,3.6-0.6,7,2.3,9.5c1.1,1,2.2,1.9,3.3,2.8c1.3,1,2.7,2,4.1,2.9
			c0.9,0.6,1.8,1.2,2.7,1.7c1.8,1,3.5,1.9,5.3,2.8c1.4,0.7,2.9,1.4,4.3,2c1,0.5,2,0.9,3,1.3c0.9,0.4,1.8,0.7,2.7,1
			c1.2,0.4,2.4,0.7,3.6,1c0.8,0.2,1.7,0.5,2.5,0.8c1.3,0.4,2.5,1.1,3.9,1.4c2,0.5,3.9,0.9,5.8,1.5c1.6,0.5,3.3,0.7,5,0.9
			c2.3,0.3,4.6,0.6,6.9,0.9c0.2,0,0.4,0.1,0.5,0.2C170.1,165.6,171.4,165.2,172.7,165.2z M302,249.8c-1.9,0.4-3.8,0.7-5.6,1.2
			c-1.4,0.4-1.6,2.1-0.7,3.1c1.7,1.8,4,1.8,6.1,2.2c1.9,0.4,3.8-0.5,5.7-1.3c1.1-0.4,1.3-0.9,1.3-2c0-1.4-1.2-1.8-2-2.1
			C305.4,250.3,303.7,250.2,302,249.8z M106.1,242.1c1.6,0.4,3.3-0.3,5-0.9c0.3-0.1,0.7-0.5,0.7-0.8c0-0.4-0.1-1.1-0.4-1.3
			c-1.5-0.9-3-1.7-4.8-1.8c-2.2-0.1-4.4-0.2-6.5,0.8c-0.3,0.2-0.9,0.4-0.9,0.7c-0.1,0.5-0.1,1.2,0.2,1.5c1.1,1,2.4,1.7,4,1.8
			C104.2,242.1,105,242.1,106.1,242.1z M217.4,66.4c-4.4-1.8-11.1-0.7-13.6,1.1c1.6,0.3,3,0.8,4.4,0.9c2.2,0.2,4.5,0.1,6.7-0.6
			C215.9,67.5,216.8,67.4,217.4,66.4z M98.8,98.7c0-0.1,0-0.3,0-0.4c-1-0.4-2.1-0.7-3-1.2c-1.9-1-3.9-0.5-5.9-0.6
			c-0.2,0-0.4,0.1-0.5,0.3c-0.1,0.1,0,0.4,0.1,0.4c0.7,0.3,1.4,0.6,2.1,0.9c0.4,0.1,0.8,0.2,1.1,0.3C94.9,99.2,96.8,98.8,98.8,98.7z
			 M93.2,239.5c0.9,0.6,2,1.3,3.2,2c0.1-0.1,0.2-0.1,0.3-0.2c-0.5-2.2,1.2-3.2,2.5-4.5c-0.2-0.1-0.4-0.3-0.5-0.2
			c-1.6,0.5-3.2,1-4.7,1.6C93.7,238.4,93.5,239.1,93.2,239.5z M217.2,63.6c-1.7-1.8-3.7-1.8-5.7-1C213.4,63,215.3,63.3,217.2,63.6z"
			/>
		<path d="M248.1,339.6c-0.2,0.4-0.3,0.6-0.4,0.9c-0.2-0.2-0.4-0.3-0.5-0.5c-0.3-0.3-0.6-0.7-0.7-1c-0.1-0.2,0.2-0.5,0.3-0.8
			c0.2,0.2,0.4,0.3,0.5,0.5C247.5,338.9,247.8,339.2,248.1,339.6z"/>
		<path d="M200.4,127.5c-3.7-0.2-7.3-0.4-11-0.7c-2.3-0.2-4.6-0.9-6.9-1.3c-1.9-0.4-3.7-0.6-5.6-1c-1.2-0.3-2.4-0.9-3.6-1.4
			c-0.9-0.4-2-0.5-2.8-1c-1.5-1-2.8-2.2-4.1-3.3c-1.3-1.1-2.5-2.3-3.6-3.5c-0.8-0.9-1.7-1.7-2.2-2.9c-0.5-1.5-1.7-2.7-2-4.2
			c-0.3-1.7,0-3.5,0.2-5.2c0.1-0.9,0.5-1.7,0.8-2.6c1.2-3.1,3.5-5.2,6.2-7.1c2.5-1.9,5.4-3.1,8.1-4.4c1.1-0.5,2.4-0.7,3.6-1.1
			c1.4-0.4,2.9-0.8,4.3-1.2c0.2-0.1,0.5-0.2,0.7-0.2c3.1-0.3,6.3-0.7,9.4-1c2.8-0.2,5.6-0.5,8.3-0.5c3,0,6,0.3,9,0.7
			c1.9,0.2,3.8,0.9,5.6,1.3c0.2,0,0.3,0.1,0.5,0.1c1.6,0.3,3.3,0.5,4.9,1c2.2,0.7,4.3,1.5,6.4,2.5c1.7,0.8,3.1,2,4.8,2.9
			c2.5,1.3,4.4,3.3,6.1,5.5c0.7,0.9,1.1,2,1.7,3c1,1.7,1.6,3.5,1.3,5.5c-0.2,1.5-0.7,2.9-1.2,4.3c-0.5,1.3-1.1,2.5-1.9,3.6
			c-0.8,1.1-1.9,2.1-3,2.9c-1.4,1.1-2.8,2.1-4.3,3c-1.4,0.8-2.9,1.3-4.4,2c-1.2,0.5-2.4,1-3.6,1.4c-0.9,0.3-1.8,0.6-2.7,0.8
			c-1.6,0.4-3.3,0.5-5,1c-3.2,0.8-6.5,0.8-9.8,1c-1.5,0.1-3,0.4-4.5,0.7C200.4,127.6,200.4,127.6,200.4,127.5z M229.8,118.1
			c1.1-0.7,2.1-1.2,3-1.8c0.8-0.5,1.8-1,2.3-1.8c1.3-1.7,2.5-3.3,3.5-5.2c1.1-2.4,0.3-4.4-0.5-6.4c-0.4-1.1-1.3-2-2.1-2.9
			c-1.7-2.1-3.9-3.7-6.2-5c-1.2-0.7-2.6-1.3-3.9-1.9c-2.4-1-4.8-2.1-7.3-2.9c-2.3-0.7-4.6-1.2-7-1.6c-2.6-0.4-5.2-0.8-7.8-0.8
			c-5.4,0-10.9-0.7-16.2,0.6c-2.2,0.6-4.6,0.7-6.9,1.1c-1,0.2-1.9,0.5-2.9,0.8c-1.1,0.4-2.2,1-3.3,1.4c-0.9,0.4-2,0.5-2.8,1
			c-1.8,1-3.5,2-5.1,3.1c-0.9,0.6-1.8,1.4-2.6,2.2c-0.8,0.8-1.6,1.6-2.2,2.5c-0.7,1.3-1.3,2.6-1.8,4c-0.6,1.7,0.1,3.4,0.9,4.7
			c1.3,2,3,3.8,4.7,5.5c0.3,0.3,1.1,0.7,1.6-0.2c0.3-0.5,0.7-0.9,1.1-1.3c1.5-1.6,2.9-3.2,4.4-4.7c0.8-0.8,1.7-1.8,2.7-2.3
			c1.5-0.6,2.8-1.9,4.6-1.8c0.2,0,0.5-0.1,0.6-0.3c1-1.4,2.5-2.2,4-2.7c2.4-0.8,4.8-1.3,7.3-1.7c4.2-0.6,8.4,0.3,12.5,0.7
			c0.1,0,0.1,0.1,0.2,0.1c1.2,0.2,2.4,0.5,3.5,0.7c0.8,0.2,1.6,0.4,2.4,0.7c0.4,0.2,0.8,0.5,1.1,0.8c1.4,1,3,1.7,4.2,2.9
			c2.3,2.2,4.7,4.1,7.7,5.1c1.3,0.4,2.5,1,3.7,1.7c1.9,1,2.9,2.5,2.3,4.8C229.6,117.4,229.7,117.7,229.8,118.1z M221.3,113.1
			c-0.8-0.3-1.5-0.4-1.9-0.8c-1.5-1.3-2.9-2.8-4.3-4.2c-0.9-0.9-1.8-0.6-2.3,0.5c-0.3,0.7-0.7,1.5-1.3,2c-2.1,1.9-4.7,2.7-7.3,3.3
			c-2.4,0.6-4.8,0.6-7.3,0.8c-1,0-2-0.5-3-0.5c-3.1,0-6-0.4-9-1.5c-2-0.8-3.9-1.4-5.1-3.3c-0.3-0.4-0.9-1-1.2-1
			c-1.1,0.1-2.2-0.2-3.2,0.8c-0.7,0.8-1.8,1.2-2.5,2.1c-1.3,1.5-2.4,3-3.6,4.6c-0.2,0.3-0.2,1.1,0,1.5c1.5,2.1,3.8,3.1,6.2,3.8
			c1.3,0.4,2.7,0,4.1,0.7c1.5,0.7,3.4,0.6,5.2,0.9c1.8,0.3,3.6,0.7,5.4,0.7c4.6,0.1,9.3,0.1,13.9,0.1c1.6,0,3.2,0,4.8-0.3
			c2.6-0.3,5.2-0.8,7.8-1.3c1.5-0.3,3-0.6,4.5-0.9c0.1,0,0.1-0.1,0.2-0.1c1-0.5,2-0.9,3-1.4c1.1-0.5,2.2-1,3.3-1.6
			c0.4-0.3,0.9-1.3,0.8-1.4c-1.1-1-1.8-2.4-3.5-2.6c-0.8-0.1-1.7-0.5-2.4-1C222,112.5,221.7,112.4,221.3,113.1z M211.9,108
			c-0.3-0.3-0.6-0.6-0.6-0.9c-0.4-1.7-2.1-1.9-3.3-2.6c-0.9-0.5-2.2-0.4-3.1-1c-1.9-1.2-4.3-0.1-6.1-1.4c-3,0.2-6.1-0.6-9.1,0.6
			c-1.4,0.5-3,0-4.5,0.9c-1.3,0.8-2.8,1.2-4.1,1.8c-0.2,0.1-0.4,0.6-0.3,0.8c0.4,0.7,0.7,1.7,1.3,2.1c1.2,0.8,2.2,1.7,3.7,1.9
			c1.9,0.3,3.6,1,5.5,1.4c1.2,0.2,2.4,0.1,3.6,0.2c0.7,0.1,1.4,0.4,2.1,0.4c0.6,0.1,1.3,0,1.9-0.1c0.6-0.1,1.2-0.4,1.8-0.4
			c1.8-0.3,3.7-0.1,5.5-0.7C208.3,110.3,210.4,109.9,211.9,108z"/>
		<path d="M301.1,111.7c-2.6-0.4-4.6-0.5-6.6-1c-1-0.3-2.3-0.6-2.9-1.7c-0.2-0.4-0.2-1-0.1-1.4c0.3-0.6,0.7-1.3,1.2-1.7
			c0.6-0.5,1.3-1.1,2.1-1.3c1.8-0.4,3.7-0.7,5.6-0.7c2.1,0,4.2,0.4,6.2,0.8c0.8,0.2,1.6,0.8,2.4,1.4c0.7,0.4,0.8,1.9,0.3,2.5
			c-1.4,1.6-3,2.6-5.3,2.6C302.9,111,301.8,111.6,301.1,111.7z M293.6,107.2c2.6,2.1,9.9,2.4,13.8,0.9c-0.5-0.4-0.9-1-1.4-1.1
			c-1.7-0.4-3.3-0.8-5-0.8c-2.4,0.1-4.8,0.5-7.3,0.8C293.6,107,293.6,107.1,293.6,107.2z"/>
		<path d="M179.2,147.1c-1.3-0.1-2.8,0-4.3-0.3c-1.1-0.2-2.2-0.8-3.2-1.4c-0.9-0.6-1-2.3-0.2-3c1-0.9,2.2-1.5,3.5-2
			c2.7-1,5.3-0.7,8-0.6c1.9,0.1,4,0.5,5.3,2.3c0.2,0.3,0.4,1,0.3,1.2c-0.8,1-1.7,2.1-2.7,2.7C183.9,147.2,181.6,146.9,179.2,147.1z
			 M186.2,144.2c0.3-1-0.6-1.1-1.3-1.4c-2.1-1.1-4.4-0.7-6.5-1.2c-0.2,0-0.4,0.1-0.6,0.1c-0.9,0.2-1.8,0.4-2.7,0.4
			c-1.1,0-1.7,0.4-2.1,1.3C177.3,145.7,181.6,145.8,186.2,144.2z"/>
		<path d="M194.9,293.9c0,0.1-0.4,0.4-0.4,0.7c0,1.9-1.5,2.6-2.8,3.5c-2.2,1.5-4.7,1-7,0.7c-1.8-0.3-3.5-1.4-4.6-3
			c-0.4-0.5,0.1-2.7,0.4-3.3c0.7-1.5,2.1-1.9,3.2-2.9c0.2-0.2,0.5-0.2,0.8-0.2c1.8,0,3.7-0.3,5.4,0.1c1.6,0.4,3.1,1.5,4.4,2.4
			C194.7,292.1,194.6,293.1,194.9,293.9z M188.7,296.6c0.6,0,1.6,0,2.5-0.2c0.5-0.1,1.2-0.5,1.4-1c0.2-0.4-0.1-1.2-0.4-1.6
			c-1-1.4-2.2-2.4-4.1-2.3c-0.5,0-1.1-0.3-1.6-0.4c-0.3-0.1-0.7-0.1-1,0c-0.8,0.1-1.6,0.2-2.3,0.5c-0.6,0.2-1.1,0.7-1.5,1.1
			c-0.1,0.2,0.3,0.8,0.5,1.2c0.1,0.1,0.1,0.3,0.2,0.4c0.9,1,2.1,1.7,3.4,2C186.7,296.6,187.5,296.6,188.7,296.6z"/>
	</g>
</g>
</svg>
