<?xml version="1.0" encoding="utf-8"?>
<!-- Generator: Adobe Illustrator 26.5.0, SVG Export Plug-In . SVG Version: 6.00 Build 0)  -->
<svg version="1.1" id="Katman_2_xA0_Image_00000114063196161146180280000008274506884036369581_"
	 xmlns="http://www.w3.org/2000/svg" xmlns:xlink="http://www.w3.org/1999/xlink" x="0px" y="0px" viewBox="0 0 120 120"
	 style="enable-background:new 0 0 120 120;" xml:space="preserve">
<g>
	<path d="M69.4,32c0.3,1.1,0.6,1.9,0.8,2.8c0.3,1,1,1.1,1.9,1.1c8.2-0.5,14.4,3.1,18.9,9.7c6.7,10,6,23.8-1.8,33
		c-5.6,6.5-12.7,8.9-21.1,6.7c-0.8-0.2-1.2-0.1-1.8,0.5c-4.7,5.1-9.4,10.3-14,15.4c-1.7,1.9-3.1,2-4.7,0c-0.9-1.1-1.6-2.3-2.3-3.5
		c-2.1-3.7-4-7.5-6.1-11.1c-0.8-1.3-2.2-2.3-3.1-3.6c-3.2-4.4-5.7-9-6.8-14.5c-0.4-2.1-1.9-3.9-2.9-5.8c-0.7-1.3-1.3-2.6-1.8-4
		c-0.2-0.6-0.1-1.5,0.3-2c3.5-5.6,7-11.1,10.6-16.6c0.6-0.9,1.3-1.7,2.1-2.3C41.6,34.6,44,30,47,26c1.9-2.5,3.8-5,6-7.3
		c1.8-1.9,3.7-1.7,5.2,0.5c2.6,3.8,5.1,7.7,7.6,11.6c0.6,0.9,1.1,1.4,2.2,1.3C68.4,32,69,32,69.4,32z M73.8,44.4c1.1,2,2,3.8,3,5.5
		c2.2,3.8,4.3,7.7,6.6,11.5c1.4,2.5,0.5,4.8-1,6.6c-3.5,4.1-7.2,8-10.8,12c-1.2,1.3-2.4,2.6-3.7,4.1c1.4,0.3,2.6,0.6,3.8,0.7
		c7.6,0.6,13.7-2.4,18.2-8.3c5.4-7.1,6.6-15.1,3.9-23.6c-2.2-7.1-6.8-12.4-14-15c-2.6-0.9-5.2-1.2-8.1-0.8c1.3,2,2.5,3.9,3.7,5.8
		c0.1,0.2,0.5,0.2,0.7,0.4c0.2,0.2,0.4,0.4,0.5,0.6c-0.2,0.2-0.5,0.4-0.7,0.5C75.2,44.4,74.6,44.4,73.8,44.4z M37.3,83.2
		c0,0-0.1,0.1-0.1,0.1c0.7,0.8,1.6,1.4,2.1,2.3c2.2,3.9,4.3,8,6.6,11.9c0.7,1.2,1.5,2.2,2.4,3.3c0.6,0.7,1.5,1,2.2,0.4
		c1-0.7,1.9-1.5,2.7-2.4c7.1-7.8,14.3-15.6,21.4-23.5c2.8-3.1,5.5-6.4,8.2-9.6c0.7-0.9,0.8-1.8,0.2-2.9c-2.2-3.8-4.4-7.7-6.5-11.5
		c-1.2-2.2-2.4-4.5-3.6-6.8c-0.6,0.3-1.4,0.7-2.2,1.1c-2-3.2-4-6.5-6-9.7c-0.4-0.7-1-1.5-0.2-2.3c1.2-1.1,0.7-2-0.1-3
		c-0.2-0.3-0.4-0.7-0.6-1c-2.3-3.3-4.5-6.7-6.8-10c-1.1-1.6-2.7-1.7-4.1-0.3c-0.8,0.7-1.6,1.5-2.2,2.4c-2,2.7-3.9,5.5-5.8,8.2
		c-1.4,2-2.8,3.9-4.2,5.9c1.2-0.4,2.2-0.9,3.3-1.2c0.7-0.2,1.5-0.2,2.1-0.5c1.9-1.1,3.9-1.6,6-1.7c5.9-0.3,10.3,2.6,13.8,7
		c4.2,5.3,5.8,11.6,6.2,18.3c0.3,4.8-0.5,9.6-2.1,14.1c-2,5.6-5.1,10.5-10.1,13.9c-3.6,2.5-7.6,3.4-11.9,2.4
		c-1.3-0.3-2.5-0.9-3.8-1.4c-1.8-0.7-3.6-1.4-5.4-2.2C38.4,84.1,37.9,83.6,37.3,83.2z M63.7,60.5c-0.2-1.7-0.2-3.5-0.5-5.2
		c-0.9-6.3-3.1-12.1-8-16.5c-3.6-3.2-7.7-4.5-12.4-2.9c-4.2,1.4-7.1,4.4-9.1,8.2c-4.6,8.7-5.1,17.8-2.4,27.1c1.2,4.2,3.3,8,6.7,11
		c3.5,3.2,7.6,4.4,12.3,3c3.9-1.2,6.6-3.8,8.7-7.1C62.3,72.7,63.6,66.8,63.7,60.5z M48.3,87c2,0.6,4.2,0.6,6.5,0.2
		c4.8-1,8.4-3.9,11.1-7.9c3.8-5.5,5.4-11.7,5.5-18.4c0.1-7.6-1.5-14.7-6.2-20.8c-2.9-3.8-6.7-6.4-11.7-6.7c-1.7-0.1-3.5,0-5.4,0.8
		c0.5,0.2,0.6,0.3,0.8,0.3c2.6,0.3,4.9,1.5,6.8,3.2c5.4,4.7,7.6,11,8.5,17.9c0.7,5.6,0.2,11.1-1.7,16.5c-1.7,4.7-4.1,9-8.4,11.9
		C52.3,85.2,50.1,86,48.3,87z M74.1,42.9c-0.3-0.6-0.7-1.2-1-1.7C71.8,39,70,37.1,69,34.7c-0.7-1.7-1.8-1.9-3.5-1
		c-0.5,0.3-0.7,0.6-0.4,1.1c0.5,0.7,0.9,1.5,1.4,2.2c1.5,2.5,3,4.9,4.5,7.4C71.9,44,72.9,43.5,74.1,42.9z M30.7,48.8
		c-0.1,0-0.1-0.1-0.2-0.1c-0.1,0.1-0.3,0.3-0.4,0.4c-1.5,2.3-2.9,4.7-4.4,7c-0.7,1.1-0.5,2,0.2,2.9c-0.1-3,0.9-4,3.2-3.6
		C29.7,53.2,30.2,51,30.7,48.8z M28.7,59.8c-0.7,0.1-1.3,0.1-1.9,0.1c-0.3,0-0.6,0-0.8-0.1c0,0.3-0.2,0.7,0,1
		c0.9,1.6,1.8,3.2,2.8,4.8c0.1,0,0.2,0,0.3-0.1C28.9,63.7,28.8,61.7,28.7,59.8z M26.5,57.5c0.5,0.6,0.9,1.1,1.3,1.6
		c0.3-0.4,0.7-0.8,0.7-1.2c0-0.7,0-1.6-1-1.6C27.3,56.3,27,56.9,26.5,57.5z"/>
	<path d="M76.7,63.7c0.1-0.6,0.2-1.2,0.4-1.7c0.4-0.9,1.1-1.7,2.2-1.7c0.9,0,1.9,1.2,2,2.4c0.1,0.6,0,1.2-0.2,1.8
		c-0.5,1.5-1.5,2.4-2.6,2.2C77.6,66.4,76.8,65.2,76.7,63.7z M80.7,64.3c-0.1-0.7-0.2-1.2-0.3-1.6c-0.3-0.8-0.8-1.6-1.8-1.4
		c-0.9,0.2-1,1-0.9,1.8c0,0.5,0.1,1,0.4,1.3c0.4,0.5,1.1,1,1.6,1C80,65.5,80.4,64.6,80.7,64.3z"/>
	<path d="M51.7,23.6c0.2-0.4,0.4-1.3,0.9-1.9c0.5-0.8,1.3-1.5,2.4-1.1c0.9,0.3,1.7,1.7,1.4,2.8c-0.1,0.6-0.4,1.2-0.7,1.8
		c-0.6,1-1.4,1.6-2.6,1.2C52,26,51.8,25,51.7,23.6z M55.4,23.7c0-1.3-0.6-2.2-1.5-2.2c-1.1,0.1-1.3,0.8-1.3,1.8
		c0,1.2,0.6,2.2,1.5,2.2C55.3,25.4,55.4,24.6,55.4,23.7z"/>
	<path d="M51.9,96.7c0,1.4-1.3,3.1-2.5,3.1c-1.1,0-2-1-2-2.4c-0.1-1.4,1.2-3.1,2.4-3.1C50.9,94.2,51.8,95.3,51.9,96.7z M50.9,97.4
		c0-1.2-0.7-2.2-1.5-2.2c-0.9,0.1-1.1,0.8-1.1,1.5c0,1.1,0.7,2.2,1.5,2.1C50.8,98.8,50.9,98.1,50.9,97.4z"/>
	<path d="M32.8,60.3c0.2-5.6,1.8-11.1,6.3-15.4c5.6-5.4,13.3-4.6,17.9,2c3.2,4.7,4.2,9.9,3.5,15.5c-0.6,4.4-2.1,8.3-5,11.7
		c-2.3,2.6-5.1,4.4-8.7,4.5c-4.4,0.2-7.6-2-10.1-5.4C33.9,69.5,32.9,65.2,32.8,60.3z M33.6,60.2c0.1,1,0.2,2.1,0.4,3.3
		c0.7,4.6,2.4,8.6,6,11.6c2.8,2.4,6.1,3.1,9.7,2.1c3.1-0.9,5.4-3,7.1-5.7c2-3.1,2.9-6.6,3-10.3c0.2-5.9-1.2-11.3-5.6-15.6
		c-4.1-4-10.2-4.2-14.5-0.4C35.3,49.1,33.9,54.3,33.6,60.2z"/>
	<path d="M49.8,60.3c0.1,2.9-0.7,5.5-2.6,7.6c-2.3,2.6-5.6,2.6-7.9,0c-3.4-3.8-3.5-11.2-0.1-15.1C41.7,50,45,50,47.4,53
		C49,54.9,49.8,57.4,49.8,60.3z M49.4,61.1c-0.1,0-0.2-0.1-0.3-0.1c0-2.3-0.5-4.5-1.8-6.5c-1.2-1.7-2.7-3.1-4.9-2.8
		c-2.1,0.2-3.4,1.7-4.1,3.6c-1.5,4-1,7.9,1.5,11.3c2.3,3.1,6.4,2.8,8.1-0.6C48.6,64.6,48.9,62.8,49.4,61.1z"/>
	<path d="M46.8,59.3c-0.2,0.8-0.2,1.6-0.5,2.4c-0.5,1.6-1.6,2.6-3,2.6c-1.1,0-2.5-1.1-2.9-2.5c-0.5-1.8-0.4-3.5,0.9-5
		c1.1-1.3,2.5-1.3,3.9-0.4C46.3,57.2,46.9,57.9,46.8,59.3z M41,59.5c-0.1,1.3,0.4,2.4,1.4,3.3c1.2,1,2.9,0.5,3.1-1
		c0.2-1,0.1-2.1-0.2-3.1c-0.4-1.3-1.7-2-2.6-1.8C41.5,57.1,41,58,41,59.5z"/>
</g>
</svg>
