<?xml version="1.0" encoding="utf-8"?>
<!-- Generator: Adobe Illustrator 26.5.0, SVG Export Plug-In . SVG Version: 6.00 Build 0)  -->
<svg version="1.1" id="Katman_2_xA0_Image_00000000195399275911817550000005274478764088424372_"
	 xmlns="http://www.w3.org/2000/svg" xmlns:xlink="http://www.w3.org/1999/xlink" x="0px" y="0px" viewBox="0 0 120 120"
	 style="enable-background:new 0 0 120 120;" xml:space="preserve">
<g>
	<path d="M77.7,41.7c3.8-1.4,7.5-2.7,11.1-4.1c1.5-0.6,3.1-0.4,4.4,0.3c2.4,1.2,4.8,2.5,7,4.1c3,2.2,4,6.7,3,10.2
		c-1.3,4.5-4.2,7-8.6,8.3c-3.7,1.2-6.4,3.6-7.9,7.3c-2,5-5.7,8.4-10.3,10.9c-3.3,1.8-6.7,3.4-10.4,3.8c-5.6,0.6-11.3,0.4-16.6-2.1
		C47,79.3,44.6,78,42,77c-0.7-0.3-1.7-0.2-2.4,0.1c-4.5,1.7-9.1,2.5-13.8,1c-1.5-0.5-3.1-1.2-4.4-2.1c-5.2-3.6-6.6-9.4-3.4-14.9
		c1-1.8,2.6-3.2,3.9-4.8c0.3-0.3,0.8-0.5,1.3-0.6c5.2-1.3,10.3-2.7,15.5-4c0.8-0.2,1.4-0.6,1.8-1.3c1.9-3,4.6-5.1,7.5-6.9
		c6.3-3.7,13-5.9,20.3-5.9c1,0,2,0.1,3,0.3C74,38.4,76.3,39.3,77.7,41.7z M59.8,75.1c1-0.1,2.1-0.1,3.2-0.3
		c7.6-1.2,13.7-4.7,17.5-11.6c3.6-6.5,2.4-13.9-2.9-19c-0.3-0.2-0.5-0.5-0.6-0.8c-0.6-1.6-1.8-2.5-3.3-2.9c-1.8-0.5-3.7-1-5.6-1
		c-8.5,0.1-16.2,2.8-23,7.9c-2.5,1.8-4.4,3.9-4.8,7.3c-0.5,4.2-0.2,8.1,2.2,11.7C46.6,72.4,52.6,74.8,59.8,75.1z M39.8,53.2
		c-0.6,0.1-0.9,0.1-1.3,0.2c-4.9,1.2-9.8,2.4-14.6,3.7c-0.4,0.1-0.8,0.3-1,0.5c-1.9,2.1-3.5,4.3-4.3,7.1c-1.6,5.8,1.1,10.5,7,11.9
		c4.4,1.1,8.8,0.5,12.9-1.4c1.5-0.7,2.8-0.6,4.2,0c2.2,1,4.4,1.9,6.5,3c5.1,2.5,10.6,3,16.1,2.3c5.2-0.6,9.9-2.9,14.2-6
		c2.7-1.9,4.6-4.5,5.8-7.5c1.4-3.5,3.6-6.3,7.4-7.5c1.7-0.5,3.4-1,5-1.6c3.4-1.1,4.4-4.1,4.7-7c0.3-2.9-0.9-5.7-3.2-7.6
		c-2.1-1.8-4.7-3-7.1-4.3c-0.5-0.3-1.2-0.3-1.7-0.2c-3.6,1.2-7.2,2.5-10.7,3.7c-0.2,0.1-0.5,0.2-0.7,0.4c0.1,0.2,0.2,0.3,0.2,0.4
		c5.3,6.5,5.8,13.6,2.3,20.9c-4.4,9.3-16,14.5-26.5,12.2C48.1,75,43,71.3,40.3,64.8C38.9,61.1,38.7,57.3,39.8,53.2z"/>
	<path d="M66.4,65.5c-2,0.4-3.8-2.1-3.7-4.8c0.2-2.5,1.9-4.4,4.2-4.3c2.5,0.1,4.1,2.1,4,4.8C70.9,64,69.2,65.6,66.4,65.5z
		 M70.1,60.8c-0.2-0.3-0.4-1-0.9-1.4c-1-1-2.2-1.3-3.5-0.8c-1.1,0.4-1.9,1.1-2,2.3c-0.1,1.4,0.9,2.1,2,2.7c0,0,0.1,0,0.1,0.1
		C67.5,64.5,70.1,63,70.1,60.8z"/>
	<path d="M30.4,71.5c-3.6,0-6-2-6.2-5.1C24,63,26.5,60.1,30,59.7c1-0.1,2.1-0.1,3.1,0.2c2.4,0.5,4,2,4.4,4.5
		c0.4,2.5-0.5,4.6-2.7,5.8c-1.3,0.7-2.9,1.1-4.3,1.6C30.5,71.7,30.5,71.6,30.4,71.5z M31.3,61.7c-2,0.1-4,0.7-5.4,2.5
		c-1.1,1.4-1,2.5,0.2,3.7c2.7,2.7,7.9,2.1,10-1.1c0.8-1.2,0.7-2.1-0.2-3.2C34.8,62.2,33.1,61.8,31.3,61.7z"/>
	<path d="M89.9,54.1c-3.7-0.1-6-2.4-5.9-5.8c0.1-3.3,2.7-5.6,6.3-5.5c3.4,0.1,5.9,2.6,5.8,5.8C96,51.9,93.3,54.2,89.9,54.1z
		 M90.4,44.8c-2.3,0-4.1,0.9-5,2.3c-0.7,1-0.7,1.9,0,2.9c2,3.1,7.4,3,9.3-0.1c0.6-0.9,0.6-1.8,0-2.7C93.6,45.4,92,44.9,90.4,44.8z"
		/>
</g>
</svg>
