<?xml version="1.0" encoding="UTF-8"?><svg id="Layer_1" xmlns="http://www.w3.org/2000/svg" viewBox="0 0 500 500"><defs><style>.cls-1{stroke-width:1.1px;}.cls-1,.cls-2,.cls-3,.cls-4,.cls-5,.cls-6,.cls-7,.cls-8,.cls-9,.cls-10,.cls-11,.cls-12,.cls-13,.cls-14,.cls-15,.cls-16,.cls-17,.cls-18,.cls-19,.cls-20,.cls-21,.cls-22,.cls-23,.cls-24,.cls-25,.cls-26,.cls-27,.cls-28,.cls-29,.cls-30,.cls-31,.cls-32,.cls-33,.cls-34,.cls-35,.cls-36,.cls-37,.cls-38,.cls-39,.cls-40,.cls-41{fill:none;stroke:#1d1d1b;stroke-miterlimit:10;}.cls-2{stroke-width:1.1px;}.cls-3{stroke-width:1.06px;}.cls-4{stroke-width:3.88px;}.cls-5{stroke-width:3.84px;}.cls-6{stroke-width:.83px;}.cls-7{stroke-width:.88px;}.cls-8{stroke-width:3.78px;}.cls-9{stroke-width:4.91px;}.cls-10{stroke-width:4.89px;}.cls-11{stroke-width:5.09px;}.cls-12{stroke-width:4.65px;}.cls-13{stroke-width:.92px;}.cls-14{stroke-width:5.27px;}.cls-15{stroke-width:5.12px;}.cls-16{stroke-width:5.29px;}.cls-17{stroke-width:5.16px;}.cls-18{stroke-width:5.34px;}.cls-19{stroke-width:1.18px;}.cls-20{stroke-width:5.15px;}.cls-21{stroke-width:5.28px;}.cls-22{stroke-width:3.84px;}.cls-23{stroke-width:.97px;}.cls-24{stroke-width:.96px;}.cls-25{stroke-width:5.4px;}.cls-26{stroke-width:4.93px;}.cls-27{stroke-width:4.93px;}.cls-28{stroke-width:4.63px;}.cls-29{stroke-width:5.36px;}.cls-30{stroke-width:5.46px;}.cls-31{stroke-width:.99px;}.cls-32{stroke-width:1px;}.cls-33{stroke-width:5.45px;}.cls-34{stroke-width:5.56px;}.cls-35{stroke-width:5.54px;}.cls-36{stroke-width:.97px;}.cls-37{stroke-width:5.37px;}.cls-38{stroke-width:5.39px;}.cls-39{stroke-width:5.39px;}.cls-40{stroke-width:4.77px;}.cls-41{stroke-width:5.59px;}</style></defs><path class="cls-27" d="M289.42,149.93c41.8,10.26,108.72,43.11,109.48,85.2,.83,46.47-79.22,91.1-148.83,91.12-69.36,.02-149.49-44.22-148.83-91.12,.58-41.13,63.15-73.77,102.37-84.49,10.25-2.8,44-10.97,85.82-.71Z"/><path class="cls-15" d="M395.22,253.29c0,55.16-65.73,102.16-146.82,102.16s-146.82-44.71-146.82-99.87c0-5.15-1.1-10.21,0-15.15"/><path class="cls-8" d="M305.52,164.38c35.69,11.7,59.81,34.07,59.81,59.74,0,37.78-52.25,68.4-116.7,68.4s-116.7-30.62-116.7-68.4c0-26.58,25.86-49.61,63.63-60.94"/><ellipse class="cls-12" cx="248.83" cy="180.8" rx="61.38" ry="36.26"/><path class="cls-22" d="M185.99,184.09s-5.89,1.86-13.77,5.04c-5.89,2.38-12.88,5.5-19.37,9.14-4.01,2.25-7.47,4.75-10.27,6.67-3.45,2.37-6.29,4.46-8.36,6.02"/><line class="cls-11" x1="115.79" y1="270.47" x2="115.79" y2="296.34"/><line class="cls-40" x1="108.71" y1="260.11" x2="108.1" y2="282.77"/><line class="cls-17" x1="124.36" y1="280.08" x2="124.36" y2="306.62"/><line class="cls-18" x1="133.42" y1="286.88" x2="133.42" y2="315.33"/><line class="cls-14" x1="145.6" y1="296.34" x2="145.6" y2="324.04"/><line class="cls-30" x1="159.84" y1="303.16" x2="159.84" y2="332.9"/><line class="cls-33" x1="174.64" y1="310.42" x2="174.64" y2="340.06"/><line class="cls-34" x1="193.05" y1="316.48" x2="193.05" y2="347.28"/><line class="cls-41" x1="211.67" y1="321.03" x2="211.67" y2="352.21"/><line class="cls-35" x1="229.59" y1="324.04" x2="229.59" y2="354.64"/><line class="cls-37" x1="249.77" y1="325.87" x2="249.77" y2="354.64"/><line class="cls-25" x1="269.53" y1="324.74" x2="269.53" y2="353.76"/><line class="cls-39" x1="288.36" y1="322.28" x2="288.36" y2="351.24"/><line class="cls-29" x1="306.7" y1="317.09" x2="306.7" y2="345.72"/><line class="cls-16" x1="323.7" y1="311.64" x2="323.7" y2="339.56"/><line class="cls-38" x1="340.05" y1="303.76" x2="340.05" y2="332.67"/><line class="cls-21" x1="354.64" y1="294.5" x2="354.64" y2="322.28"/><line class="cls-26" x1="365.79" y1="288.48" x2="365.79" y2="312.72"/><line class="cls-9" x1="375.25" y1="280.79" x2="375.25" y2="304.82"/><line class="cls-28" x1="382.54" y1="273.28" x2="382.54" y2="294.62"/><line class="cls-4" x1="172.44" y1="172.98" x2="172.44" y2="189.14"/><line class="cls-4" x1="183.35" y1="168.44" x2="183.35" y2="184.61"/><line class="cls-5" x1="159.75" y1="180.07" x2="159.75" y2="195.92"/><ellipse class="cls-20" cx="250.81" cy="178.61" rx="31.96" ry="16.94"/><ellipse class="cls-19" cx="218.06" cy="195.92" rx="6.85" ry="4.14"/><ellipse class="cls-3" cx="208.72" cy="187.17" rx="6.85" ry="3.33"/><ellipse class="cls-31" cx="206.88" cy="175.27" rx="5.97" ry="3.33"/><ellipse class="cls-31" cx="211.21" cy="167.04" rx="5.97" ry="3.33"/><ellipse class="cls-31" cx="223.15" cy="159.85" rx="5.97" ry="3.33"/><ellipse class="cls-31" cx="241.77" cy="154.93" rx="5.97" ry="3.33"/><ellipse class="cls-31" cx="263.7" cy="155.72" rx="5.97" ry="3.33"/><ellipse class="cls-31" cx="281.12" cy="162.01" rx="5.97" ry="3.33"/><ellipse class="cls-31" cx="291.35" cy="170.37" rx="5.97" ry="3.33"/><ellipse class="cls-31" cx="294.02" cy="179.1" rx="5.97" ry="3.33"/><ellipse class="cls-31" cx="289.15" cy="190.5" rx="5.97" ry="3.33"/><ellipse class="cls-31" cx="277.96" cy="198.58" rx="5.97" ry="3.33"/><ellipse class="cls-31" cx="176.71" cy="302.24" rx="5.97" ry="3.33"/><ellipse class="cls-31" cx="194.56" cy="307.09" rx="5.97" ry="3.33"/><ellipse class="cls-31" cx="212.76" cy="311.25" rx="5.97" ry="3.33"/><ellipse class="cls-31" cx="232.07" cy="313.75" rx="5.97" ry="3.33"/><ellipse class="cls-2" cx="119.09" cy="257.1" rx="5.97" ry="4.14" transform="translate(-26.22 13.86) rotate(-6)"/><ellipse class="cls-31" cx="114.49" cy="247.01" rx="5.97" ry="3.33"/><ellipse class="cls-1" cx="111.95" cy="236.95" rx="4.17" ry="5.97" transform="translate(-142.18 300.93) rotate(-78.84)"/><ellipse class="cls-1" cx="112.7" cy="225.96" rx="4.17" ry="5.97" transform="translate(-130.8 292.81) rotate(-78.84)"/><ellipse class="cls-1" cx="115.53" cy="214.98" rx="4.17" ry="5.97" transform="translate(-117.74 286.73) rotate(-78.84)"/><ellipse class="cls-1" cx="120.09" cy="204.76" rx="4.17" ry="5.97" transform="translate(-104.03 282.96) rotate(-78.84)"/><ellipse class="cls-1" cx="126.84" cy="195.81" rx="4.17" ry="5.97" transform="translate(-89.81 282.37) rotate(-78.84)"/><ellipse class="cls-32" cx="136.25" cy="187.06" rx="4.17" ry="4.93" transform="translate(-73.64 284.54) rotate(-78.84)"/><circle class="cls-13" cx="146.69" cy="178.95" r="4.17"/><ellipse class="cls-23" cx="159.23" cy="171.56" rx="4.17" ry="4.57" transform="translate(-39.9 294.59) rotate(-78.84)"/><ellipse class="cls-24" cx="172.45" cy="165.09" rx="4.17" ry="4.48" transform="translate(-22.89 302.34) rotate(-78.84)"/><ellipse class="cls-36" cx="185.63" cy="159.71" rx="4.17" ry="4.65" transform="translate(-6.98 310.93) rotate(-78.84)"/><ellipse class="cls-6" cx="127.21" cy="268.3" rx="3.33" ry="4.23" transform="translate(-169.69 272.99) rotate(-65.54)"/><ellipse class="cls-31" cx="136.42" cy="277.7" rx="3.33" ry="5.97" transform="translate(-172.84 286.88) rotate(-65.54)"/><ellipse class="cls-31" cx="162.44" cy="294.03" rx="3.33" ry="5.97" transform="translate(-172.47 320.13) rotate(-65.54)"/><ellipse class="cls-31" cx="147.64" cy="285.95" rx="3.33" ry="5.97" transform="translate(-173.78 301.92) rotate(-65.54)"/><ellipse class="cls-31" cx="251.41" cy="314.59" rx="5.97" ry="3.33"/><ellipse class="cls-31" cx="270.57" cy="313.75" rx="5.97" ry="3.33"/><ellipse class="cls-31" cx="290.54" cy="311.25" rx="5.97" ry="3.33"/><ellipse class="cls-31" cx="308.86" cy="307.09" rx="5.97" ry="3.33"/><ellipse class="cls-31" cx="325.5" cy="301.49" rx="5.97" ry="3.33"/><ellipse class="cls-31" cx="340.89" cy="294.62" rx="5.97" ry="3.33"/><ellipse class="cls-31" cx="355.28" cy="287.02" rx="5.97" ry="3.33"/><ellipse class="cls-31" cx="366.26" cy="277.45" rx="5.97" ry="3.33"/><ellipse class="cls-31" cx="376.31" cy="268.65" rx="5.97" ry="3.33"/><ellipse class="cls-31" cx="382.54" cy="257.26" rx="5.97" ry="3.33"/><ellipse class="cls-31" cx="387.38" cy="247.49" rx="5.97" ry="3.33"/><ellipse class="cls-31" cx="388.51" cy="236.68" rx="5.97" ry="3.33"/><ellipse class="cls-31" cx="388.51" cy="225.87" rx="5.97" ry="3.33"/><ellipse class="cls-31" cx="384.96" cy="215.07" rx="5.97" ry="3.33"/><ellipse class="cls-31" cx="380.8" cy="205.19" rx="5.97" ry="3.33"/><ellipse class="cls-31" cx="373.62" cy="195.8" rx="5.97" ry="3.33"/><ellipse class="cls-31" cx="363.68" cy="187.65" rx="5.97" ry="3.33"/><ellipse class="cls-31" cx="354.2" cy="179.51" rx="5.97" ry="3.33"/><ellipse class="cls-31" cx="341.37" cy="172.02" rx="5.97" ry="3.33"/><ellipse class="cls-31" cx="328.16" cy="165.86" rx="5.97" ry="3.33"/><ellipse class="cls-31" cx="313.22" cy="160.87" rx="5.97" ry="3.33"/><ellipse class="cls-7" cx="299.21" cy="157.18" rx="4.72" ry="3.33"/><path class="cls-10" d="M308.67,166.92c2.41,3.6,5.72,9.33,7.81,16.92,0,0,0,42.04,0,42.04h0s-7.51,28-60.62,31.97c0,0-61.61,2.69-72.51-35.12,.3-13.73,.59-27.46,.89-41.2"/></svg>