<?xml version="1.0" encoding="utf-8"?>
<!-- Generator: Adobe Illustrator 26.5.0, SVG Export Plug-In . SVG Version: 6.00 Build 0)  -->
<svg version="1.1" id="Katman_2_xA0_Image_00000128487085242745294310000007736463268788695951_"
	 xmlns="http://www.w3.org/2000/svg" xmlns:xlink="http://www.w3.org/1999/xlink" x="0px" y="0px" viewBox="0 0 120 120"
	 style="enable-background:new 0 0 120 120;" xml:space="preserve">
<g>
	<path d="M94.1,30.2c1.5,0,3,0,4.5,0c0.3,0,0.7,0.1,1,0.3c0.3,0.1,0.5,0.4,0.7,0.6c1.4,2,3.3,3,5.7,3.1c1.7,0.1,2.7,1.4,3.2,2.8
		c0.2,0.6,0.1,1.5-0.2,2c-0.4,0.8-0.4,1.4-0.1,2.2c0.9,2.1,1.1,4.1-0.6,6c-0.5,0.5-0.7,1.6-0.6,2.3c0.1,2.1-0.7,3.5-2.5,4.5
		c-1.6,0.9-2.9,2.1-3.1,4.1c-0.1,0.7,0.1,1.4,0.2,2.1c0.2,1.4,0.5,2.9,0.6,4.3c0.1,0.9-0.2,1.8-0.1,2.6c0.2,1.9,1,3.4,2.8,4.3
		c0.2,0.1,0.4,0.2,0.7,0.3c3.4,1.7,3.7,2.4,3.1,6.1c-0.2,1-0.3,2.1-0.4,3.1c0,2.4-1.1,4.1-3.3,4.7c-1.9,0.5-3.1,1.7-4.2,3.1
		c-0.6,0.8-1.2,1-2.2,1.1c-1.7,0-3.4,0.2-5.1,0.4c-2.8,0.4-5.1-0.3-6.9-2.6c-0.3-0.4-1.3-0.6-1.9-0.5c-3.9,0.4-6.6-2-6.6-5.9
		c0-1.5,0.1-3,0.1-4.5c0-2-0.5-3.8-2.2-5.1c-1.8-1.4-2-3.1-1.4-5.1c0.3-1,0.1-1.7-0.7-2.4c-2.7-2.4-2.8-4.7-0.7-7.6
		c0.9-1.2,1.3-2.3,1-3.8c-0.4-2.2,0.4-4,2.3-5.2c0.9-0.6,1.4-1.3,1.3-2.4c-0.1-1.9-0.2-3.8-0.2-5.7c0-0.9,0.2-1.9,0.4-2.8
		c0.6-2,2.1-3.1,4.2-3.1c1.6,0,3.1-0.4,4.2-1.5c1.4-1.4,3-2,4.9-1.8C92.7,30.3,93.4,30.2,94.1,30.2C94.1,30.2,94.1,30.2,94.1,30.2z
		 M94.5,30.7C94.5,30.7,94.5,30.7,94.5,30.7c-0.7,0-1.4,0.1-2.2,0c-1.8-0.2-3.1,0.4-4.4,1.6c-1.1,1.2-2.6,1.6-4.2,1.6
		c-2.2,0-3.6,1.1-4.2,3.3c-0.2,0.8-0.3,1.7-0.3,2.5c0,2,0.1,3.9,0.1,5.9c0,1.1-0.4,1.8-1.4,2.4c-1.9,1.1-2.7,2.9-2.3,4.9
		c0.4,1.8-0.2,3-1.1,4.3c-2.1,2.9-1.9,4.7,0.8,7.1c0.8,0.7,1.1,1.5,0.8,2.5c-0.7,2-0.3,3.7,1.4,5c1.6,1.3,2.2,3,2.2,5
		c0,1.7-0.1,3.4-0.1,5c0,2.6,1.2,4.4,3.4,4.9c0.7,0.2,1.6,0.1,2.4,0.1c1,0,2.1,0,2.8,1c1.3,1.8,3,2.5,5.2,2.2
		c1.6-0.2,3.2-0.5,4.7-0.5c1.3,0,2.2-0.3,3-1.4c0.9-1.3,2-2.1,3.6-2.5c2.3-0.6,3.5-2.2,3.5-4.7c0-0.9,0.1-1.8,0.3-2.6
		c0.8-3.9,0.4-4.6-3.2-6.3c-0.1,0-0.2,0-0.2-0.1c-0.8-0.8-1.9-1.4-2.4-2.4c-0.5-1.1-0.7-2.4-0.7-3.7c0-2,0.3-3.9-0.7-5.7
		c-0.2-0.5-0.2-1.2-0.1-1.8c0.2-2,1.4-3.4,3.1-4.3c1.8-1,2.8-2.4,2.6-4.6c-0.1-0.8,0.1-1.8,0.6-2.3c1.8-1.9,1.5-3.9,0.5-6
		c-0.4-0.8-0.2-1.4,0.1-2.1c0.3-0.7,0.3-1.6,0.1-2.2c-0.5-1.6-1.8-2.3-3.4-2.3c-1.3-0.1-2.7-0.1-3.5-1.3c-1.5-2.2-3.5-2.8-6-2.4
		C95,30.7,94.8,30.7,94.5,30.7z"/>
	<path d="M55.1,72.9c-0.9-0.4-1.6,0.1-2.3,0.9c-1.7,2-4,2.2-6.5,1.8c-1.6-0.3-3.3-0.6-5-0.7c-0.6,0-1.5,0.3-1.9,0.7
		c-2.1,2.4-4.8,3-7.8,2.6c-1.8-0.2-3.6-0.4-5.4-0.7c-1.4-0.2-2.3-1.1-2.7-2.4c-0.1-0.4-0.3-0.7-0.5-1.1c-0.9-1.7-2.3-2.3-4.2-1.9
		c-3.2,0.8-5.5-0.8-6.3-3.9c-1-4.1-0.5-8.2-0.4-12.4c0.1-3.7,0.3-7.3,0.4-11c0.1-3.7,2.4-5.8,6.1-5.6c1,0.1,2,0.2,3,0.3
		c0.9,0.1,1.5-0.3,1.7-1.2c0.6-2.6,2.6-3.5,5-3.7c2.5-0.2,5.1-0.1,7.7,0c1,0.1,2.1,0.5,3,1c1.3,0.7,2.5,0.9,4,0.7
		c1.9-0.4,3.9-0.5,5.8-0.7c1.1-0.1,2.1,0.3,2.9,1.2c1.1,1.3,2.5,2.1,4.4,1.8c1.5-0.3,2.7,0.6,3.7,1.6c2,1.9,3.9,3.8,5.8,5.7
		c0.9,0.9,1.6,1.8,1.5,3.3c-0.1,1.6,0.3,3.3,0.4,4.9c0.1,2.4,0.1,4.8,0.2,7.2c0,1.5-0.9,2.6-1.9,3.6c-2.2,2.3-4.5,4.6-6.7,6.8
		C57.9,72.9,56.6,73,55.1,72.9z M12.9,60.8c-0.5,2.8,0.1,5.6,0.7,8.4c0.4,1.7,2.7,3.1,4.4,2.7c2.9-0.8,5.4,0,6.5,3.4
		c0.3,1,1,1.8,2.1,1.9c1.8,0.3,3.5,0.4,5.3,0.7c2.5,0.3,4.7-0.3,6.5-2.3c0.7-0.8,1.7-1.2,2.8-1.1c1.8,0.2,3.7,0.3,5.4,0.7
		c2.1,0.4,4,0.1,5.3-1.6c1-1.3,2.1-1.2,3.4-1.2c0.9,0.1,2.2-0.3,2.8-0.9c2.5-2.3,4.9-4.8,7.2-7.4c0.7-0.8,1.2-1.9,1.3-3
		c0.1-2.2,0-4.5-0.1-6.7c-0.1-1.5-0.4-2.9-0.4-4.4c0-1.4-0.4-2.5-1.4-3.4c-2.2-2.2-4.4-4.3-6.7-6.4c-0.5-0.5-1.4-0.9-2-0.8
		c-2.2,0.3-3.8-0.5-5.2-2.1c-0.8-1-1.8-1.2-3-1.1c-1.6,0.2-3.2,0.4-4.7,0.7c-1.7,0.3-3.3,0.2-4.8-0.8c-0.7-0.5-1.6-0.9-2.4-0.9
		c-2.4-0.1-4.9-0.2-7.3-0.1c-2.1,0.1-3.8,1.1-4.4,3.4c-0.3,1.1-1,1.5-2,1.5c-0.9,0-1.8-0.1-2.7-0.2c-3.7-0.4-5.9,1.5-6,5.2
		C13.3,50.2,13.1,55.5,12.9,60.8z"/>
	<path d="M94.2,32.4c1.4,0,2.8,0,4.2,0c1.5,0,2.5,0.9,2.4,2.3c0,1.3-0.1,2.7-0.2,4c-0.1,1.1-0.8,1.6-1.8,1.7c-3,0-6,0.1-9,0
		c-1.2,0-2-0.9-1.9-2.1c0-1.2,0-2.5,0-3.7c0.1-1.5,1-2.3,2.5-2.3C91.7,32.4,93,32.4,94.2,32.4C94.2,32.4,94.2,32.4,94.2,32.4z
		 M94.2,33C94.2,33,94.2,33,94.2,33c-1.2,0-2.5,0-3.7,0c-1.3,0-1.6,0.3-1.6,1.6c0,1.2,0,2.3,0,3.5c0,1.1,0.5,1.8,1.6,1.8
		c2.8,0.1,5.6,0,8.5,0c0.3,0,0.8-0.5,0.8-0.8c0.2-1.4,0.3-2.8,0.3-4.2c0-1.2-0.7-1.9-1.9-1.9C96.7,33,95.5,33,94.2,33z"/>
	<path d="M94.9,68c-1.3-0.1-2.6-0.1-3.9-0.3c-1.9-0.2-3-1.6-2.8-3.4c0.1-0.6,0.2-1.3,0.4-1.9c0.8-2.9,1.1-3.1,4.1-3.1
		c1.8,0,3.6,0.1,5.4,0.3c1.3,0.1,2.4,1.2,2.5,2.8c0,1.2-0.2,2.5-0.5,3.7c-0.3,1.2-1.3,1.8-2.6,1.8C96.6,67.9,95.8,68,94.9,68
		C94.9,68,94.9,68,94.9,68z M94.8,67.3C94.8,67.3,94.8,67.4,94.8,67.3c0.9,0,1.8,0,2.8,0.1c0.9,0.1,1.5-0.3,1.6-1.1
		c0.3-1.3,0.5-2.6,0.5-3.9c-0.1-1.5-1-2.2-2.6-2.3c-1.2-0.1-2.3-0.2-3.5-0.2c-3.7,0-3.8,0-4.4,3.8c0,0.2,0,0.3-0.1,0.5
		c-0.1,1.9,0.9,3,2.8,3.1C92.9,67.4,93.8,67.3,94.8,67.3z"/>
	<path d="M77.6,56.8c2,0,3.7,1.7,3.7,3.7c0,1.8-1.2,3-3,3c-2,0-3.6-1.7-3.6-3.6C74.7,58.1,75.9,56.8,77.6,56.8z M77.9,58.2
		c-1,0-1.7,0.9-1.7,2c0,1,0.8,1.8,1.7,1.8c0.9,0,1.7-0.8,1.7-1.8C79.6,59.1,78.8,58.2,77.9,58.2z"/>
	<path d="M94.8,79.8c1.5,0,2.9-0.1,4.4,0c1,0,1.9,0.5,1.9,1.6c0,1.8-0.2,3.6-0.5,5.3c-0.1,0.3-0.8,0.8-1.2,0.8
		c-3.3-0.1-6.5-0.2-9.8-0.3c-0.8,0-1.4-0.4-1.4-1.3c0-1.5,0-3,0.1-4.5c0.1-1.4,0.7-1.7,2.1-1.7c1.5,0,3,0,4.4,0
		C94.8,79.7,94.8,79.8,94.8,79.8z M94.4,80.4c0,0,0-0.1,0-0.1c-1.4,0-2.7,0-4.1,0c-0.7,0-1.1,0.3-1.2,1c-0.1,1.4-0.1,2.8-0.2,4.3
		c0,0.9,0.5,1.3,1.4,1.3c2.8,0.1,5.6,0.2,8.3,0.3c0.4,0,1-0.3,1.1-0.6c0.2-1.4,0.4-2.9,0.5-4.3c0.1-1.3-0.8-1.7-1.9-1.8
		C97,80.3,95.7,80.4,94.4,80.4z"/>
	<path d="M94.2,49c1.4,0,2.4,0.9,2.4,2.3c0,1.1-0.7,1.9-1.8,1.9c-1.4,0-2.5-1-2.5-2.4C92.2,49.8,93,49,94.2,49z"/>
	<path d="M99.6,49.6c0-1.6,1.2-2.8,3-2.7c1.6,0,2.9,1.3,2.9,3c0,1.5-1.4,2.8-3,2.8C100.9,52.7,99.6,51.3,99.6,49.6z M100.5,49.6
		c0,1.4,1.1,2.6,2.3,2.6c1,0,1.8-0.9,1.7-2.2c0-1.3-1.1-2.6-2.3-2.6C101.2,47.3,100.5,48.3,100.5,49.6z"/>
	<path d="M104.4,41.6c1.5,0,2.7,1.1,2.6,2.4c0,1.2-1,2-2.4,2c-1.4,0-2.5-1-2.5-2.3C102.1,42.4,103,41.6,104.4,41.6z M106.1,44
		c0-1-0.9-2-1.7-1.9c-0.9,0.1-1.3,0.7-1.3,1.5c0,1,0.9,2,1.7,1.9C105.7,45.4,106,44.8,106.1,44z"/>
	<path d="M105.1,78.6c-1.5-0.1-2.6-1-2.6-2.3c0-1.2,1.1-2.1,2.4-2c1.6,0,2.7,1,2.6,2.4C107.4,77.8,106.4,78.6,105.1,78.6z
		 M103.5,76.7c0.1,0.7,0.5,1.4,1.5,1.4c0.9,0,1.6-0.8,1.6-1.7c0-0.9-0.7-1.6-1.5-1.6C104.1,74.8,103.4,75.6,103.5,76.7z"/>
	<path d="M77.5,68.7c0-1.2,0.8-2,1.9-2c1.4,0,2.8,1.3,2.8,2.7c0,1.1-0.9,2-1.9,2C78.8,71.4,77.5,70.1,77.5,68.7z M78.4,68.9
		c0,1.1,0.7,1.9,1.4,1.9c0.8,0,1.4-0.9,1.4-1.8c-0.1-0.9-0.4-1.7-1.4-1.8C79.1,67.1,78.4,68,78.4,68.9z"/>
</g>
</svg>
