<?xml version="1.0" encoding="utf-8"?>
<!-- Generator: Adobe Illustrator 26.5.0, SVG Export Plug-In . SVG Version: 6.00 Build 0)  -->
<svg version="1.1" id="Katman_3_xA0_Image_00000024000053499485265730000002308563197348641706_"
	 xmlns="http://www.w3.org/2000/svg" xmlns:xlink="http://www.w3.org/1999/xlink" x="0px" y="0px" viewBox="0 0 120 120"
	 style="enable-background:new 0 0 120 120;" xml:space="preserve">
<g>
	<path d="M95.6,37.1c-0.3,3.8-2.1,7-4.2,10.1c-0.7,1.1-1.2,2.4-1.7,3.6c-0.2,0.6-0.1,0.9,0.6,1.2c4.6,2,9.1,4.1,13.6,6.1
		c1,0.4,1.6,1.5,1.2,2.5c-0.3,0.8-0.6,1.6-1,2.3C97.5,73.1,91,83.2,84.4,93.4c-0.9,1.4-1.8,2.9-2.7,4.3c-1.4,2.2-2.8,3.1-5.8,1.8
		c-21.4-9.2-42.8-18.3-64.3-27.4c-0.6-0.3-1.4-0.5-1.8-1c-1.3-1.3-1.1-3.1,0.2-4.6c2.9-3.2,5.8-6.5,8.6-9.8
		c6.5-7.7,12.9-15.4,19.4-23.1c1.1-1.2,2.5-0.8,3.8-0.3c1,0.4,1.4,0.2,2.1-0.5c2-2.3,4-4.6,6.2-6.7c2.8-2.6,6.3-3.4,9.9-2.9
		c8.1,1.1,16.1,2.4,24.2,3.8c3.8,0.6,7,2.5,9.7,5.3C95,33.7,95.5,35.3,95.6,37.1z M62.9,60.8c6.9-0.1,9.3-0.4,13.5-2.5
		c2.6-1.3,5.3-2.5,7.6-4.2c3.8-2.7,6.4-6.6,8.7-10.5c1.3-2.2,2.2-4.5,1.9-7.1c-0.2-1.6-0.6-2.9-1.7-4.1c-2.8-3-6.3-4.3-10.2-4.9
		c-7.2-1.1-14.3-2.4-21.4-3.4c-4-0.6-7.9,0-11,3c-2,1.9-3.9,3.9-5.6,6.1c-4.8,6.1-10.4,11.5-14.5,18.1c-0.4,0.6-0.4,1.1-0.1,1.7
		c0.9,1.8,2.4,2.8,4.2,3.2c4.5,1,9.1,2,13.6,3C52.6,60.3,57.4,61,62.9,60.8z M31.8,56.5c1.2,1.7,0.5,3.3-0.9,4.9
		c-1,1.1-2,2.3-2.9,3.5c-0.3,0.4-0.7,0.9-0.7,1.4c0,1.9,0,3.7,0.1,5.6c0,0.4,0.3,0.8,0.7,1c2.1,1.2,4.2,2.5,6.4,3.4
		c6.9,2.8,13.8,5.4,20.7,8c1.9,0.7,4.1,1.2,6.1,1.3c2.8,0.2,5.6,0.2,8.3-0.1c4.7-0.5,9.2-2,12.5-5.5c2.2-2.3,3.8-5.1,5.5-7.8
		c2.7-4.1,3.3-8.4,1.7-13.2c-0.8-2.6-0.7-5.4-1.1-8.1c0.2-0.1,0.1-0.1,0.1,0c-3.9,4.9-9.4,7.1-14.9,9.2c-4.4,1.6-9.1,1.5-13.7,1.4
		c-4.6-0.1-9.2-0.9-13.7-1.9C41.4,58.6,36.6,57.5,31.8,56.5z M42.6,34.4c-1-0.3-1.8-0.6-2.5-0.7c-0.4-0.1-1,0.2-1.3,0.5
		c-6.2,7.3-12.3,14.6-18.5,21.9c-3.1,3.7-6.2,7.4-9.3,11.1c-0.9,1.1-0.7,1.7,0.4,2.2C26.1,75.7,40.8,82,55.6,88.3c7,3,14.1,6,21.1,9
		c1.7,0.7,3.3,0.5,4.6-0.9c0.5-0.6,1.1-1.1,1.5-1.7c3.5-5.4,6.9-10.8,10.4-16.2c3.6-5.7,7.3-11.3,11-16.9c0.7-1.1,0.4-2.4-0.9-2.9
		c-3.7-1.7-7.3-3.3-11-4.9c-0.9-0.4-1.8-0.8-3.1-1.3c0.5,2.8,0.7,5.2,1.3,7.5c0.8,3,0.9,5.9-0.1,8.8c-1.3,3.8-3.8,7.1-6.1,10.4
		c-3.1,4.3-7.8,6.1-12.7,7c-2.6,0.5-5.3,0.2-8,0.3c-3.5,0.2-6.8-0.6-10.1-1.9c-6.4-2.5-12.8-4.8-19.1-7.4c-2.4-1-4.7-2.4-7-3.6
		c-0.4-0.2-0.7-0.9-0.8-1.4c-0.2-1.8-0.2-3.7-0.3-5.5c0-0.4,0.1-0.9,0.4-1.3c1.1-1.4,2.2-2.7,3.3-4c1.1-1.2,2.1-2.5,1.2-4.3
		c-0.5-1-1-2-1.6-2.9c-0.8-1.3-0.8-2.6,0.2-3.8c1.8-2.3,3.6-4.7,5.4-7c0.2-0.3,0.3-0.7,0.3-1c-0.1-1.2,0.6-2.1,1.8-2.3
		c0.4-0.1,0.8-0.1,1.1-0.4C39.8,37.8,41.1,36.2,42.6,34.4z M9.7,68.2c-0.3,1.6,0.2,2.5,1.6,3.1c2.6,1.1,5.1,2.2,7.7,3.3
		c19.4,8.3,38.8,16.5,58.2,24.8c1.6,0.7,2.7,0.2,3.4-1.5c-1.6,0.7-3.2,0.7-4.8-0.1c-1.8-0.8-3.6-1.5-5.4-2.3
		C51,87.1,31.5,78.8,12,70.5C10.9,70,10,69.4,9.7,68.2z"/>
	<path d="M77.3,94.7c-1.6-0.1-2.8-0.4-3.6-1.6c-0.7-1-0.5-2.1,0.4-2.9c1.4-1.1,3.8-1.1,5.2-0.1c1.6,1.3,1.5,3.1-0.4,4
		C78.4,94.5,77.7,94.6,77.3,94.7z M77,94.2c1.5-0.1,2.4-0.3,2.7-1.4c0.3-1-0.3-1.9-1.2-2.2c-0.9-0.4-1.9-0.6-2.8-0.5
		c-0.6,0.1-1.4,0.8-1.5,1.3c-0.1,0.6,0.4,1.6,0.9,2C75.6,93.9,76.6,94.1,77,94.2z"/>
	<path d="M97.6,63.5c-0.4-0.1-0.7-0.2-1.1-0.3c-1.5-0.4-2.6-1.4-2.4-2.4c0.2-0.9,1.6-1.8,3-1.6c0.8,0.1,1.7,0.3,2.3,0.8
		c0.5,0.4,1,1.2,0.9,1.8c0,0.5-0.8,1-1.3,1.4C98.7,63.4,98.1,63.4,97.6,63.5z M98.1,63.3c0.6-0.5,1.4-0.8,1.5-1.2
		c0.1-0.5-0.3-1.4-0.8-1.7c-0.7-0.4-1.7-0.6-2.6-0.6c-0.4,0-1,0.5-1.1,0.9c-0.1,0.4,0.1,1.1,0.4,1.3C96.2,62.5,97.1,62.8,98.1,63.3z
		"/>
	<path d="M19.9,66.4c-1.9-0.1-3-0.8-3.1-1.6c-0.1-0.9,0.8-1.8,2.3-2c0.9-0.1,1.8,0,2.6,0.3c1.3,0.5,1.5,1.8,0.3,2.5
		C21.2,66,20.3,66.2,19.9,66.4z M20,65.9c0.1,0.1,0.1,0.1,0.2,0.2c0.6-0.5,1.6-0.8,1.8-1.4c0.3-1-0.8-1.3-1.6-1.5
		c-0.3-0.1-0.6-0.2-0.8-0.1c-0.8,0.1-1.9,0.1-2,1.1c-0.2,1.1,0.8,1.3,1.6,1.5C19.5,65.8,19.7,65.8,20,65.9z"/>
</g>
</svg>
