<?xml version="1.0" encoding="utf-8"?>
<!-- Generator: Adobe Illustrator 26.5.0, SVG Export Plug-In . SVG Version: 6.00 Build 0)  -->
<svg version="1.1" id="Katman_2_xA0_Image_00000157304835355652877210000008909919894132440477_"
	 xmlns="http://www.w3.org/2000/svg" xmlns:xlink="http://www.w3.org/1999/xlink" x="0px" y="0px" viewBox="0 0 120 120"
	 style="enable-background:new 0 0 120 120;" xml:space="preserve">
<g>
	<path d="M33.6,20.1c6.5,0.2,11.2,1.7,14.9,5.8c2.2,2.4,3.2,5.3,3,8.7c-0.2,2.2,0.1,4.4-0.1,6.6c-0.5,6.4-5.3,12.3-11.5,14.3
		c-9.1,2.8-18.6-2-21.6-11c-0.9-2.7-1.1-5.5-0.6-8.3c0.3-1.7,0.3-3.4,0.7-5c1.2-5,4.7-8,9.3-9.6C29.9,20.6,32.4,20.3,33.6,20.1z
		 M50.1,39.2c-4.1,5.4-9.6,7.4-15.9,7.2c-6.4-0.2-11.7-2.8-15.1-8.6c-0.9,3.9,1.1,10.7,5.8,14.4c5.1,4.1,11.9,4.5,17.7,1
		C47.8,49.9,50.6,43.2,50.1,39.2z M33.5,41.5c4.5,0,7-0.8,9.5-2.7c3.4-2.7,3.9-7.2,1.2-10.5C40,23.2,30.5,23,26.1,28
		c-2.8,3.2-2.8,7.1,0.1,10.2C28.6,40.5,31.5,41.5,33.5,41.5z"/>
	<path d="M79.6,20.6c5.2,0.3,10.3,1.8,14.1,6.2c2.6,3.1,3.6,6.7,2.3,10.7c-0.1,0.4-0.2,0.9-0.1,1.3c1,6.4-1.4,11.3-6.6,14.8
		c-7.2,5-17.1,4.3-23.5-1.7c-4.3-4-5.8-8.9-4.3-14.7c0.2-0.7,0.2-1.4,0.2-2.1c-0.4-4.7,1.7-8.2,5.3-10.9
		C70.6,21.7,74.7,20.7,79.6,20.6z M94.6,40.4c-4.4,5.3-10.1,7.3-16.5,7c-6.5-0.3-11.9-2.8-15.5-8.6c-0.2,0.7-0.4,1.4-0.4,2.1
		c0.1,2.6,0.7,5.1,2,7.3c3.6,5.9,11,9.2,17.8,7.9c5.9-1.2,10.2-4.5,12.2-10.3C94.7,44.1,95.1,42.4,94.6,40.4z M80.5,41.2
		c2,0.1,3.8-0.3,5.6-1.2c4-2.1,5.2-6.5,2.9-10.3c-3.3-5.2-12-7.2-17.2-4c-3.7,2.3-4.6,6.7-2,10.2C72.4,39.6,76.2,40.9,80.5,41.2z
		 M63.4,31.2c-1.2,3.9,0,7.3,2.7,10.1c4.6,4.6,10.3,6,16.6,5.2c3.8-0.5,7-2.1,9.6-4.9c1.3-1.4,2.1-2.9,2.5-4.8c-0.2,0-0.2,0-0.2,0
		c-0.1,0.2-0.2,0.3-0.3,0.5c-1.1,2.3-2.9,4.1-5.1,5.4c-4.1,2.5-8.6,3-13.3,2.3c-3.4-0.5-6.5-1.9-9-4.4C64.2,38.1,63,34.9,63.4,31.2z
		"/>
	<path d="M61.1,79.1c0-5.6,2.7-7.1,6.6-4.9c0.7,0.4,1.1,0.4,1.8,0c5.6-3.1,11.2-6.2,17.2-8.3c0.3-0.1,0.7-0.2,1-0.3
		c3.3-1,5-0.5,7,2.2c2,2.7,2.8,5.7,2.6,9c0,0.6-0.7,1.4-1.3,1.8c-2.8,1.8-5.5,3.7-8.4,5.2c-3.3,1.8-6.8,3.3-10.3,4.8
		c-0.7,0.3-1,0.7-1,1.4c0,0.6,0,1.2-0.1,1.8c-0.4,2.4-2.1,3.5-4.4,2.9c-2.5-0.6-4.2-2.3-5.7-4.1C63.2,86.9,61.3,82.8,61.1,79.1z
		 M76.3,87.7c1.9-0.8,3.6-1.5,5.2-2.3c4.2-2.2,8.3-4.5,12.5-6.8c0.4-0.2,0.8-1,0.8-1.4c-0.6-3.8-2.3-7.2-5-10
		c-0.6-0.6-1.2-0.7-2.1-0.4c-5.9,2.1-11.5,5-16.9,8.2c-0.3,0.2-0.5,0.4-0.9,0.7C73.2,79.1,75.2,83.1,76.3,87.7z M69.9,87.1
		c-0.3-2.6-1.2-4.5-2.8-6c-0.4-0.4-1.1-0.5-1.6-0.7c-0.2,0.6-0.6,1.3-0.5,1.8c0.3,2.1,1.2,4,2.8,5.5c0.4,0.3,1.1,0.7,1.4,0.6
		C69.6,88.1,69.7,87.4,69.9,87.1z M90.5,66.1c-0.1,0.1-0.1,0.2-0.2,0.3c2.8,2.3,4.2,5.5,5.5,9c0.6-2.8-1.9-8-4.2-9.1
		C91.3,66.1,90.9,66.1,90.5,66.1z"/>
	<path d="M16.8,74.1c0-2.3-0.1-3.8,0-5.4c0.2-2,1.1-3.8,2.6-5.1c0.7-0.6,1.7-0.9,2.6-1.2c0.9-0.3,2-0.3,2.8-0.7
		c1.4-0.6,2.6-0.3,3.9,0.4c6.7,4.2,13.4,8.5,20.2,12.6c2,1.2,3,2.6,2.8,4.9c0,0.4,0.1,0.9,0.4,1.2c1,0.9,1,1.9,0.5,2.8
		c-1,1.8-1.8,3.8-3.3,5.2c-2.2,2.2-5.2,2.8-8.3,2.4c-0.5-0.1-1-0.4-1.4-0.7c-6.9-4.5-13.7-9.1-20.6-13.6c-0.2-0.1-0.3-0.3-0.5-0.3
		C17.1,76.1,16.6,75,16.8,74.1z M49.1,76.3c-0.4-0.4-0.6-0.6-0.9-0.8c-6.8-4.3-13.5-8.5-20.3-12.8c-0.9-0.5-1.6-0.5-2.5-0.1
		c-4.1,2-6.4,5.3-7.2,9.7c-0.3,1.6-0.5,3.2,1.7,3.8c0.1,0,0.3,0.2,0.4,0.3c6,4,12.1,8,18.1,12.1c0.4,0.2,0.8,0.5,1.4,0.8
		c0.2-3,1.2-5.5,2.8-7.7C44.3,79.2,46.3,77.5,49.1,76.3z M41.2,88.1c0,2.4,0.7,2.9,2.7,2.2c0.4-0.1,0.8-0.3,1.2-0.5
		c0.2-0.1,0.5-0.4,0.5-0.7c0.1-3.5,2.1-5.9,4.5-8.1c0.2-0.2,0.5-0.5,0.5-0.7c0-0.8-0.1-1.6-0.2-2.4c-0.2-1.2-0.6-1.4-1.6-0.8
		c-1,0.6-2.1,1.2-2.9,2C43.2,81.7,41.5,84.7,41.2,88.1z M46.9,89.1c2.3-0.9,5.2-5.5,4.6-7.3C49.5,82.7,46.9,86.8,46.9,89.1z"/>
	<path d="M36,27.4c2.2-0.3,4.2,0.4,6,1.9c3,2.5,2.9,6.2,0,8.8c-3.7,3.2-10.2,3-13.5-0.4c-2.1-2.2-2.1-5.3-0.1-7.5
		C30.2,28.1,32.3,27.4,36,27.4z M36.7,29.7c0.1-2,0-2.2-2-1.9c-1.2,0.2-2.4,0.5-3.5,1.1c-3.3,1.8-4.1,5.7-1.7,8.2
		c0.2,0.2,0.9,0.5,1.1,0.3c1.3-0.9,2.8-1,4.4-1c0.7,0,1-0.2,1-1C36.2,33.5,36.5,31.6,36.7,29.7z M42.9,34.3c0-2.7-1.9-5.1-3.8-5.8
		c-0.8-0.3-1,0.1-1.1,0.8c-0.2,1.7-0.2,3.4-0.6,5c-0.4,1.6-0.2,2.6,1.6,3.2c1.5,0.5,1.8,0.7,2.7-0.6C42.3,36,42.6,34.9,42.9,34.3z"
		/>
	<path d="M79,27.4c2.6-0.6,4.6,0.6,6.5,1.9c1.8,1.2,3,3,2.8,5.2c-0.2,2.6-2,4-4.3,4.8c-4.3,1.4-8.3,0.6-11.6-2.6
		c-3-2.8-2.3-6.8,1.4-8.5c1.6-0.7,3.4-0.9,5.1-1.3C79,27.1,79,27.3,79,27.4z M78.1,27.7c-0.7,0.1-1.3,0.2-1.9,0.3
		c-2,0.5-3.6,1.5-4.1,3.5c-0.5,2,0.4,3.7,1.9,5c0.3,0.3,1,0.3,1.4,0.3c1.2-0.2,2.4-0.6,3.6-0.8c0.8-0.1,1-0.4,1.1-1.1
		c0.3-1.9,0.6-3.9,0.8-5.8c0-0.3-0.2-0.9-0.5-1C79.6,27.9,78.8,27.8,78.1,27.7z M82.2,28.8c-0.1,0.6-0.3,1.2-0.4,1.8
		c-0.2,1.4-0.3,2.9-0.6,4.2c-0.2,0.9-0.1,1.5,0.9,1.8c0.5,0.2,1,0.5,1.4,0.9c1.1,0.9,1.4,1,2.3-0.1c0.5-0.5,0.9-1.2,1.1-1.9
		C87.7,32.9,85.6,29.8,82.2,28.8z"/>
</g>
</svg>
