<?xml version="1.0" encoding="utf-8"?>
<!-- Generator: Adobe Illustrator 26.5.0, SVG Export Plug-In . SVG Version: 6.00 Build 0)  -->
<svg version="1.1" id="Yeni_topluluk_00000070080247443574944260000009555763854160950698_"
	 xmlns="http://www.w3.org/2000/svg" xmlns:xlink="http://www.w3.org/1999/xlink" x="0px" y="0px" viewBox="0 0 120 120"
	 style="enable-background:new 0 0 120 120;" xml:space="preserve">
<style type="text/css">
	.st0{fill:#FFFFFF;}
</style>
<g>
	<path d="M63.3,57.5c0.9,0,1.6-0.1,2.2,0c1.4,0.2,2.3-0.5,3.1-1.3c1.9-2,4.3-2.3,6.6-0.8c0.9,0.6,1.7,1.4,2.5,2.2
		c0.8,0.9,1.1,0.9,1.8-0.2c0.2-0.4,0.6-0.9,1-1.1c3.8-1.6,7.5-3.1,11.3-4.5c0.6-0.2,1.5,0,2.1,0.4c3,1.8,4.6,5.7,4.1,9.2
		c-0.2,1.1-0.9,1.4-1.8,1.8c-3.6,1.4-7.2,2.8-10.8,4.2c-0.6,0.2-1.3,0.4-2,0.4c-0.3,0-0.7-0.1-1-0.2c-0.3-0.1-0.6-0.3-0.9-0.4
		c-0.1,0.3-0.3,0.7-0.4,1.1c-0.5,1.6-0.7,3.3-1.4,4.8c-1.4,2.6-4,3.2-6.7,1.9c-0.7-0.3-1.5-0.5-2.2-0.7c-1-0.3-1.9-0.5-2.2-1.8
		c-0.1-0.4-0.4-0.9-0.7-1.2c-1.2-1.3-2.3-2.6-3.5-3.9c-0.3-0.3-0.6-0.6-0.6-1c-0.2-1-0.3-2-0.3-3C63.5,61.5,63.4,59.6,63.3,57.5z
		 M80.9,57c0.3,0.4,0.3,0.5,0.4,0.5c2.9,2,3.6,4.8,2.6,8c-0.1,0.4-0.1,0.9-0.1,1.3c0.2,0,0.3,0.1,0.4,0.1c4.1-1.6,8.1-3.1,12.2-4.7
		c0.3-0.1,0.7-0.7,0.7-1.1c0.4-3.4-0.7-6.1-3.4-8.2c-0.3-0.3-1-0.4-1.4-0.2c-2.1,0.6-4.1,1.3-6.1,2.1C84.4,55.4,82.7,56.2,80.9,57z
		 M70.5,64.6c0.1-0.1,0.2-0.2,0.3-0.3c1.6,0.2,2.1,0.7,2,2.2c-0.1,1.6-0.1,3.2-0.3,4.8c0,0.3-0.4,0.6-0.7,0.7
		c-0.3,0.1-0.7-0.1-1.1-0.1c-0.2,0-0.6,0.2-0.7,0.3c-0.1,0.3-0.1,0.8,0.1,1c0.3,0.3,0.7,0.4,1.1,0.6c0.7,0.2,1.5,0.4,2.2,0.5
		c0.5,0.1,1,0.3,1.5,0.4c0.9,0.2,1.4-0.1,1.4-1.1c0-2.1,0.1-4.2,0.1-6.2c0-0.4-0.4-1-0.7-1.2c-1.7-0.8-3.1-2-4-3.6
		c-1.5-2.5-3.7-3.8-6.4-4.3c-0.8-0.2-1.2,0.1-1.2,1c0.1,2.1,0.1,4.3,0.5,6.3c0.2,1,1.3,1.8,2,2.6c0.3,0.3,0.9,0.3,1.2,0.5
		c0.7,0.6,1.1,1.4,1.9,1.9c0.5,0.3,1.3,0.4,2,0.3c0.1,0,0.3-0.9,0.3-1.4c0.1-0.8,0.1-1.6,0.2-2.4c0.1-0.7-0.1-1.2-0.8-1.6
		C71.1,65.3,70.8,64.9,70.5,64.6z M77,74.2c0.1,0.1,0.2,0.2,0.3,0.3c0.3-0.5,0.9-1,1-1.5c1.3-4.4,1-8.8-1.2-12.9
		c-1.1-2.1-2.8-3.7-5.3-4c-1.5-0.2-2.7,0.4-3.3,1.5c1.4,1.6,2.7,3.2,4.1,4.7c1,1.1,2.2,2.1,3.5,2.8c0.8,0.5,1,0.8,1,1.7
		C76.9,69.3,77,71.7,77,74.2z M81.4,66.9c0.9-0.7,1.8-1.1,2.1-1.8c0.9-2.2-0.3-5.4-2.4-6.5c-0.4-0.2-1.2,0-1.6,0.2
		c-0.2,0.1-0.2,0.9-0.1,1.3c0.5,1.8,1.1,3.6,1.6,5.3C81.1,65.8,81.2,66.2,81.4,66.9z M75.2,56.4c4.3,4.6,4.6,10,4.1,15.7
		C82.3,68,79.9,58.7,75.2,56.4z"/>
	<path d="M63.3,79.3c0.9,0,1.6-0.1,2.3,0c1.4,0.2,2.3-0.5,3.1-1.4c1.8-1.9,4.2-2.3,6.4-0.8c1,0.7,1.9,1.6,2.7,2.5
		c0.7,0.7,1.1,0.7,1.6-0.2c0.3-0.5,0.7-1,1.2-1.2c3.7-1.5,7.4-3.1,11.1-4.4c0.6-0.2,1.6,0,2.2,0.4c3,1.8,4.6,5.8,4,9.2
		c-0.2,1-0.8,1.4-1.7,1.7c-2.9,1.1-5.7,2.4-8.6,3.6c-1.3,0.5-2.7,0.8-4,1.1c-0.4,0.1-0.8-0.1-1.2-0.2c-0.3-0.1-0.6-0.3-0.9-0.4
		c-0.1,0.3-0.3,0.6-0.4,1c-0.2,1.1-0.3,2.3-0.7,3.4c-1.3,3.8-4.4,5-8,3c-0.4-0.2-0.9-0.3-1.3-0.4C70,96,69,95.7,68.7,94.2
		c-0.1-0.4-0.4-0.7-0.6-1c-0.7-0.8-1.4-1.7-2.3-2.5c-1.6-1.4-2.2-3.1-2.2-5.2C63.6,83.5,63.4,81.5,63.3,79.3z M83.5,89
		c4.8-1.3,9-2.9,12.9-5c0.3-0.2,0.5-0.6,0.6-1c0.4-3.5-0.7-6.3-3.5-8.4c-0.3-0.2-0.8-0.3-1.2-0.2c-3.5,1.3-7,2.6-10.5,4
		c-0.3,0.1-0.5,0.3-1,0.6C84.8,81.4,84.7,84.9,83.5,89z M70.5,86.5c0.1-0.1,0.2-0.2,0.3-0.3c1.6,0.2,2.1,0.7,2,2.2
		c-0.1,1.2-0.2,2.5-0.3,3.7c-0.1,1.7,0,1.7-1.7,1.7c-0.3,0-0.8,0.2-0.8,0.4c-0.1,0.3,0.1,0.8,0.3,1c0.3,0.3,0.7,0.3,1.1,0.4
		c0.6,0.2,1.3,0.3,1.9,0.4c0.6,0.1,1.1,0.4,1.7,0.5c0.9,0.2,1.4-0.1,1.4-1.1c0-2.1,0.1-4.2,0.1-6.4c0-0.3-0.3-0.9-0.6-1
		c-1.9-0.8-3.3-2.2-4.4-4c-1.4-2.5-3.7-3.5-6.3-4.1c-0.7-0.1-1.1,0.1-1.1,0.9c0.1,2.2,0.1,4.4,0.5,6.6c0.2,0.9,1.1,2.2,1.8,2.3
		c1,0.1,1.4,0.7,1.9,1.2c0.4,0.5,0.8,1.1,1.4,1.3c0.6,0.3,1.4,0.4,2,0.3c0.1,0,0.3-0.9,0.3-1.4c0.1-0.8,0.1-1.6,0.2-2.4
		c0.1-0.7-0.1-1.2-0.8-1.6C71.1,87.1,70.8,86.8,70.5,86.5z M77,96c0.1,0.1,0.2,0.2,0.3,0.3c0.4-0.5,0.9-0.9,1-1.5
		c1.3-4.5,1-8.8-1.2-13c-0.8-1.5-1.9-2.7-3.5-3.4c-2.4-1-4.1-0.6-5,1.1c1.5,1.7,2.8,3.4,4.3,4.9c1,1,2,1.9,3.2,2.6
		c0.8,0.4,1.1,0.8,1,1.7C76.9,91.1,77,93.6,77,96z M81.4,88.7c0.8-0.7,1.7-1,2-1.7c1-2.2-0.3-5.5-2.5-6.6c-0.4-0.2-1.1,0-1.6,0.3
		c-0.2,0.1-0.2,0.8-0.1,1.2c0.5,1.8,1.1,3.6,1.7,5.4C81.1,87.7,81.2,88,81.4,88.7z M79.5,93.7c2.6-2.9,1-12.8-4.3-15.5
		c2.2,2.2,3.5,4.6,3.8,7.4C79.3,88.3,79.3,91.1,79.5,93.7z"/>
	<path d="M31.1,69.9c1.2,0.4,2.4,0.8,3.6,1.2c0.7,0.3,1,0.9,1,1.7c0,1.6,0.1,3.2,0.1,4.8c0,0.4-0.1,0.9-0.4,1.2
		c-1.6,1.5-1.6,2-0.5,4.2c-0.5,0.3-1,0.6-1.5,0.7c-2.4,0.9-4.8,1-7.3,0.1c-0.8-0.3-1.3-0.8-1.3-1.8c-0.1-3.1-0.2-6.2-0.4-9.3
		c-0.1-1.2,0.7-1.5,1.5-1.9c0.8-0.4,1.7-0.7,2.8-1.1c-0.5-0.5-1.2-0.7-1.2-1.1c-0.1-0.3,0.4-0.8,0.8-1.3c-0.5-0.6-0.9-1.3,0.3-1.7
		c-0.3-0.5-0.8-0.9-0.8-1.4c0-0.4,0.7-0.7,0.9-1c-0.4-0.6-0.8-1.2-1.4-1.7c-0.4-0.3-1-0.3-1.5-0.3c-0.9,0-1.2-0.3-1.2-1.2
		c0-1.5-0.2-2.9-0.2-4.4c0-0.7-0.4-1-1.1-0.9c-1.2,0-2.4,0-3.6,0c-0.9,0-1.2-0.2-1.2-1.1c0.3-3.8-0.3-3.3,3.3-3.4
		c6-0.1,12.1,0,18.1,0c1.1,0,1.5,0.3,1.4,1.4c-0.1,3,0.6,3.2-3.1,3.1c-3-0.1-3-0.1-3.2,2.9c-0.1,0.9-0.2,1.8-0.2,2.7
		c0,0.9-0.3,1.4-1.4,1.2c-1.1-0.2-2.3-0.2-3.5-0.3c-0.5,0-0.9,0.1-1.7,0.2c1.5,1.4,3.2,1,4.6,1.8c-1.4,0.1-2.7,0.3-4.1,0.4
		c0,0.1,0,0.3,0,0.4c1.1,1.2,2.7,0.8,4.1,1.4c-1.3,0.1-2.7,0.3-4,0.4c0,0.2,0,0.4,0,0.6c1.3,0.2,2.7,0.4,4,0.6c0,0.1,0,0.2,0,0.3
		c-1.4,0.4-3.1-0.3-4.6,0.8c1.5,1.3,3.3,0.5,4.8,0.9c0,0.1,0,0.2,0,0.3C32.5,69.7,31.8,69.8,31.1,69.9z M30.2,50.6
		c0,0.1,0,0.2,0,0.3c-2.8,0-5.5,0-8.3,0c-2.4,0.1-2.4,0.1-2.4,2.5c0,0.7,0.3,1,1,1c1.3,0,2.6,0,3.8-0.1c0.7,0,0.9,0.2,1,0.8
		c0.1,1.5,0.3,3,0.3,4.5c0,1,0.3,1.4,1.3,1.4c2,0,4.1,0,6.1,0.1c0.7,0,0.9-0.4,0.9-1c0.1-1.6,0.3-3.2,0.3-4.8c0-0.8,0.4-1.1,1.1-1
		c0.9,0,1.8,0.1,2.8,0.1c2.6,0.1,2.4,0.5,2.4-2.4c0-0.8-0.3-1-1.1-1.1C36.3,50.8,33.3,50.7,30.2,50.6z M25.5,73.2c0,0.1,0,0.5,0,0.8
		c0.1,2.6,0.3,5.2,0.3,7.8c0,1.3,0.6,1.8,1.7,2.1c1.8,0.5,3.6,0.2,5.3-0.4c0.8-0.3,0.9-0.7,0.6-1.5c-0.5-1.3-0.4-2.5,1-3.3
		c0.2-0.1,0.4-0.4,0.4-0.6c0-1.6,0-3.3,0-4.9C31.6,73.2,28.7,73.2,25.5,73.2z M28.3,71.1c1,0.8,2.3,0.4,3.4,0.8
		c-1.3,0.6-3.5,0.5-4.2-0.3c-0.8-0.9-1.2-0.3-1.6,0.3c1.7,1.7,7.3,1.8,8.4,0.3C33.1,70.7,29.9,70.1,28.3,71.1z"/>
	<path d="M52.2,63.4c1.3,0.3,2.5,0.6,3.8,0.9c0,0.1,0,0.1,0,0.2c-1.2,0.1-2.5,0.3-4,0.5c1.2,1.6,2.8,1.1,4,1.8
		c-1.2,0.1-2.4,0.3-3.6,0.4c0,0.2,0,0.4,0,0.6c1.2,0.2,2.4,0.4,3.6,0.6c0,0.1,0,0.1,0,0.2c-1.3,0.2-2.7,0.3-4,0.5c0,0.2,0,0.3,0,0.5
		c1.2,1.1,2.9,0.4,4.7,0.9c-0.7,0.3-1,0.5-1.5,0.7c1,0.4,1.9,0.7,2.8,1c0.8,0.3,1.1,0.9,1.1,1.8c0,1.1,0,2.2,0.1,3.4
		c0.1,1.2,0,2.1-1.1,3c-1.1,0.9-0.4,2.1,0.3,3.4c-0.6,0.3-1.1,0.6-1.7,0.8c-2.3,0.8-4.6,0.9-6.9,0.1c-0.8-0.3-1.1-0.7-1.2-1.6
		c-0.1-3-0.2-6.1-0.4-9.1c-0.1-1.1,0.6-1.5,1.4-1.8c0.8-0.4,1.7-0.7,2.7-1.1c-1.1-0.7-1.8-1.4-0.4-2.2c-0.6-0.7-0.7-1.4,0.3-1.9
		c-1-0.8-1.2-1.6,0.3-2.2c-1.2-0.7-1.6-2.3-3.3-2c-0.2,0-0.6-0.6-0.7-1c-0.2-1.4-0.2-2.9-0.3-4.3c0-0.8-0.4-1.1-1.1-1
		c-1.1,0-2.2,0-3.4,0c-0.8,0-1.1-0.2-1.1-1.1c0-3.2,0-3.2,3.2-3.3c5.8,0,11.5,0,17.3,0c1.7,0,1.7,0,1.7,1.6c0,2.7,0,2.7-2.6,2.7
		c-0.6,0-1.2,0-1.8,0c-1.5,0-1.6,0.1-1.7,1.6c-0.1,1.3-0.2,2.5-0.3,3.8c0,1.1-0.5,1.4-1.5,1.2c-1.1-0.1-2.1-0.2-3.2-0.3
		c-0.4,0-0.8,0.1-1.2,0.2C52.3,63.1,52.3,63.2,52.2,63.4z M55.3,52.1c0,0.1,0,0.2,0,0.3c-3.2,0-6.5,0-9.7,0c-2.1,0-2.1,0.1-2.1,2.2
		c0,0.1,0,0.2,0,0.2c-0.1,0.8,0.3,1.1,1.1,1.1c1.2,0,2.3,0,3.5-0.1c0.7-0.1,1,0.2,1.1,0.9c0.1,1.4,0.2,2.9,0.3,4.3
		c0,1,0.4,1.4,1.4,1.3c1.9,0,3.8,0,5.7,0c0.3,0,0.8-0.6,0.9-0.9c0.2-1.4,0.3-2.9,0.3-4.3c0-1.1,0.5-1.4,1.5-1.3
		c1,0.1,1.9,0.1,2.9,0.2c1.6,0.1,1.7,0,1.7-1.6c0-0.3,0-0.6,0-0.8c0-0.7-0.3-1-1-1C60.2,52.3,57.8,52.2,55.3,52.1z M49.3,73.7
		c0,0.5-0.1,0.9-0.1,1.3c0.1,2.5,0.3,5,0.3,7.5c0,1.1,0.6,1.6,1.5,1.9c1.7,0.5,3.3,0.3,4.9-0.2c0.9-0.3,1.3-0.7,0.9-1.8
		c-0.4-1.1-0.3-2.2,0.8-3c0.3-0.2,0.5-0.8,0.6-1.2c0.1-1.1,0-2.2,0-3.3c0-0.7-0.3-0.8-1-0.8c-1.8,0.1-3.6,0.1-5.4,0.1
		C51.1,74.2,50.3,73.9,49.3,73.7z M54.7,72.8c-1.3,0.1-2.7,0.6-3.8-0.5c-0.2-0.2-0.7,0-1.1,0.1c0.1,0.3,0.2,0.8,0.4,0.9
		c2.2,0.9,4.5,1.1,6.9,0.4c0.2-0.1,0.6-0.4,0.6-0.6c0-0.2-0.3-0.6-0.6-0.7c-1.5-0.3-3-0.5-4.5-0.8c-0.2,0-0.3,0.2-0.5,0.3
		c0,0.1,0,0.2,0,0.3C52.9,72.5,53.8,72.6,54.7,72.8z"/>
	<path d="M72.9,22.4c0.6,0.8,1.4,1.4,1.6,2.2c0.1,0.7-0.4,1.5-0.8,2.4c0.2,0.2,0.6,0.4,0.9,0.8c0.9,0.7,1,1.7,0.2,2.5
		c-0.8,0.9-1.6,1.7-2.5,2.4c-0.5,0.4-1.3,0.6-2,0.6c-1.1,0-2.2-0.1-3.2-0.2c-0.5-0.1-1-0.4-1.3-0.7c-0.4-0.3-0.6-0.7-0.9-1.1
		c-1-1.4-0.9-2.5,0.4-3.6c0.6-0.5,0.6-0.9,0-1.4c-1-0.9-0.9-1.4,0.2-2.2c1.5-1.1,1.5-1.3,0-2.4c-1.2-0.9-1.2-1.6-0.1-2.6
		c2.3-2.1,6.4-1.7,8.6,0.1c1,0.9,1,2-0.1,2.8C73.7,22,73.3,22.2,72.9,22.4z M69.3,30.4c1.4-0.1,2.8-0.3,4.3-0.5
		c0.3-0.1,0.6-0.6,0.9-0.9c-1-0.7-1.9-1.7-2.9-2.1c-1.1-0.4-2.5-0.3-3.6,0c-0.9,0.2-1.9,0.8-2.4,1.5c-0.7,0.9-0.1,1.7,1,1.8
		C67.3,30.4,68.2,30.4,69.3,30.4z M68.2,21.9c-0.6,0.8-1,1.3-1.5,1.9c-0.3,0.3-0.7,0.6-1,0.9c0.4,0.3,0.8,1,1.2,1
		c1.9,0.2,3.8,0.2,5.7,0.2c0.4,0,1-0.3,1-0.6c0.1-0.3-0.3-0.8-0.5-1.1c-0.5-0.7-1-1.4-1.6-2.3C70.5,21.9,69.2,21.9,68.2,21.9z
		 M73.8,20.6c-0.1-0.3-0.1-0.5-0.1-0.6c-1.1-2.1-6.3-2.5-7.7-0.7c-0.4,0.5-0.4,1,0.3,1.2c0.6,0.2,1.2,0.3,1.7,0.4
		C69.9,21,71.9,21.3,73.8,20.6z M66.8,31.3c0,0.1-0.1,0.2-0.1,0.4c1.1,1.3,2.7,0.6,4.1,0.9c1.2,0.3,2-0.6,2.8-1.7
		C71.1,31.1,69,31.2,66.8,31.3z"/>
	<path d="M55.3,34.3c-1-0.2-1.7-0.2-2.3-0.4c-1.6-0.4-2.1-2-1-3.3c0.2-0.2,0.3-0.5,0.3-0.7c0-1.7,0.1-3.4,0-5c0-0.3-0.3-0.6-0.5-0.8
		c-0.3-0.3-0.9-0.7-0.8-0.9c0.2-0.9,0.3-2.2,1-2.6c2-1.3,4.3-1.3,6.6-0.6c0.4,0.1,0.7,0.8,0.8,1.2c0.1,0.5,0,1.1-0.1,1.7
		c-0.1,0.3-0.2,0.9-0.4,0.9c-1.8,0.5-1.1,1.8-1,2.9c0.1,0.8,0.1,1.7,0.2,2.5c0.1,0.6,0,1.2,0.9,1.5c0.6,0.2,0.3,2.5-0.4,2.8
		C57.2,33.8,56.1,34.1,55.3,34.3z M55,24.5c-1.7-0.2-1.8-0.2-1.8,1.7c0,1.2,0,2.3,0,3.5c0,1.7,0.2,1.9,1.9,1.9c0.4,0,0.7,0,1.1,0
		c0.7,0,0.9-0.3,0.8-1c-0.2-1.5-0.3-3.1-0.4-4.6C56.5,24.8,56.2,24,55,24.5z M55.1,23.7c0.8-0.1,1.5-0.2,2.3-0.3
		c1-0.1,0.9-0.9,1-1.6c0.1-0.7-0.1-1.2-0.8-1.4c-1.7-0.5-3.5-0.4-5.1,0.3c-0.4,0.2-0.7,1.1-0.8,1.7c0,0.3,0.6,0.8,1,0.9
		C53.5,23.6,54.3,23.6,55.1,23.7z M57.8,32c-1.8,0.1-3.5,0.2-5.2,0.3c0.2,1,1.8,1.4,3.9,1.1C57.5,33.3,58.1,33,57.8,32z"/>
	<path d="M17,93.2c0.4-0.2,0.9-0.3,1.2-0.5c2-1.5,3.9-3.1,6-4.6c0.4-0.3,1-0.4,1.4-0.4c4.6,0.2,9.2,0.5,13.8,0.7
		c0.3,0,0.8,0.2,0.9,0.4c0.1,0.3,0,0.8-0.2,1.1c-1.2,1.5-2.3,3-3.6,4.3c-0.3,0.3-1,0.5-1.5,0.5c-5.5-0.2-11-0.5-16.5-0.7
		c-0.3,0-0.7-0.1-1-0.2C17.3,93.6,17.2,93.4,17,93.2z M18.6,92.9c0.6,0.1,0.7,0.2,0.9,0.2c5.1,0.3,10.2,0.5,15.3,0.7
		c0.3,0,0.6,0,0.8-0.2c1.2-1.4,2.4-2.8,3.8-4.5c-1.1-0.1-1.8-0.2-2.5-0.3c-3.9-0.3-7.8-0.5-11.7-0.7c-0.3,0-0.7,0-0.9,0.2
		C22.5,89.9,20.7,91.3,18.6,92.9z"/>
	<path d="M44.8,91.3c1.2-1,2.3-2,3.6-3c0.3-0.2,0.8-0.2,1.3-0.2c4.3,0.2,8.7,0.4,13,0.7c0.3,0,0.8,0.2,0.9,0.4
		c0.1,0.3,0,0.8-0.2,1.1c-1.1,1.4-2.2,2.8-3.4,4.1c-0.3,0.4-1,0.6-1.6,0.6c-5.3-0.2-10.6-0.4-15.9-0.7c-0.3,0-0.7-0.1-1-0.2
		c-0.1-0.1-0.1-0.3-0.2-0.4C42.5,92.9,43.6,92.1,44.8,91.3c-0.7,0.5-1.4,1.1-2.1,1.7c0.1,0.1,0.2,0.3,0.3,0.4
		c0.3,0.1,0.6,0.2,0.9,0.2c4.7,0.2,9.4,0.5,14.1,0.7c0.3,0,0.8,0,1-0.2c1.2-1.3,2.3-2.7,3.7-4.2c-0.8-0.1-1.3-0.2-1.8-0.3
		c-4-0.3-8-0.5-12.1-0.7c-0.5,0-1,0.3-1.4,0.5C46.5,89.9,45.7,90.6,44.8,91.3z"/>
	<path d="M51.9,37.2c0.4,1.4-0.4,2.2-1.5,2.5c-1.4,0.4-2.9,0.6-4.3,0.5c-0.7,0-1.9-0.7-2-1.3c-0.3-1.3-0.4-2.7,0.7-3.8
		c1.2-1.2,4.9-1.5,6.2-0.3c0.6,0.6,0.9,1.5,1.3,2.3C52.1,37.1,52,37.2,51.9,37.2z M45.1,37.3c-0.4,1.3-0.3,1.8,0.9,2.3
		c1.3,0.5,2.7,0.5,4-0.2c1-0.5,1.2-1.2,0.6-2.3c-0.9,0.2-1.8,0.4-2.7,0.4C47,37.6,46.1,37.4,45.1,37.3z M47.9,34.4
		c-0.7,0.2-1.4,0.3-1.9,0.5c-0.8,0.4-0.9,1.1-0.1,1.7c0.9,0.7,3.1,0.8,4.1,0.1c0.7-0.5,0.8-1.2,0-1.6C49.3,34.8,48.6,34.6,47.9,34.4
		z"/>
	<path d="M73.9,38.9c-1.1-0.4-2.5-0.7-3.6-1.4c-1.4-0.8-1.3-2.2,0.1-2.9c2.4-1.2,4.8-1,7.1,0.4c1.5,0.9,1.3,2.4-0.3,3.1
		C76.2,38.5,75.2,38.6,73.9,38.9z M74.4,38.4c0.8-0.1,1.3-0.1,1.6-0.3c0.5-0.3,1.3-0.8,1.4-1.2c0.1-0.5-0.5-1.2-1-1.5
		c-1.4-0.9-2.9-1.1-4.5-0.7c-0.6,0.1-1.4,0.8-1.5,1.2c-0.1,0.5,0.6,1.3,1.1,1.6C72.5,37.9,73.6,38.1,74.4,38.4z"/>
	<path d="M62.9,39.2c-1.3-0.4-2.4-0.6-3.4-1c-1.2-0.6-1.2-1.7-0.1-2.5c1.7-1.3,5.7-1.5,7.5-0.4c1.1,0.7,1.3,1.8,0.1,2.5
		C65.7,38.5,64.2,38.8,62.9,39.2z M63.3,38.7c0.9-0.3,1.9-0.5,2.8-1c0.9-0.5,0.8-1.3,0-1.9c-1.4-1-4.4-1-5.8,0c-1,0.7-1,1.6,0.1,2.1
		C61.3,38.3,62.2,38.4,63.3,38.7z"/>
	<path d="M55.4,38.8c0.2,0.2,0.8,0.6,1,1.2c0.2,0.7-1,1.4-2.1,1.3c-0.8,0-1.4-0.3-1.5-1.2C52.8,39.4,53.8,38.8,55.4,38.8z
		 M54.5,39.1c-0.3,0.4-0.7,0.8-0.7,1c0.1,0.3,0.5,0.7,0.8,0.7c0.3,0,0.7-0.4,0.7-0.7C55.4,39.8,54.9,39.5,54.5,39.1z"/>
	<path class="st0" d="M25.5,73.2c3.1,0,6.1,0,9.3,0c0,1.6,0,3.3,0,4.9c0,0.2-0.2,0.5-0.4,0.6c-1.4,0.8-1.4,2-1,3.3
		c0.3,0.8,0.1,1.2-0.6,1.5c-1.7,0.6-3.5,0.9-5.3,0.4c-1.1-0.3-1.7-0.8-1.7-2.1c0-2.6-0.2-5.2-0.3-7.8C25.5,73.6,25.5,73.3,25.5,73.2
		z"/>
	<path class="st0" d="M28.3,71.1c1.6-1,4.9-0.3,6.1,1c-1.1,1.5-6.7,1.4-8.4-0.3c0.5-0.6,0.8-1.2,1.6-0.3c0.7,0.8,2.8,0.9,4.2,0.3
		C30.6,71.5,29.3,71.9,28.3,71.1z"/>
	<path class="st0" d="M49.3,73.7c1,0.2,1.8,0.4,2.6,0.5c1.8,0,3.6,0,5.4-0.1c0.7,0,1,0.1,1,0.8c0,1.1,0.1,2.2,0,3.3
		c0,0.4-0.2,1-0.6,1.2c-1.1,0.8-1.2,1.9-0.8,3c0.4,1,0,1.5-0.9,1.8c-1.6,0.5-3.3,0.8-4.9,0.2c-0.9-0.3-1.5-0.8-1.5-1.9
		c0-2.5-0.2-5-0.3-7.5C49.2,74.6,49.3,74.2,49.3,73.7z"/>
	<path class="st0" d="M54.7,72.8c-0.9-0.2-1.8-0.4-2.7-0.6c0-0.1,0-0.2,0-0.3c0.2-0.1,0.4-0.4,0.5-0.3c1.5,0.2,3,0.5,4.5,0.8
		c0.2,0,0.6,0.4,0.6,0.7c0,0.2-0.3,0.6-0.6,0.6c-2.3,0.7-4.6,0.5-6.9-0.4c-0.2-0.1-0.3-0.6-0.4-0.9c0.4,0,0.9-0.2,1.1-0.1
		C52.1,73.5,53.4,73,54.7,72.8z"/>
	<path d="M66.1,60.4c-0.1,1.9-0.2,3.9-0.3,5.8c-0.1,0-0.3,0-0.4,0c0.1-1.9,0.2-3.9,0.3-5.8C65.8,60.3,66,60.4,66.1,60.4z"/>
	<path d="M65.4,88c0.1-1.9,0.2-3.9,0.3-5.8c0.1,0,0.2,0,0.4,0c-0.1,1.9-0.2,3.9-0.3,5.8C65.7,88,65.5,88,65.4,88z"/>
	<path d="M29.5,89c1.9,0.2,3.4,0.3,4.8,0.6c0.7,0.2,1.4,0.8,2.1,1.2c-0.7,0.4-1.3,1.2-2,1.3c-2.3,0.2-4.6,0.3-6.9,0.3
		c-0.9,0-1.9-0.2-2.8-0.5c-0.5-0.1-0.9-0.6-1.3-0.9c0.4-0.4,0.7-0.9,1.2-1C26.4,89.5,28.1,89.3,29.5,89z M24.4,90.6
		c2.1,1.5,9.4,1.7,10.9,0.4C33.7,89.6,26.4,89.3,24.4,90.6z"/>
	<path d="M53.6,93.1c-1.9-0.3-3.6-0.5-5.2-0.9c-0.4-0.1-0.7-0.6-1.1-0.9c0.3-0.3,0.6-0.7,1-0.9c3.5-1.1,7.1-1.1,10.6,0
		c0.4,0.1,0.6,0.6,0.9,0.8c-0.3,0.3-0.6,0.7-0.9,0.8C57,92.4,55.2,92.7,53.6,93.1z M48.3,91c1.4,1.5,9,1.8,10.4,0.4
		C57.1,90,49.9,89.7,48.3,91z"/>
</g>
</svg>
