<?xml version="1.0" encoding="UTF-8"?><svg id="Layer_1" xmlns="http://www.w3.org/2000/svg" viewBox="0 0 1920 1080"><defs><style>.cls-1{stroke-width:.85px;}.cls-1,.cls-2,.cls-3,.cls-4,.cls-5{fill-rule:evenodd;}.cls-1,.cls-2,.cls-3,.cls-5{fill:none;stroke:#c79b33;stroke-miterlimit:10;}.cls-2{stroke-width:.82px;}.cls-3{stroke-width:1.49px;}.cls-6{opacity:.4;}.cls-4{fill:#c79b33;}.cls-5{stroke-width:.57px;}</style></defs><rect class="cls-6" width="1920" height="1080"/><g><polygon class="cls-4" points="1045.02 485.45 929.65 436.57 929.65 534.54 1045.02 485.45"/><polygon class="cls-3" points="1043.21 493.44 917.78 440.3 917.78 546.81 1043.21 493.44"/><polygon class="cls-4" points="1534.46 213.04 1491.71 194.92 1491.71 231.23 1534.46 213.04"/><polygon class="cls-4" points="83.14 609.61 40.38 591.49 40.38 627.8 83.14 609.61"/><polygon class="cls-4" points="410.74 595.74 326.99 560.25 326.99 631.38 410.74 595.74"/><polygon class="cls-4" points="532.71 867.76 490.83 850.01 490.83 885.58 532.71 867.76"/><polygon class="cls-4" points="271.75 233.37 223.53 212.94 223.53 253.89 271.75 233.37"/><polygon class="cls-4" points="953.75 276.46 905.54 256.03 905.54 296.98 953.75 276.46"/><polygon class="cls-4" points="761.59 159.08 713.38 138.65 713.38 179.59 761.59 159.08"/><polygon class="cls-4" points="109.65 276.49 94.13 269.92 94.13 283.09 109.65 276.49"/><polygon class="cls-4" points="316.22 760.41 280.16 745.13 280.16 775.75 316.22 760.41"/><polygon class="cls-4" points="666.98 938.91 651.47 932.33 651.47 945.51 666.98 938.91"/><polygon class="cls-4" points="473.96 368.32 458.45 361.75 458.45 374.92 473.96 368.32"/><polygon class="cls-4" points="775.11 760.42 759.59 753.85 759.59 767.03 775.11 760.42"/><polygon class="cls-4" points="125.78 775.72 94.13 762.31 94.13 789.19 125.78 775.72"/><polygon class="cls-4" points="537.55 711.43 511.77 700.51 511.77 722.4 537.55 711.43"/><polygon class="cls-4" points="205.56 403.88 142.5 377.16 142.5 430.72 205.56 403.88"/><polygon class="cls-2" points="204.57 408.25 136.01 379.2 136.01 437.42 204.57 408.25"/><polygon class="cls-4" points="1836.21 103.01 1752.45 67.52 1752.45 138.65 1836.21 103.01"/><polygon class="cls-4" points="1483.45 988.94 1441.57 971.2 1441.57 1006.76 1483.45 988.94"/><polygon class="cls-4" points="1699.61 609.6 1651.4 589.17 1651.4 630.12 1699.61 609.6"/><polygon class="cls-4" points="1520.84 128.14 1505.33 121.56 1505.33 134.74 1520.84 128.14"/><polygon class="cls-4" points="1382.29 453.88 1366.78 447.31 1366.78 460.48 1382.29 453.88"/><polygon class="cls-4" points="1308.48 114.96 1292.97 108.39 1292.97 121.56 1308.48 114.96"/><polygon class="cls-4" points="1462.51 471.66 1447 465.09 1447 478.26 1462.51 471.66"/><polygon class="cls-4" points="1182.36 453.87 1156.58 442.95 1156.58 464.84 1182.36 453.87"/><polygon class="cls-1" points="1478.48 318.91 1407.22 288.72 1407.22 349.23 1478.48 318.91"/><polygon class="cls-4" points="941.15 903.28 857.39 867.79 857.39 938.92 941.15 903.28"/><polygon class="cls-4" points="136.01 85.27 94.13 67.52 94.13 103.09 136.01 85.27"/><polygon class="cls-4" points="1235.46 664.8 1187.24 644.38 1187.24 685.32 1235.46 664.8"/><polygon class="cls-4" points="1494 768.42 1478.48 761.85 1478.48 775.03 1494 768.42"/><polygon class="cls-4" points="1767.96 453.88 1752.45 447.31 1752.45 460.48 1767.96 453.88"/><polygon class="cls-4" points="1035.36 745.11 1019.85 738.54 1019.85 751.71 1035.36 745.11"/><polygon class="cls-4" points="1593.76 921.12 1578.25 914.55 1578.25 927.72 1593.76 921.12"/><polygon class="cls-4" points="1313.61 903.33 1287.84 892.41 1287.84 914.3 1313.61 903.33"/><polygon class="cls-4" points="410.74 138.57 326.99 103.09 326.99 174.21 410.74 138.57"/><polygon class="cls-4" points="747.8 644.34 705.92 626.6 705.92 662.16 747.8 644.34"/><polygon class="cls-4" points="1127.35 205.58 1079.13 185.16 1079.13 226.1 1127.35 205.58"/><polygon class="cls-4" points="747.8 226.81 732.29 220.24 732.29 233.42 747.8 226.81"/><polygon class="cls-4" points="767.35 361.73 751.84 355.16 751.84 368.33 767.35 361.73"/><polygon class="cls-4" points="143.77 958.71 128.25 952.14 128.25 965.31 143.77 958.71"/><polygon class="cls-4" points="441.09 975.52 409.44 962.11 409.44 988.98 441.09 975.52"/><polygon class="cls-4" points="554.53 185.13 528.75 174.21 528.75 196.1 554.53 185.13"/><polygon class="cls-1" points="934.9 108.33 863.64 78.13 863.64 138.65 934.9 108.33"/><polygon class="cls-1" points="1795.84 988.92 1724.58 958.73 1724.58 1019.24 1795.84 988.92"/><polygon class="cls-5" points="392.75 447.26 344.98 427.02 344.98 467.59 392.75 447.26"/><polygon class="cls-5" points="1127.13 958.68 1079.36 938.44 1079.36 979.01 1127.13 958.68"/><polygon class="cls-4" points="670.41 508.19 644.64 497.26 644.64 519.15 670.41 508.19"/><polygon class="cls-4" points="552.47 594.13 536.96 587.56 536.96 600.73 552.47 594.13"/><polygon class="cls-4" points="263.15 50.6 247.64 44.03 247.64 57.2 263.15 50.6"/><polygon class="cls-4" points="1656.83 379.9 1631.05 368.98 1631.05 390.87 1656.83 379.9"/><polygon class="cls-4" points="1671.74 262.61 1656.23 256.03 1656.23 269.21 1671.74 262.61"/><polygon class="cls-4" points="1154.89 330.78 1139.38 324.21 1139.38 337.38 1154.89 330.78"/><polygon class="cls-4" points="1235.11 348.56 1219.6 341.99 1219.6 355.16 1235.11 348.56"/></g></svg>